<?xml version="1.0" encoding="UTF-8"?>
<svg width="74px" height="74px" viewBox="0 0 74 74" version="1.1" xmlns="http://www.w3.org/2000/svg" xmlns:xlink="http://www.w3.org/1999/xlink">
    <title>编组 5</title>
    <g id="2022.6" stroke="none" stroke-width="1" fill="none" fill-rule="evenodd">
        <g id="连接页" transform="translate(-71.000000, -252.000000)">
            <g id="编组" transform="translate(0.000000, 224.000000)">
                <g id="编组-10" transform="translate(24.000000, 28.000000)">
                    <g id="编组-5" transform="translate(47.000000, 0.000000)">
                        <circle id="椭圆形备份-4" stroke="#FFFFFF" fill="#202228" cx="37" cy="37" r="36.5"></circle>
                        <g id="LOGO" transform="translate(12.826910, 30.500000)" fill="#FFFFFF" fill-rule="nonzero">
                            <polygon id="路径" points="0 12.8272425 0 0.198671096 2.67774086 0.198671096 2.67774086 10.6159468 7.8 10.6159468 7.8 12.8272425"></polygon>
                            <path d="M21.4564784,6.49568106 C21.4564784,7.46888151 21.3355482,8.35426357 21.0936877,9.15182724 C20.8518272,9.94939092 20.4847176,10.6361019 19.9923588,11.2119601 C19.5,11.7878184 18.8766334,12.2297896 18.1222591,12.5378738 C17.3678848,12.8459579 16.4753045,13 15.4445183,13 C14.413732,13 13.5211517,12.8459579 12.7667774,12.5378738 C12.0124031,12.2297896 11.3890365,11.7878184 10.8966777,11.2119601 C10.4043189,10.6361019 10.0372093,9.94795127 9.79534884,9.14750831 C9.55348837,8.34706534 9.43255814,7.45736434 9.43255814,6.47840532 C9.43255814,5.17120709 9.64706534,4.0324474 10.0760797,3.06212625 C10.5050941,2.09180509 11.1658915,1.33887043 12.0584718,0.803322259 C12.951052,0.267774086 14.0854928,0 15.461794,0 C16.8323367,0 17.9595792,0.267774086 18.8435216,0.803322259 C19.727464,1.33887043 20.3839424,2.09324474 20.8129568,3.06644518 C21.2419712,4.03964563 21.4564784,5.18272425 21.4564784,6.49568106 Z M12.2398671,6.49568106 C12.2398671,7.37674419 12.3507198,8.13543743 12.5724252,8.7717608 C12.7941307,9.40808416 13.1410853,9.89756368 13.613289,10.2401993 C14.0854928,10.582835 14.6959025,10.7541528 15.4445183,10.7541528 C16.2046512,10.7541528 16.8208195,10.582835 17.2930233,10.2401993 C17.765227,9.89756368 18.1093023,9.40808416 18.3252492,8.7717608 C18.541196,8.13543743 18.6491694,7.37674419 18.6491694,6.49568106 C18.6491694,5.17120709 18.4015504,4.12890365 17.9063123,3.36877076 C17.4110742,2.60863787 16.5962348,2.22857143 15.461794,2.22857143 C14.7074197,2.22857143 14.092691,2.39988926 13.617608,2.74252492 C13.1425249,3.08516058 12.7941307,3.57464009 12.5724252,4.21096346 C12.3507198,4.84728682 12.2398671,5.60885936 12.2398671,6.49568106 Z" id="形状"></path>
                            <path d="M28.8677741,5.73554817 L33.8777409,5.73554817 L33.8777409,12.2830565 C33.2155039,12.5018826 32.5273533,12.6760797 31.813289,12.8056478 C31.0992248,12.9352159 30.290144,13 29.3860465,13 C28.1306755,13 27.0653378,12.752381 26.1900332,12.2571429 C25.3147287,11.7619048 24.6496124,11.0305648 24.1946844,10.0631229 C23.7397564,9.09568106 23.5122924,7.90653378 23.5122924,6.49568106 C23.5122924,5.17120709 23.7671096,4.02524917 24.2767442,3.05780731 C24.7863787,2.09036545 25.5321152,1.34174972 26.5139535,0.811960133 C27.4957918,0.282170543 28.6950166,0.0172757475 30.1116279,0.0172757475 C30.7796235,0.0172757475 31.4389812,0.0892580288 32.089701,0.233222591 C32.7404208,0.377187154 33.3306755,0.564341085 33.8604651,0.794684385 L32.9707641,2.93687708 C32.5849391,2.74108527 32.1444075,2.57696567 31.6491694,2.44451827 C31.1539313,2.31207087 30.6356589,2.24584718 30.0943522,2.24584718 C29.3169435,2.24584718 28.6417497,2.42436323 28.0687708,2.78139535 C27.4957918,3.13842746 27.052381,3.6379845 26.7385382,4.28006645 C26.4246955,4.92214839 26.2677741,5.67796235 26.2677741,6.54750831 C26.2677741,7.3709856 26.3800664,8.10088594 26.6046512,8.7372093 C26.8292359,9.37353267 27.1833887,9.87165006 27.6671096,10.2315615 C28.1508306,10.5914729 28.7813953,10.7714286 29.558804,10.7714286 C29.9388704,10.7714286 30.2599114,10.7527132 30.5219269,10.7152824 C30.7839424,10.6778516 31.0301218,10.6389812 31.2604651,10.5986711 L31.2604651,7.9641196 L28.8677741,7.9641196 L28.8677741,5.73554817 Z" id="路径"></path>
                            <path d="M48.3461794,6.49568106 C48.3461794,7.46888151 48.2252492,8.35426357 47.9833887,9.15182724 C47.7415282,9.94939092 47.3744186,10.6361019 46.8820598,11.2119601 C46.389701,11.7878184 45.7663344,12.2297896 45.0119601,12.5378738 C44.2575858,12.8459579 43.3650055,13 42.3342193,13 C41.303433,13 40.4108527,12.8459579 39.6564784,12.5378738 C38.9021041,12.2297896 38.2787375,11.7878184 37.7863787,11.2119601 C37.2940199,10.6361019 36.9269103,9.94795127 36.6850498,9.14750831 C36.4431894,8.34706534 36.3222591,7.45736434 36.3222591,6.47840532 C36.3222591,5.17120709 36.5367663,4.0324474 36.9657807,3.06212625 C37.3947951,2.09180509 38.0555925,1.33887043 38.9481728,0.803322259 C39.840753,0.267774086 40.9751938,0 42.351495,0 C43.7220377,0 44.8492802,0.267774086 45.7332226,0.803322259 C46.617165,1.33887043 47.2736434,2.09324474 47.7026578,3.06644518 C48.1316722,4.03964563 48.3461794,5.18272425 48.3461794,6.49568106 Z M39.1295681,6.49568106 C39.1295681,7.37674419 39.2404208,8.13543743 39.4621262,8.7717608 C39.6838317,9.40808416 40.0307863,9.89756368 40.50299,10.2401993 C40.9751938,10.582835 41.5856035,10.7541528 42.3342193,10.7541528 C43.0943522,10.7541528 43.7105205,10.582835 44.1827243,10.2401993 C44.654928,9.89756368 44.9990033,9.40808416 45.2149502,8.7717608 C45.430897,8.13543743 45.5388704,7.37674419 45.5388704,6.49568106 C45.5388704,5.17120709 45.2912514,4.12890365 44.7960133,3.36877076 C44.3007752,2.60863787 43.4859358,2.22857143 42.351495,2.22857143 C41.5971207,2.22857143 40.982392,2.39988926 40.507309,2.74252492 C40.0322259,3.08516058 39.6838317,3.57464009 39.4621262,4.21096346 C39.2404208,4.84728682 39.1295681,5.60885936 39.1295681,6.49568106 Z" id="形状"></path>
                        </g>
                    </g>
                </g>
            </g>
        </g>
    </g>
</svg>