<?xml version="1.0" encoding="UTF-8"?>
<svg width="28px" height="28px" viewBox="0 0 28 28" version="1.1" xmlns="http://www.w3.org/2000/svg" xmlns:xlink="http://www.w3.org/1999/xlink">
    <title>编组 10</title>
    <g id="移动端" stroke="none" stroke-width="1" fill="none" fill-rule="evenodd">
        <g id="Demo" transform="translate(-42.000000, -730.000000)">
            <g id="编组-4" transform="translate(30.000000, 718.000000)">
                <g id="编组-10" transform="translate(12.000000, 12.000000)">
                    <path d="M13.5092038,1.27277993e-16 L14.4907962,6.81750486e-16 C17.5909798,-7.18691012e-16 19.9055187,0.556953667 21.8610742,1.60279622 C23.8166298,2.64863878 25.3513612,4.18337022 26.3972038,6.13892578 C27.4430463,8.09448133 28,10.4090202 28,13.5092038 L28,14.4907962 C28,17.5909798 27.4430463,19.9055187 26.3972038,21.8610742 C25.3513612,23.8166298 23.8166298,25.3513612 21.8610742,26.3972038 C19.9055187,27.4430463 17.5909798,28 14.4907962,28 L13.5092038,28 C10.4090202,28 8.09448133,27.4430463 6.13892578,26.3972038 C4.18337022,25.3513612 2.64863878,23.8166298 1.60279622,21.8610742 C0.556953667,19.9055187 -2.31593942e-16,17.5909798 2.19690075e-16,14.4907962 L5.89338404e-16,13.5092038 C-6.21271598e-16,10.4090202 0.556953667,8.09448133 1.60279622,6.13892578 C2.64863878,4.18337022 4.18337022,2.64863878 6.13892578,1.60279622 C8.09448133,0.556953667 10.4090202,-1.34174528e-16 13.5092038,1.27277993e-16 Z" id="矩形" fill="#F0B90B"></path>
                    <g id="bnb-bnb-logo" transform="translate(5.600000, 4.200000)" fill="#FFFFFF" fill-rule="nonzero">
                        <path d="M2.09439103,9.8 L2.10448718,13.5019231 L5.25,15.3528846 L5.25,17.5201923 L0.263621795,14.5956731 L0.263621795,8.71746795 L2.09439103,9.8 L2.09439103,9.8 Z M2.09439103,6.09807692 L2.09439103,8.25528846 L0.2625,7.17163462 L0.2625,5.01442308 L2.09439103,3.93076923 L3.93525641,5.01442308 L2.09439103,6.09807692 L2.09439103,6.09807692 Z M6.56362179,5.01442308 L8.39551282,3.93076923 L10.2363782,5.01442308 L8.39551282,6.09807692 L6.56362179,5.01442308 L6.56362179,5.01442308 Z" id="形状"></path>
                        <path d="M3.41810897,12.7346154 L3.41810897,10.5673077 L5.25,11.6509615 L5.25,13.8081731 L3.41810897,12.7346154 L3.41810897,12.7346154 Z M6.56362179,16.1291667 L8.39551282,17.2128205 L10.2363782,16.1291667 L10.2363782,18.2863782 L8.39551282,19.3700321 L6.56362179,18.2863782 L6.56362179,16.1291667 L6.56362179,16.1291667 Z M12.8636218,5.01442308 L14.6955128,3.93076923 L16.5363782,5.01442308 L16.5363782,7.17163462 L14.6955128,8.25528846 L14.6955128,6.09807692 L12.8636218,5.01442308 L12.8636218,5.01442308 L12.8636218,5.01442308 Z M14.6955128,13.5019231 L14.705609,9.8 L16.5375,8.71634615 L16.5375,14.5945513 L11.5511218,17.5190705 L11.5511218,15.3517628 L14.6955128,13.5019231 L14.6955128,13.5019231 L14.6955128,13.5019231 Z" id="形状"></path>
                        <polygon id="路径" points="13.381891 12.7346154 11.55 13.8081731 11.55 11.6509615 13.381891 10.5673077"></polygon>
                        <path d="M13.381891,6.86538462 L13.3919872,9.03269231 L10.2375,10.8836538 L10.2375,14.5945513 L8.40560897,15.668109 L6.57371795,14.5945513 L6.57371795,10.8836538 L3.41923077,9.03269231 L3.41923077,6.86538462 L5.25897436,5.78173077 L8.39439103,7.64166667 L11.5488782,5.78173077 L13.3897436,6.86538462 L13.381891,6.86538462 L13.381891,6.86538462 Z M3.41810897,3.16458333 L8.39551282,0.229967949 L13.381891,3.16458333 L11.55,4.24823718 L8.39551282,2.38830128 L5.25,4.24823718 L3.41810897,3.16458333 L3.41810897,3.16458333 Z" id="形状"></path>
                    </g>
                </g>
            </g>
        </g>
    </g>
</svg>