<?xml version="1.0" encoding="UTF-8"?>
<svg width="16px" height="16px" viewBox="0 0 16 16" version="1.1" xmlns="http://www.w3.org/2000/svg" xmlns:xlink="http://www.w3.org/1999/xlink">
    <title>编组 10备份</title>
    <g id="移动端" stroke="none" stroke-width="1" fill="none" fill-rule="evenodd">
        <g id="钱包首页" transform="translate(-56.000000, -404.000000)">
            <g id="编组-7" transform="translate(28.000000, 380.000000)">
                <g id="编组-10备份" transform="translate(28.000000, 24.000000)">
                    <path d="M7.81595144,0.5 C9.80518639,0.5 11.1008568,0.797048688 12.1831605,1.37587106 C13.2354782,1.93865672 14.0613433,2.76452179 14.6241289,3.81683947 C15.2002349,4.89406388 15.5,6.18257712 15.5,7.81595144 C15.5,9.80518639 15.2029513,11.1008568 14.6241289,12.1831605 C14.0613433,13.2354782 13.2354782,14.0613433 12.1831605,14.6241289 C11.1059361,15.2002349 9.81742288,15.5 8.18404856,15.5 C6.19481361,15.5 4.89914321,15.2029513 3.81683947,14.6241289 C2.76452179,14.0613433 1.93865672,13.2354782 1.37587106,12.1831605 C0.799765141,11.1059361 0.5,9.81742288 0.5,8.18404856 C0.5,6.19481361 0.797048688,4.89914321 1.37587106,3.81683947 C1.93865672,2.76452179 2.76452179,1.93865672 3.81683947,1.37587106 C4.89406388,0.799765141 6.18257712,0.5 7.81595144,0.5 Z" id="矩形" stroke="#FFFFFF" fill="#F0B90B"></path>
                    <g id="bnb-bnb-logo" transform="translate(3.200000, 2.400000)" fill="#FFFFFF" fill-rule="nonzero">
                        <path d="M1.19679487,5.6 L1.2025641,7.71538462 L3,8.77307692 L3,10.0115385 L0.150641026,8.34038462 L0.150641026,4.98141026 L1.19679487,5.6 L1.19679487,5.6 Z M1.19679487,3.48461538 L1.19679487,4.71730769 L0.15,4.09807692 L0.15,2.86538462 L1.19679487,2.24615385 L2.24871795,2.86538462 L1.19679487,3.48461538 L1.19679487,3.48461538 Z M3.75064103,2.86538462 L4.7974359,2.24615385 L5.84935897,2.86538462 L4.7974359,3.48461538 L3.75064103,2.86538462 L3.75064103,2.86538462 Z" id="形状"></path>
                        <path d="M1.95320513,7.27692308 L1.95320513,6.03846154 L3,6.65769231 L3,7.89038462 L1.95320513,7.27692308 L1.95320513,7.27692308 Z M3.75064103,9.21666667 L4.7974359,9.83589744 L5.84935897,9.21666667 L5.84935897,10.449359 L4.7974359,11.0685897 L3.75064103,10.449359 L3.75064103,9.21666667 L3.75064103,9.21666667 Z M7.35064103,2.86538462 L8.3974359,2.24615385 L9.44935897,2.86538462 L9.44935897,4.09807692 L8.3974359,4.71730769 L8.3974359,3.48461538 L7.35064103,2.86538462 L7.35064103,2.86538462 L7.35064103,2.86538462 Z M8.3974359,7.71538462 L8.40320513,5.6 L9.45,4.98076923 L9.45,8.33974359 L6.60064103,10.0108974 L6.60064103,8.7724359 L8.3974359,7.71538462 L8.3974359,7.71538462 L8.3974359,7.71538462 Z" id="形状"></path>
                        <polygon id="路径" points="7.64679487 7.27692308 6.6 7.89038462 6.6 6.65769231 7.64679487 6.03846154"></polygon>
                        <path d="M7.64679487,3.92307692 L7.6525641,5.16153846 L5.85,6.21923077 L5.85,8.33974359 L4.80320513,8.95320513 L3.75641026,8.33974359 L3.75641026,6.21923077 L1.95384615,5.16153846 L1.95384615,3.92307692 L3.00512821,3.30384615 L4.79679487,4.36666667 L6.59935897,3.30384615 L7.65128205,3.92307692 L7.64679487,3.92307692 L7.64679487,3.92307692 Z M1.95320513,1.80833333 L4.7974359,0.131410256 L7.64679487,1.80833333 L6.6,2.4275641 L4.7974359,1.36474359 L3,2.4275641 L1.95320513,1.80833333 L1.95320513,1.80833333 Z" id="形状"></path>
                    </g>
                </g>
            </g>
        </g>
    </g>
</svg>