<?xml version="1.0" encoding="UTF-8"?>
<svg width="40px" height="40px" viewBox="0 0 40 40" version="1.1" xmlns="http://www.w3.org/2000/svg" xmlns:xlink="http://www.w3.org/1999/xlink">
    <title>编组 10</title>
    <g id="移动端" stroke="none" stroke-width="1" fill="none" fill-rule="evenodd">
        <g id="钱包首页-polygon" transform="translate(-28.000000, -380.000000)">
            <g id="编组-10" transform="translate(28.000000, 380.000000)">
                <path d="M19.2024562,-4.04584645e-16 L20.7975438,4.04584645e-16 C25.2667715,-4.16399168e-16 28.5328181,0.789017695 31.3031885,2.27062798 C34.0735589,3.75223827 36.2477617,5.92644115 37.729372,8.69681152 C39.2109823,11.4671819 40,14.7332285 40,19.2024562 L40,20.7975438 C40,25.2667715 39.2109823,28.5328181 37.729372,31.3031885 C36.2477617,34.0735589 34.0735589,36.2477617 31.3031885,37.729372 C28.5328181,39.2109823 25.2667715,40 20.7975438,40 L19.2024562,40 C14.7332285,40 11.4671819,39.2109823 8.69681152,37.729372 C5.92644115,36.2477617 3.75223827,34.0735589 2.27062798,31.3031885 C0.789017695,28.5328181 2.77599445e-16,25.2667715 -2.69723097e-16,20.7975438 L2.69723097e-16,19.2024562 C-2.77599445e-16,14.7332285 0.789017695,11.4671819 2.27062798,8.69681152 C3.75223827,5.92644115 5.92644115,3.75223827 8.69681152,2.27062798 C11.4671819,0.789017695 14.7332285,4.16399168e-16 19.2024562,-4.04584645e-16 Z" id="矩形" fill="#8247E5"></path>
                <path d="M25.9578945,16.1488438 C25.5261758,15.8976875 24.9649062,15.8976875 24.4900156,16.1488438 L21.1224687,18.0744219 L18.8342891,19.3302383 L15.4667773,21.2558164 C15.0350234,21.5069727 14.4737891,21.5069727 13.9988633,21.2558164 L11.3221016,19.7488438 C10.8903828,19.4976875 10.5881797,19.0372109 10.5881797,18.5348633 L10.5881797,15.5627891 C10.5881797,15.0604766 10.8472109,14.6 11.3221016,14.3488437 L13.9556914,12.883707 C14.3874102,12.6325508 14.9486797,12.6325508 15.4236055,12.883707 L18.0571602,14.3488437 C18.4889141,14.6 18.7911172,15.0604766 18.7911172,15.5627891 L18.7911172,17.4883672 L21.0792969,16.1906797 L21.0792969,14.2651016 C21.0792969,13.7627891 20.8202656,13.3023125 20.345375,13.0511563 L15.4667773,10.2883672 C15.0350234,10.0372109 14.4737891,10.0372109 13.9988633,10.2883672 L9.03392187,13.0511563 C8.55899609,13.3023125 8.29996484,13.7627891 8.29996484,14.2651016 L8.29996484,19.8325508 C8.29996484,20.3348633 8.55899609,20.7953398 9.03392187,21.0464961 L13.9988633,23.8092852 C14.4306172,24.0604766 14.9918516,24.0604766 15.4667773,23.8092852 L18.8342891,21.9255781 L21.1224687,20.6278906 L24.4900156,18.7441836 C24.9217344,18.4930273 25.4830039,18.4930273 25.9578945,18.7441836 L28.5914844,20.2092852 C29.0232031,20.4604766 29.3254414,20.920918 29.3254414,21.4232656 L29.3254414,24.3953398 C29.3254414,24.8976875 29.066375,25.3581289 28.5914844,25.6092852 L25.9578945,27.116293 C25.5261758,27.3674492 24.9649062,27.3674492 24.4900156,27.116293 L21.8564258,25.6511563 C21.424707,25.4 21.1224687,24.9395234 21.1224687,24.4372109 L21.1224687,22.5116328 L18.8342891,23.8092852 L18.8342891,25.7348633 C18.8342891,26.2372109 19.0933203,26.6976875 19.5682461,26.9488438 L24.5331875,29.7116328 C24.9649062,29.9627891 25.5261758,29.9627891 26.0010664,29.7116328 L30.9660078,26.9488438 C31.3977617,26.6976875 31.6999648,26.2372109 31.6999648,25.7348633 L31.6999648,20.1674492 C31.6999648,19.6651016 31.4409336,19.2046602 30.9660078,18.9534688 L25.9578945,16.1488438 Z" id="路径" fill="#FFFFFF" fill-rule="nonzero"></path>
            </g>
        </g>
    </g>
</svg>