<?xml version="1.0" encoding="UTF-8"?>
<svg width="16px" height="16px" viewBox="0 0 16 16" version="1.1" xmlns="http://www.w3.org/2000/svg" xmlns:xlink="http://www.w3.org/1999/xlink">
    <title>编组 10备份</title>
    <g id="移动端" stroke="none" stroke-width="1" fill="none" fill-rule="evenodd">
        <g id="钱包首页-polygon" transform="translate(-56.000000, -404.000000)">
            <g id="编组-7" transform="translate(28.000000, 380.000000)">
                <g id="编组-10备份" transform="translate(28.000000, 24.000000)">
                    <path d="M7.81595144,0.5 C9.80518639,0.5 11.1008568,0.797048688 12.1831605,1.37587106 C13.2354782,1.93865672 14.0613433,2.76452179 14.6241289,3.81683947 C15.2002349,4.89406388 15.5,6.18257712 15.5,7.81595144 C15.5,9.80518639 15.2029513,11.1008568 14.6241289,12.1831605 C14.0613433,13.2354782 13.2354782,14.0613433 12.1831605,14.6241289 C11.1059361,15.2002349 9.81742288,15.5 8.18404856,15.5 C6.19481361,15.5 4.89914321,15.2029513 3.81683947,14.6241289 C2.76452179,14.0613433 1.93865672,13.2354782 1.37587106,12.1831605 C0.799765141,11.1059361 0.5,9.81742288 0.5,8.18404856 C0.5,6.19481361 0.797048688,4.89914321 1.37587106,3.81683947 C1.93865672,2.76452179 2.76452179,1.93865672 3.81683947,1.37587106 C4.89406388,0.799765141 6.18257712,0.5 7.81595144,0.5 Z" id="矩形" stroke="#FFFFFF" fill="#8247E5"></path>
                    <path d="M10.3831578,6.4595375 C10.2104703,6.359075 9.9859625,6.359075 9.79600625,6.4595375 L8.4489875,7.22976875 L7.53371562,7.73209531 L6.18671094,8.50232656 C6.01400937,8.60278906 5.78951562,8.60278906 5.59954531,8.50232656 L4.52884062,7.8995375 C4.35615312,7.799075 4.23527187,7.61488438 4.23527187,7.41394531 L4.23527187,6.22511563 C4.23527187,6.02419063 4.33888437,5.84 4.52884062,5.7395375 L5.58227656,5.15348281 C5.75496406,5.05302031 5.97947187,5.05302031 6.16944219,5.15348281 L7.22286406,5.7395375 C7.39556562,5.84 7.51644687,6.02419063 7.51644687,6.22511563 L7.51644687,6.99534688 L8.43171875,6.47627188 L8.43171875,5.70604063 C8.43171875,5.50511563 8.32810625,5.320925 8.13815,5.2204625 L6.18671094,4.11534688 C6.01400937,4.01488438 5.78951562,4.01488438 5.59954531,4.11534688 L3.61356875,5.2204625 C3.42359844,5.320925 3.31998594,5.50511563 3.31998594,5.70604063 L3.31998594,7.93302031 C3.31998594,8.13394531 3.42359844,8.31813594 3.61356875,8.41859844 L5.59954531,9.52371406 C5.77224687,9.62419063 5.99674062,9.62419063 6.18671094,9.52371406 L7.53371562,8.77023125 L8.4489875,8.25115625 L9.79600625,7.49767344 C9.96869375,7.39721094 10.1932016,7.39721094 10.3831578,7.49767344 L11.4365937,8.08371406 C11.6092812,8.18419063 11.7301766,8.36836719 11.7301766,8.56930625 L11.7301766,9.75813594 C11.7301766,9.959075 11.62655,10.1432516 11.4365937,10.2437141 L10.3831578,10.8465172 C10.2104703,10.9469797 9.9859625,10.9469797 9.79600625,10.8465172 L8.74257031,10.2604625 C8.56988281,10.16 8.4489875,9.97580938 8.4489875,9.77488438 L8.4489875,9.00465313 L7.53371562,9.52371406 L7.53371562,10.2939453 C7.53371562,10.4948844 7.63732812,10.679075 7.82729844,10.7795375 L9.813275,11.8846531 C9.9859625,11.9851156 10.2104703,11.9851156 10.4004266,11.8846531 L12.3864031,10.7795375 C12.5591047,10.679075 12.6799859,10.4948844 12.6799859,10.2939453 L12.6799859,8.06697969 C12.6799859,7.86604063 12.5763734,7.68186406 12.3864031,7.5813875 L10.3831578,6.4595375 Z" id="路径" fill="#FFFFFF" fill-rule="nonzero"></path>
                </g>
            </g>
        </g>
    </g>
</svg>