<?xml version="1.0" encoding="UTF-8"?>
<svg width="40px" height="40px" viewBox="0 0 40 40" version="1.1" xmlns="http://www.w3.org/2000/svg" xmlns:xlink="http://www.w3.org/1999/xlink">
    <title>编组 11</title>
    <g id="移动端" stroke="none" stroke-width="1" fill="none" fill-rule="evenodd">
        <g id="钱包首页" transform="translate(-28.000000, -620.000000)">
            <g id="编组-11" transform="translate(28.000000, 620.000000)">
                <path d="M19.2024562,-4.04584645e-16 L20.7975438,4.04584645e-16 C25.2667715,-4.16399168e-16 28.5328181,0.789017695 31.3031885,2.27062798 C34.0735589,3.75223827 36.2477617,5.92644115 37.729372,8.69681152 C39.2109823,11.4671819 40,14.7332285 40,19.2024562 L40,20.7975438 C40,25.2667715 39.2109823,28.5328181 37.729372,31.3031885 C36.2477617,34.0735589 34.0735589,36.2477617 31.3031885,37.729372 C28.5328181,39.2109823 25.2667715,40 20.7975438,40 L19.2024562,40 C14.7332285,40 11.4671819,39.2109823 8.69681152,37.729372 C5.92644115,36.2477617 3.75223827,34.0735589 2.27062798,31.3031885 C0.789017695,28.5328181 2.77599445e-16,25.2667715 -2.69723097e-16,20.7975438 L2.69723097e-16,19.2024562 C-2.77599445e-16,14.7332285 0.789017695,11.4671819 2.27062798,8.69681152 C3.75223827,5.92644115 5.92644115,3.75223827 8.69681152,2.27062798 C11.4671819,0.789017695 14.7332285,4.16399168e-16 19.2024562,-4.04584645e-16 Z" id="矩形" fill="#2775CA"></path>
                <g id="usd-coin-usdc-logo" transform="translate(4.000000, 5.000000)"></g>
                <path d="M25.5,23.1666 C25.5,20.25 23.75,19.25 20.25,18.8334 C17.75,18.5 17.25,17.8334 17.25,16.6666 C17.25,15.4998 18.0834,14.75 19.75,14.75 C21.25,14.75 22.0834,15.25 22.5,16.5 C22.5834,16.75 22.8334,16.9166 23.0834,16.9166 L24.4166,16.9166 C24.75,16.9166 25,16.6666 25,16.3334 L25,16.25 C24.6666,14.4166 23.1666,13 21.25,12.8334 L21.25,10.8334 C21.25,10.5 21,10.25 20.5834,10.1666 L19.3334,10.1666 C19,10.1666 18.75,10.4166 18.6666,10.8334 L18.6666,12.75 C16.1666,13.0834 14.5834,14.75 14.5834,16.8334 C14.5834,19.5834 16.25,20.6666 19.75,21.0834 C22.0834,21.5 22.8334,22 22.8334,23.3334 C22.8334,24.6668 21.6666,25.5834 20.0834,25.5834 C17.9166,25.5834 17.1666,24.6666 16.9166,23.4166 C16.8334,23.0834 16.5834,22.9166 16.3334,22.9166 L14.9166,22.9166 C14.5834,22.9166 14.3334,23.1666 14.3334,23.5 L14.3334,23.5834 C14.6666,25.6666 16,27.1666 18.75,27.5834 L18.75,29.5834 C18.75,29.9166 19,30.1666 19.4166,30.25 L20.6666,30.25 C21,30.25 21.25,30 21.3334,29.5834 L21.3334,27.5834 C23.8334,27.1666 25.5,25.4166 25.5,23.1666 L25.5,23.1666 Z" id="路径" fill="#FFFFFF" fill-rule="nonzero"></path>
                <path d="M15.75,31.9166 C9.25,29.5834 5.9166,22.3334 8.3334,15.9166 C9.5834,12.4166 12.3334,9.75 15.75,8.5 C16.0834,8.3334 16.25,8.0834 16.25,7.6666 L16.25,6.5 C16.25,6.1666 16.0834,5.9166 15.75,5.8334 C15.6666,5.8334 15.5,5.8334 15.4166,5.9166 C7.5,8.4166 3.1666,16.8334 5.6666,24.75 C7.1666,29.4166 10.75,33 15.4166,34.5 C15.75,34.6666 16.0834,34.5 16.1666,34.1666 C16.25,34.0834 16.25,34 16.25,33.8334 L16.25,32.6666 C16.25,32.4166 16,32.0834 15.75,31.9166 Z M24.5834,5.9166 C24.25,5.75 23.9166,5.9166 23.8334,6.25 C23.75,6.3334 23.75,6.4166 23.75,6.5834 L23.75,7.75 C23.75,8.0834 24,8.4166 24.25,8.5834 C30.75,10.9166 34.0834,18.1666 31.6666,24.5834 C30.4166,28.0834 27.6666,30.75 24.25,32 C23.9166,32.1666 23.75,32.4166 23.75,32.8334 L23.75,34 C23.75,34.3334 23.9166,34.5834 24.25,34.6666 C24.3334,34.6666 24.5,34.6666 24.5834,34.5834 C32.5,32.0834 36.8334,23.6666 34.3334,15.75 C32.8334,11 29.1666,7.4166 24.5834,5.9166 Z" id="形状" fill="#FFFFFF" fill-rule="nonzero"></path>
            </g>
        </g>
    </g>
</svg>