<?xml version="1.0" encoding="UTF-8"?>
<svg width="40px" height="40px" viewBox="0 0 40 40" version="1.1" xmlns="http://www.w3.org/2000/svg" xmlns:xlink="http://www.w3.org/1999/xlink">
    <title>编组 8</title>
    <g id="移动端" stroke="none" stroke-width="1" fill="none" fill-rule="evenodd">
        <g id="钱包首页" transform="translate(-28.000000, -540.000000)">
            <g id="编组-8" transform="translate(28.000000, 540.000000)">
                <path d="M19.2024562,-4.04584645e-16 L20.7975438,4.04584645e-16 C25.2667715,-4.16399168e-16 28.5328181,0.789017695 31.3031885,2.27062798 C34.0735589,3.75223827 36.2477617,5.92644115 37.729372,8.69681152 C39.2109823,11.4671819 40,14.7332285 40,19.2024562 L40,20.7975438 C40,25.2667715 39.2109823,28.5328181 37.729372,31.3031885 C36.2477617,34.0735589 34.0735589,36.2477617 31.3031885,37.729372 C28.5328181,39.2109823 25.2667715,40 20.7975438,40 L19.2024562,40 C14.7332285,40 11.4671819,39.2109823 8.69681152,37.729372 C5.92644115,36.2477617 3.75223827,34.0735589 2.27062798,31.3031885 C0.789017695,28.5328181 2.77599445e-16,25.2667715 -2.69723097e-16,20.7975438 L2.69723097e-16,19.2024562 C-2.77599445e-16,14.7332285 0.789017695,11.4671819 2.27062798,8.69681152 C3.75223827,5.92644115 5.92644115,3.75223827 8.69681152,2.27062798 C11.4671819,0.789017695 14.7332285,4.16399168e-16 19.2024562,-4.04584645e-16 Z" id="矩形" fill="#50AF95"></path>
                <path d="M22.4929412,22.0352941 L22.4929412,22.0352941 C22.3517647,22.0458824 21.6223529,22.0894118 19.9952941,22.0894118 C18.7011765,22.0894118 17.7823529,22.0505882 17.46,22.0352941 L17.46,22.0352941 C12.4588235,21.8152941 8.72588235,20.9447059 8.72588235,19.9023529 C8.72588235,18.86 12.4588235,17.9905882 17.46,17.7670588 L17.46,21.1682353 C17.7870588,21.1917647 18.7235294,21.2470588 20.0176471,21.2470588 C21.5705882,21.2470588 22.3482353,21.1823529 22.4882353,21.1694118 L22.4882353,17.7694118 C27.4788235,17.9917647 31.2035294,18.8623529 31.2035294,19.9023529 C31.2035294,20.9423529 27.48,21.8129412 22.4882353,22.0341176 L22.4882353,22.0341176 L22.4929412,22.0352941 Z M22.4929412,17.4176471 L22.4929412,14.3741176 L29.4576471,14.3741176 L29.4576471,9.73294118 L10.4952941,9.73294118 L10.4952941,14.3741176 L17.4588235,14.3741176 L17.4588235,17.4164706 C11.7988235,17.6764706 7.54235294,18.7976471 7.54235294,20.1411765 C7.54235294,21.4847059 11.7988235,22.6047059 17.4588235,22.8658824 L17.4588235,32.6188235 L22.4917647,32.6188235 L22.4917647,22.8623529 C28.1388235,22.6023529 32.3882353,21.4823529 32.3882353,20.14 C32.3882353,18.7976471 28.1423529,17.6776471 22.4917647,17.4164706 L22.4917647,17.4164706 L22.4929412,17.4176471 Z" id="形状" fill="#FFFFFF"></path>
            </g>
        </g>
    </g>
</svg>