<?xml version="1.0" encoding="UTF-8"?>
<svg width="28px" height="28px" viewBox="0 0 28 28" version="1.1" xmlns="http://www.w3.org/2000/svg" xmlns:xlink="http://www.w3.org/1999/xlink">
    <title>编组 9</title>
    <g id="移动端" stroke="none" stroke-width="1" fill="none" fill-rule="evenodd">
        <g id="Demo" transform="translate(-42.000000, -903.000000)">
            <g id="编组-3" transform="translate(30.000000, 824.000000)">
                <g id="编组-9" transform="translate(12.000000, 79.000000)">
                    <path d="M13.5092038,1.27277993e-16 L14.4907962,6.81750486e-16 C17.5909798,-7.18691012e-16 19.9055187,0.556953667 21.8610742,1.60279622 C23.8166298,2.64863878 25.3513612,4.18337022 26.3972038,6.13892578 C27.4430463,8.09448133 28,10.4090202 28,13.5092038 L28,14.4907962 C28,17.5909798 27.4430463,19.9055187 26.3972038,21.8610742 C25.3513612,23.8166298 23.8166298,25.3513612 21.8610742,26.3972038 C19.9055187,27.4430463 17.5909798,28 14.4907962,28 L13.5092038,28 C10.4090202,28 8.09448133,27.4430463 6.13892578,26.3972038 C4.18337022,25.3513612 2.64863878,23.8166298 1.60279622,21.8610742 C0.556953667,19.9055187 -2.31593942e-16,17.5909798 2.19690075e-16,14.4907962 L5.89338404e-16,13.5092038 C-6.21271598e-16,10.4090202 0.556953667,8.09448133 1.60279622,6.13892578 C2.64863878,4.18337022 4.18337022,2.64863878 6.13892578,1.60279622 C8.09448133,0.556953667 10.4090202,-1.34174528e-16 13.5092038,1.27277993e-16 Z" id="矩形" fill="#EBEFF0"></path>
                    <g id="ethereum-eth-logo" transform="translate(7.700000, 4.200000)" fill-rule="nonzero">
                        <polygon id="路径" fill="#343434" points="6.01050697 0 5.87912725 0.446261784 5.87912725 13.3945988 6.01050697 13.5256719 12.0208606 9.97290076"></polygon>
                        <polygon id="路径" fill="#8C8C8C" points="6.01050697 0 0 9.97290076 6.01050697 13.5256719 6.01050697 7.24090789"></polygon>
                        <polygon id="路径" fill="#3C3C3B" points="6.01050697 14.6636318 5.93646216 14.7539266 5.93646216 19.3663204 6.01050697 19.5824761 12.0245399 11.1127003"></polygon>
                        <polygon id="路径" fill="#8C8C8C" points="6.01050697 19.5824761 6.01050697 14.6636318 0 11.1127003"></polygon>
                        <polygon id="路径" fill="#141414" points="6.01050697 13.5256719 12.0208606 9.97290076 6.01050697 7.24090789"></polygon>
                        <polygon id="路径" fill="#393939" points="0 9.97290076 6.01050697 13.5256719 6.01050697 7.24090789"></polygon>
                    </g>
                </g>
            </g>
        </g>
    </g>
</svg>