<?xml version="1.0" encoding="UTF-8"?>
<svg width="390px" height="844px" viewBox="0 0 390 844" version="1.1" xmlns="http://www.w3.org/2000/svg" xmlns:xlink="http://www.w3.org/1999/xlink">
    <title>编组 2</title>
    <defs>
        <rect id="path-1" x="0" y="0" width="390" height="844"></rect>
        <linearGradient x1="60.3780226%" y1="62.2826453%" x2="23.9204911%" y2="95.7987597%" id="linearGradient-3">
            <stop stop-color="#FFFFFF" offset="0%"></stop>
            <stop stop-color="#FFFFFF" stop-opacity="0" offset="32.6615041%"></stop>
            <stop stop-color="#FFFFFF" stop-opacity="0.357223861" offset="58.7072266%"></stop>
            <stop stop-color="#FFFFFF" offset="100%"></stop>
        </linearGradient>
        <path d="M335.584122,148.539674 C373.322549,100.002671 436.282485,78.5137752 495.821201,93.8490547 L495.821201,93.8490547 L497.802932,94.36379 L496.438884,95.9079957 C492.27788,100.68099 487.87994,105.242135 483.261662,109.574216 L483.261662,109.574216 L482.7984,110.011741 L482.154981,110.011741 C432.32541,100.74064 381.481535,120.004345 350.30555,159.966796 L350.30555,159.966796 L349.50771,161.022003 L348.761344,162 L348.143662,162 C341.760945,161.897053 335.352491,161.485265 329.149932,160.790372 L329.149932,160.790372 L327.116728,160.558741 L328.249145,158.834378 C330.43677,155.282705 333.010446,151.808242 335.584122,148.539674 Z M459.995629,123.986803 L462.003096,124.01254 L465.837874,124.01254 L462.723726,126.225901 C436.82015,144.669393 406.761282,156.427715 375.218735,160.455794 L375.218735,160.455794 L371.435431,160.919056 L374.189265,158.34538 C397.23512,136.170005 428.013779,123.845617 459.995629,123.986803 L459.995629,123.986803 Z M415.084979,58.486744 C417.643906,57.9398901 420.314754,58.5005817 422.437743,60.0303105 C424.560733,61.5600393 425.937883,63.9161511 426.228997,66.5166137 L426.228997,66.5166137 L426.228997,66.2592461 C426.799296,71.0084445 423.65059,75.407701 418.971231,76.3995302 C381.054186,84.5801514 347.240663,105.879936 323.487844,136.546343 C318.580476,142.882254 314.125568,149.556017 310.156202,156.51807 L310.156202,156.51807 L309.69294,157.341646 L308.792153,157.135752 C303.387433,155.926124 297.879766,154.484866 292.732414,152.811976 L292.732414,152.811976 L291.213945,152.322978 L291.934574,150.984666 C296.835712,141.956321 302.474066,133.348147 308.792153,125.247904 C332.865829,94.1508204 366.322206,71.6419976 404.198329,61.0604202 C407.835792,60.1510546 411.464675,59.2931625 415.084979,58.486744 Z M396.734668,26.4959491 C441.324295,14.8590703 488.461348,17.7256955 531.312196,34.6802393 L531.312196,34.6802393 L532.444613,35.143501 L532.032825,36.3016553 C530.154042,41.3460606 528.01789,46.3904659 525.727319,51.2547139 L525.727319,51.2547139 L525.23832,52.3356579 L524.131639,51.898133 C443.034549,19.7702442 350.464735,44.9193898 296.773085,113.666361 C288.965872,123.695534 282.140024,134.451416 276.38957,145.78584 L276.38957,145.78584 L275.849098,146.841047 L274.768154,146.352049 C269.826696,144.241634 264.910974,141.899589 260.149673,139.325913 L260.149673,139.325913 L259.068729,138.733967 L259.609201,137.653023 C265.937357,125.142445 273.461854,113.273908 282.077394,102.213502 C310.872133,64.9899298 351.194253,38.361944 396.734668,26.4959491 Z M250.621202,91.100161 C253.401599,90.8211247 256.160921,91.8013175 258.142206,93.7718444 L258.142206,93.7718444 L258.142206,93.823318 C261.264562,96.9750624 261.748015,101.884804 259.30036,105.585018 C254.31979,113.169865 249.790838,121.04182 245.737087,129.159892 L245.737087,129.159892 L245.119404,130.44673 L243.909777,129.64889 C239.380107,126.611953 234.927647,123.343384 230.655344,119.946131 L230.655344,119.946131 L229.857505,119.302712 L230.320766,118.376189 C234.380851,110.414967 238.87437,102.682334 243.781093,95.2131031 C245.331292,92.8881619 247.840805,91.3791972 250.621202,91.100161 Z M285.500384,1.04229163 L286.143803,1.27392248 C293.000591,3.85056899 300.197145,5.41126749 307.505315,5.90653961 L307.505315,5.90653961 L311.314356,6.16390723 L308.097261,8.22284817 C283.320388,24.0806482 261.45207,44.0772746 243.446515,67.3401901 C233.861659,79.6656999 225.40318,92.8271622 218.173015,106.665962 L218.173015,106.665962 L217.400912,108.158694 L216.191284,106.974803 C212.202086,103.037079 208.212888,98.8162498 204.481058,94.466737 L204.481058,94.466737 L203.914849,93.7975812 L204.326637,93.0512151 C224.104112,56.9273779 251.642241,25.6360475 284.959912,1.42834306 L284.959912,1.42834306 L285.500384,1.04229163 Z M263.67561,68.858659 C332.221647,-10.026333 443.189493,-36.8775568 540.217115,1.94307829 L540.217115,1.94307829 L541.169376,2.40634 L540.989218,3.41007372 C540.731851,4.85133238 540.474483,6.26685428 540.191379,7.68237618 C539.393539,11.5686272 538.467016,15.5578253 537.411808,19.4698131 L537.411808,19.4698131 L537.025757,20.8595982 L535.713182,20.2933895 C508.348113,8.88601941 478.988093,3.03326212 449.340609,3.07549581 C439.807615,3.07803644 430.283933,3.67111775 420.824277,4.85133238 C365.305723,11.6352964 314.302154,38.8482099 277.753618,81.1865679 C276.067365,83.1522451 273.638999,84.3273242 271.051177,84.4298606 C268.463354,84.5323969 265.949629,83.5531365 264.113135,81.7270399 L264.113135,81.7270399 L263.908904,81.5190714 C260.569403,78.012529 260.448089,72.5115402 263.67561,68.858659 Z M447.770667,54.3173886 C471.243718,53.4421519 494.666826,57.0766216 516.770925,65.0238815 L516.770925,65.0238815 L518.212184,65.5386167 L517.440081,66.8511916 C514.609037,71.6382293 511.597836,76.2965832 508.355004,80.8262532 L508.355004,80.8262532 L507.788796,81.6240929 L506.913746,81.3152517 C490.040116,75.7064725 472.372289,72.8559819 454.590909,72.8735938 L454.590909,72.8735938 L448.594243,72.8735938 C443.711671,73.0674993 439.50448,69.4661438 438.942958,64.6120933 L438.942958,64.6120933 L438.913511,64.2928651 C438.730276,61.8460454 439.522729,59.4206877 441.125587,57.5514653 C442.798135,55.6009723 445.20374,54.4301945 447.770667,54.3173886 Z M255.028058,-20.7310089 L255.800161,-19.7530119 C259.350365,-15.7172514 263.309234,-12.0602576 267.613334,-8.84062491 L267.613334,-8.84062491 L268.951646,-7.86262796 L267.639071,-6.85889425 L267.639071,-7.03905158 C237.774471,16.2103734 212.728728,45.0588735 193.903248,77.8922624 L193.903248,77.8922624 L192.899515,79.6166254 L191.767097,77.9694727 C188.318371,73.0537512 185.075539,67.8034518 182.141548,62.5274156 L182.141548,62.5274156 L181.781234,61.8839966 L182.167285,61.2405775 C188.215726,51.3839916 194.796942,41.8644262 201.881645,32.7242454 C217.108109,13.1133974 234.640978,-4.59229495 254.101534,-20.0103795 L254.101534,-20.0103795 L255.028058,-20.7310089 Z M197.250495,-11.9651363 C199.815986,-12.0430259 202.300525,-11.0620034 204.120743,-9.2524131 L204.120743,-9.2524131 L204.069269,-9.2524131 C207.582202,-5.72943737 207.717993,-0.0714754617 204.378111,3.61596781 C199.316547,9.20942404 194.460878,15.0087744 189.811103,21.0140188 C184.560804,27.7827872 179.413452,34.9890805 174.549204,42.4012679 L174.549204,42.4012679 L173.236629,44.4087353 L172.335842,42.1953738 C169.789203,35.9653195 167.56433,29.6085395 165.670021,23.15017 L165.670021,23.15017 L165.489863,22.5582245 L165.850178,22.069226 C168.93859,17.7197133 172.052738,13.4988843 175.115412,9.56115979 C180.074028,3.24707422 185.221381,-2.88685401 190.557469,-8.84062491 C192.264555,-10.757306 194.685005,-11.8872466 197.250495,-11.9651363 Z M237.218219,-95.3676181 L237.218219,-73.0281089 L236.703483,-72.6677942 C208.874393,-52.8777424 184.092987,-29.1195011 163.147818,-2.14906684 L163.147818,-2.14906684 L160.574142,1.09376515 L160.11088,-1.81448893 C158.938125,-9.48555064 158.233351,-17.2208803 158.000466,-24.9775746 L158.000466,-24.9775746 L158.000466,-25.466573 L158.412254,-25.8783612 C180.681133,-52.1260731 206.554636,-75.0881572 235.262225,-94.08078 L235.262225,-94.08078 L237.218219,-95.3676181 Z M411.996568,-48.3465543 C456.347593,-53.9030904 501.384604,-48.5947469 543.228317,-32.8787604 L543.228317,-32.8787604 L544.051893,-32.5699193 L544.051893,-30.9742401 C544.051893,-25.6209936 543.820262,-20.0875898 543.357,-14.554186 L543.357,-14.554186 L543.20258,-12.8555598 L541.632637,-13.4989788 C511.43778,-25.6486599 479.185784,-31.8701232 446.638249,-31.8235532 C422.037759,-31.8496904 397.558111,-28.3835455 373.931897,-21.5288485 L373.931897,-21.5288485 L370.25154,-20.4736412 L372.593586,-23.5105791 C377.058947,-29.340254 380.648536,-35.7911103 383.248605,-42.6587299 L383.248605,-42.6587299 L383.505973,-43.2764122 L384.149392,-43.4308328 C393.342756,-45.5389083 402.637075,-47.1795876 411.996568,-48.3465543 Z M238.942582,-53.2108023 L239.405843,-51.3577554 C240.718958,-45.9609651 242.635552,-40.729184 245.119404,-35.7612778 L245.119404,-35.7612778 L245.505456,-34.8347543 L244.707616,-34.2170721 C238.23911,-29.1383511 231.976498,-23.8022624 225.91978,-18.2088062 C222.247736,-14.8609451 216.600581,-14.9625939 213.051399,-18.4404371 L213.051399,-18.4404371 L212.83112,-18.6687175 C211.175044,-20.4444275 210.27464,-22.8007469 210.330529,-25.2365725 C210.388848,-27.7783037 211.483356,-30.1857986 213.36024,-31.9007635 C221.064111,-39.0041098 229.076823,-45.7214046 237.398376,-52.052648 L237.398376,-52.052648 L238.942582,-53.2108023 Z M524.979689,-70.9364355 C527.311869,-72.4995454 530.224581,-72.9276063 532.907875,-72.1015854 C536.382338,-71.0463782 539.805327,-69.9396974 543.20258,-68.7558064 L543.20258,-68.7558064 L544.000419,-68.4469653 L544.000419,-48.6553954 L542.301793,-49.2730777 C537.394651,-51.074651 532.444613,-52.7389616 527.451682,-54.2660095 C523.225853,-55.56288 520.487272,-59.6439037 520.888807,-64.045979 L520.888807,-64.045979 L520.922337,-64.3555087 C521.257039,-67.0280492 522.733886,-69.4312186 524.979689,-70.9364355 Z M228.725087,-132.325608 L229.41998,-131.399085 C232.831107,-126.821072 235.19457,-121.549407 236.343169,-115.957028 L236.343169,-115.957028 L236.523326,-115.184925 L235.77696,-114.721663 C207.997597,-97.5330645 182.585772,-76.7848326 160.188091,-53.0049082 L160.188091,-53.0049082 L158.000466,-50.7143364 L158.000466,-77.3518849 L158.386517,-77.6864628 C179.41453,-98.2373486 202.679987,-116.366276 227.74709,-131.733663 L227.74709,-131.733663 L228.725087,-132.325608 Z M405.459431,-82.9882357 C437.312465,-87.0517382 469.607699,-86.052827 501.148711,-80.0285081 C505.853464,-79.1091958 509.08644,-74.7614011 508.612372,-69.991171 L508.612372,-69.991171 L508.612372,-69.9139607 C508.367677,-67.3065687 507.036897,-64.9225584 504.945939,-63.3457701 C502.854981,-61.7689818 500.196943,-61.1450314 497.622775,-61.6267234 C479.929996,-65.0350654 461.953963,-66.7585586 443.935889,-66.7740757 C431.890344,-66.7579938 419.857172,-66.001623 407.904423,-64.5092407 C401.959231,-63.7628746 395.756671,-62.7848777 389.451165,-61.6009866 L389.451165,-61.6009866 L387.829749,-61.2664087 L387.829749,-62.9392982 C388.112853,-65.1526598 388.112853,-67.3145477 388.112853,-69.3734887 L388.112853,-80.2344022 L389.16806,-80.4145595 C394.701464,-81.4955035 400.183394,-82.3448166 405.459431,-82.9882357 Z M398.94803,-117.655654 C447.416636,-123.849139 496.654147,-119.315492 543.176843,-104.375485 L543.176843,-104.375485 L544.051893,-104.09238 L544.051893,-84.5067046 L542.379003,-85.0729134 C509.810901,-96.1201962 475.650011,-101.745571 441.259266,-101.724598 C427.87847,-101.70083 414.512223,-100.841264 401.238602,-99.1509221 C397.712665,-98.7133972 394.006572,-98.1729252 389.579849,-97.4522958 L389.579849,-97.4522958 L388.112853,-97.220665 L388.112853,-116.111448 L389.193797,-116.265869 C392.796944,-116.832077 395.988302,-117.269602 398.94803,-117.655654 Z M197.609342,-147.330285 L198.267939,-147.325641 C203.095431,-147.25141 207.870541,-146.29412 212.356507,-144.499096 L212.356507,-144.499096 L214.647079,-143.572573 L212.562401,-142.259998 C194.024581,-130.418221 176.482677,-117.085341 160.11088,-102.393754 L160.11088,-102.393754 L158.000231,-100.51497 L158.000231,-107.721264 C157.969702,-116.615449 160.964732,-125.255658 166.493597,-132.222661 C173.980196,-141.788171 185.462447,-147.363094 197.609342,-147.330285 L197.609342,-147.330285 Z M392.410892,-152.297335 C439.335131,-158.210564 486.960813,-154.967927 532.650507,-142.748997 C535.816129,-141.899683 539.239118,-140.921687 543.151106,-139.737795 L543.151106,-139.737795 L544.026156,-139.480428 L544.026156,-120.074909 L542.379003,-120.589645 C508.780366,-131.177678 473.758641,-136.558959 438.53117,-136.546437 C423.904023,-136.536242 409.291663,-135.616523 394.778674,-133.792604 L394.778674,-133.792604 L390.892423,-133.277868 L388.164327,-132.891817 L388.164327,-146.069039 C388.164327,-147.510298 388.318747,-149.00303 388.318747,-150.701656 L388.318747,-150.701656 L388.318747,-151.731126 L390.583582,-152.039968 Z M446.140589,-189.875585 L446.406619,-189.873007 C477.081102,-189.030454 507.552967,-184.61687 537.205914,-176.721522 L537.205914,-176.721522 L537.79786,-176.567102 L538.055227,-176.000893 C540.511234,-170.107424 542.239763,-163.936575 543.20258,-157.624845 L543.20258,-157.624845 L543.434211,-155.488694 L541.555427,-156.029166 C538.492752,-156.929952 535.661709,-157.727792 532.882138,-158.474158 C504.492296,-166.055306 475.316217,-170.304753 445.943357,-171.136645 C443.342771,-171.201236 440.887623,-172.350156 439.17183,-174.305476 C437.456037,-176.260796 436.635878,-178.844418 436.909754,-181.43135 L436.909754,-181.43135 L436.938384,-181.695847 C437.518956,-186.435094 441.604492,-189.986999 446.406619,-189.873007 Z M414.081246,-189.435483 C416.788006,-189.580796 419.424434,-188.543327 421.306272,-186.59234 C423.18811,-184.641353 424.129806,-181.969218 423.886952,-179.269462 L423.886952,-179.269462 L423.989899,-179.269462 C423.559684,-174.664336 419.807707,-171.076919 415.187927,-170.853541 C407.981633,-170.441752 400.749603,-169.849807 393.54331,-169.051967 L393.54331,-169.051967 L391.587316,-168.846073 L392.204998,-170.69912 C394.174923,-176.782945 396.870991,-182.607144 400.234868,-188.045697 L400.234868,-188.045697 L400.569446,-188.560433 L401.212865,-188.560433 C405.562378,-188.920747 409.83468,-189.229588 414.081246,-189.435483 Z M466.301136,-223.999977 C488.379168,-224.016981 509.426931,-214.66242 524.20885,-198.263192 L524.20885,-198.263192 L526.782526,-195.329201 L522.922011,-196.204251 C493.36409,-202.90472 463.151215,-206.288562 432.843345,-206.293062 C428.596779,-206.293062 424.273003,-206.215851 419.974964,-206.035694 L419.974964,-206.035694 L416.011503,-206.035694 L419.177125,-208.352002 C431.578703,-217.710492 446.510667,-223.118284 462.028833,-223.87127 C463.521565,-223.999977 464.91135,-223.999977 466.301136,-223.999977 Z" id="path-4"></path>
        <linearGradient x1="45.0952855%" y1="55.7929534%" x2="78.2497523%" y2="97.5134651%" id="linearGradient-5">
            <stop stop-color="#FFFFFF" offset="0%"></stop>
            <stop stop-color="#FFFFFF" stop-opacity="0.357223861" offset="47.9122783%"></stop>
            <stop stop-color="#FFFFFF" offset="100%"></stop>
        </linearGradient>
        <linearGradient x1="100%" y1="39.9703103%" x2="10.6383279%" y2="56.8060164%" id="linearGradient-6">
            <stop stop-color="#FFFFFF" offset="0%"></stop>
            <stop stop-color="#FFFFFF" stop-opacity="0" offset="24.4075748%"></stop>
            <stop stop-color="#FFFFFF" stop-opacity="0" offset="78.0150515%"></stop>
            <stop stop-color="#FFFFFF" offset="100%"></stop>
        </linearGradient>
        <path d="M125.584122,840.539674 C163.322549,792.002671 226.282485,770.513775 285.821201,785.849055 L285.821201,785.849055 L287.802932,786.36379 L286.438884,787.907996 C282.27788,792.68099 277.87994,797.242135 273.261662,801.574216 L273.261662,801.574216 L272.7984,802.011741 L272.154981,802.011741 C222.32541,792.74064 171.481535,812.004345 140.30555,851.966796 L140.30555,851.966796 L139.50771,853.022003 L138.761344,854 L138.143662,854 C131.760945,853.897053 125.352491,853.485265 119.149932,852.790372 L119.149932,852.790372 L117.116728,852.558741 L118.249145,850.834378 C120.43677,847.282705 123.010446,843.808242 125.584122,840.539674 Z M249.995629,815.986803 L252.003096,816.01254 L255.837874,816.01254 L252.723726,818.225901 C226.82015,836.669393 196.761282,848.427715 165.218735,852.455794 L165.218735,852.455794 L161.435431,852.919056 L164.189265,850.34538 C187.23512,828.170005 218.013779,815.845617 249.995629,815.986803 L249.995629,815.986803 Z M205.084979,750.486744 C207.643906,749.93989 210.314754,750.500582 212.437743,752.03031 C214.560733,753.560039 215.937883,755.916151 216.228997,758.516614 L216.228997,758.516614 L216.228997,758.259246 C216.799296,763.008445 213.65059,767.407701 208.971231,768.39953 C171.054186,776.580151 137.240663,797.879936 113.487844,828.546343 C108.580476,834.882254 104.125568,841.556017 100.156202,848.51807 L100.156202,848.51807 L99.6929399,849.341646 L98.7921532,849.135752 C93.3874332,847.926124 87.8797662,846.484866 82.7324138,844.811976 L82.7324138,844.811976 L81.2139449,844.322978 L81.9345742,842.984666 C86.8357117,833.956321 92.4740661,825.348147 98.7921532,817.247904 C122.865829,786.15082 156.322206,763.641998 194.198329,753.06042 C197.835792,752.151055 201.464675,751.293163 205.084979,750.486744 Z M186.734668,718.495949 C231.324295,706.85907 278.461348,709.725695 321.312196,726.680239 L321.312196,726.680239 L322.444613,727.143501 L322.032825,728.301655 C320.154042,733.346061 318.01789,738.390466 315.727319,743.254714 L315.727319,743.254714 L315.23832,744.335658 L314.131639,743.898133 C233.034549,711.770244 140.464735,736.91939 86.7730854,805.666361 C78.9658723,815.695534 72.1400242,826.451416 66.3895701,837.78584 L66.3895701,837.78584 L65.8490981,838.841047 L64.7681541,838.352049 C59.8266958,836.241634 54.9109743,833.899589 50.1496734,831.325913 L50.1496734,831.325913 L49.0687294,830.733967 L49.6092014,829.653023 C55.937357,817.142445 63.4618543,805.273908 72.0773945,794.213502 C100.872133,756.98993 141.194253,730.361944 186.734668,718.495949 Z M40.6212023,783.100161 C43.4015992,782.821125 46.1609206,783.801317 48.142206,785.771844 L48.142206,785.771844 L48.142206,785.823318 C51.2645615,788.975062 51.7480153,793.884804 49.3003603,797.585018 C44.3197904,805.169865 39.7908381,813.04182 35.7370868,821.159892 L35.7370868,821.159892 L35.1194045,822.44673 L33.9097767,821.64889 C29.3801066,818.611953 24.9276468,815.343384 20.6553444,811.946131 L20.6553444,811.946131 L19.8575047,811.302712 L20.3207665,810.376189 C24.3808508,802.414967 28.8743699,794.682334 33.7810929,787.213103 C35.3312919,784.888162 37.8408053,783.379197 40.6212023,783.100161 Z M75.5003838,693.042292 L76.1438028,693.273922 C83.0005907,695.850569 90.1971449,697.411267 97.5053151,697.90654 L97.5053151,697.90654 L101.314356,698.163907 L98.0972606,700.222848 C73.3203877,716.080648 51.4520701,736.077275 33.446515,759.34019 C23.8616586,771.6657 15.4031796,784.827162 8.17301488,798.665962 L8.17301488,798.665962 L7.40091202,800.158694 L6.19128422,798.974803 C2.20208614,795.037079 -1.78711195,790.81625 -5.51894241,786.466737 L-5.51894241,786.466737 L-6.08515117,785.797581 L-5.67336298,785.051215 C14.1041123,748.927378 41.642241,717.636048 74.9599118,693.428343 L74.9599118,693.428343 L75.5003838,693.042292 Z M53.6756098,760.858659 C122.221647,681.973667 233.189493,655.122443 330.217115,693.943078 L330.217115,693.943078 L331.169376,694.40634 L330.989218,695.410074 C330.731851,696.851332 330.474483,698.266854 330.191379,699.682376 C329.393539,703.568627 328.467016,707.557825 327.411808,711.469813 L327.411808,711.469813 L327.025757,712.859598 L325.713182,712.293389 C298.348113,700.886019 268.988093,695.033262 239.340609,695.075496 C229.807615,695.078036 220.283933,695.671118 210.824277,696.851332 C155.305723,703.635296 104.302154,730.84821 67.7536185,773.186568 C66.0673646,775.152245 63.6389994,776.327324 61.0511769,776.429861 C58.4633545,776.532397 55.9496286,775.553137 54.1131347,773.72704 L54.1131347,773.72704 L53.9089039,773.519071 C50.569403,770.012529 50.4480893,764.51154 53.6756098,760.858659 Z M237.770667,746.317389 C261.243718,745.442152 284.666826,749.076622 306.770925,757.023881 L306.770925,757.023881 L308.212184,757.538617 L307.440081,758.851192 C304.609037,763.638229 301.597836,768.296583 298.355004,772.826253 L298.355004,772.826253 L297.788796,773.624093 L296.913746,773.315252 C280.040116,767.706473 262.372289,764.855982 244.590909,764.873594 L244.590909,764.873594 L238.594243,764.873594 C233.711671,765.067499 229.50448,761.466144 228.942958,756.612093 L228.942958,756.612093 L228.913511,756.292865 C228.730276,753.846045 229.522729,751.420688 231.125587,749.551465 C232.798135,747.600972 235.20374,746.430194 237.770667,746.317389 Z M45.0280578,671.268991 L45.8001606,672.246988 C49.3503654,676.282749 53.3092337,679.939742 57.6133343,683.159375 L57.6133343,683.159375 L58.9516459,684.137372 L57.6390711,685.141106 L57.6390711,684.960948 C27.774471,708.210373 2.72872777,737.058873 -16.0967515,769.892262 L-16.0967515,769.892262 L-17.1004852,771.616625 L-18.2329027,769.969473 C-21.6816288,765.053751 -24.9244608,759.803452 -27.8584517,754.527416 L-27.8584517,754.527416 L-28.2187663,753.883997 L-27.8327149,753.240578 C-21.7842741,743.383992 -15.2030584,733.864426 -8.11835535,724.724245 C7.10810881,705.113397 24.6409784,687.407705 44.1015344,671.98962 L44.1015344,671.98962 L45.0280578,671.268991 Z M-12.7495046,680.034864 C-10.184014,679.956974 -7.69947454,680.937997 -5.87925707,682.747587 L-5.87925707,682.747587 L-5.9307306,682.747587 C-2.41779832,686.270563 -2.28200723,691.928525 -5.62188946,695.615968 C-10.6834526,701.209424 -15.5391217,707.008774 -20.1888966,713.014019 C-25.4391961,719.782787 -30.5865484,726.98908 -35.4507964,734.401268 L-35.4507964,734.401268 L-36.7633712,736.408735 L-37.6641579,734.195374 C-40.2107966,727.965319 -42.4356696,721.608539 -44.3299792,715.15017 L-44.3299792,715.15017 L-44.5101366,714.558225 L-44.1498219,714.069226 C-41.0614105,709.719713 -37.9472623,705.498884 -34.8845876,701.56116 C-29.9259715,695.247074 -24.7786192,689.113146 -19.4425305,683.159375 C-17.7354447,681.242694 -15.3149951,680.112753 -12.7495046,680.034864 Z M27.2182186,596.632382 L27.2182186,618.971891 L26.7034834,619.332206 C-1.12560681,639.122258 -25.9070133,662.880499 -46.8521819,689.850933 L-46.8521819,689.850933 L-49.4258581,693.093765 L-49.8891198,690.185511 C-51.0618745,682.514449 -51.766649,674.77912 -51.9995342,667.022425 L-51.9995342,667.022425 L-51.9995342,666.533427 L-51.5877461,666.121639 C-29.3188668,639.873927 -3.44536377,616.911843 25.2622247,597.91922 L25.2622247,597.91922 L27.2182186,596.632382 Z M201.996568,643.653446 C246.347593,638.09691 291.384604,643.405253 333.228317,659.12124 L333.228317,659.12124 L334.051893,659.430081 L334.051893,661.02576 C334.051893,666.379006 333.820262,671.91241 333.357,677.445814 L333.357,677.445814 L333.20258,679.14444 L331.632637,678.501021 C301.43778,666.35134 269.185784,660.129877 236.638249,660.176447 C212.037759,660.15031 187.558111,663.616454 163.931897,670.471152 L163.931897,670.471152 L160.25154,671.526359 L162.593586,668.489421 C167.058947,662.659746 170.648536,656.20889 173.248605,649.34127 L173.248605,649.34127 L173.505973,648.723588 L174.149392,648.569167 C183.342756,646.461092 192.637075,644.820412 201.996568,643.653446 Z M28.9425817,638.789198 L29.4058434,640.642245 C30.7189585,646.039035 32.6355515,651.270816 35.1194045,656.238722 L35.1194045,656.238722 L35.5054559,657.165246 L34.7076163,657.782928 C28.2391102,662.861649 21.9764981,668.197738 15.9197802,673.791194 C12.2477362,677.139055 6.60058061,677.037406 3.05139928,673.559563 L3.05139928,673.559563 L2.83112027,673.331282 C1.17504352,671.555573 0.274639894,669.199253 0.330528819,666.763427 C0.388847697,664.221696 1.48335644,661.814201 3.36024042,660.099237 C11.0641111,652.99589 19.076823,646.278595 27.3983759,639.947352 L27.3983759,639.947352 L28.9425817,638.789198 Z M314.979689,621.063565 C317.311869,619.500455 320.224581,619.072394 322.907875,619.898415 C326.382338,620.953622 329.805327,622.060303 333.20258,623.244194 L333.20258,623.244194 L334.000419,623.553035 L334.000419,643.344605 L332.301793,642.726922 C327.394651,640.925349 322.444613,639.261038 317.451682,637.73399 C313.225853,636.43712 310.487272,632.356096 310.888807,627.954021 L310.888807,627.954021 L310.922337,627.644491 C311.257039,624.971951 312.733886,622.568781 314.979689,621.063565 Z M18.7250872,559.674392 L19.4199798,560.600915 C22.8311072,565.178928 25.1945702,570.450593 26.3431687,576.042972 L26.3431687,576.042972 L26.523326,576.815075 L25.77696,577.278337 C-2.00240298,594.466935 -27.4142284,615.215167 -49.8119095,638.995092 L-49.8119095,638.995092 L-51.9995342,641.285664 L-51.9995342,614.648115 L-51.6134828,614.313537 C-30.5854703,593.762651 -7.32001297,575.633724 17.7470903,560.266337 L17.7470903,560.266337 L18.7250872,559.674392 Z M195.459431,609.011764 C227.312465,604.948262 259.607699,605.947173 291.148711,611.971492 C295.853464,612.890804 299.08644,617.238599 298.612372,622.008829 L298.612372,622.008829 L298.612372,622.086039 C298.367677,624.693431 297.036897,627.077442 294.945939,628.65423 C292.854981,630.231018 290.196943,630.854969 287.622775,630.373277 C269.929996,626.964935 251.953963,625.241441 233.935889,625.225924 C221.890344,625.242006 209.857172,625.998377 197.904423,627.490759 C191.959231,628.237125 185.756671,629.215122 179.451165,630.399013 L179.451165,630.399013 L177.829749,630.733591 L177.829749,629.060702 C178.112853,626.84734 178.112853,624.685452 178.112853,622.626511 L178.112853,611.765598 L179.16806,611.58544 C184.701464,610.504496 190.183394,609.655183 195.459431,609.011764 Z M188.94803,574.344346 C237.416636,568.150861 286.654147,572.684508 333.176843,587.624515 L333.176843,587.624515 L334.051893,587.90762 L334.051893,607.493295 L332.379003,606.927087 C299.810901,595.879804 265.650011,590.254429 231.259266,590.275402 C217.87847,590.29917 204.512223,591.158736 191.238602,592.849078 C187.712665,593.286603 184.006572,593.827075 179.579849,594.547704 L179.579849,594.547704 L178.112853,594.779335 L178.112853,575.888552 L179.193797,575.734131 C182.796944,575.167923 185.988302,574.730398 188.94803,574.344346 Z M-12.3906578,544.669715 L-11.7320609,544.674359 C-6.90456855,544.74859 -2.12945853,545.70588 2.35650671,547.500904 L2.35650671,547.500904 L4.64707851,548.427427 L2.5624008,549.740002 C-15.9754194,561.581779 -33.5173234,574.914659 -49.8891198,589.606246 L-49.8891198,589.606246 L-51.9997689,591.48503 L-51.9997689,584.278736 C-52.0302983,575.384551 -49.0352676,566.744342 -43.5064028,559.777339 C-36.0198043,550.211829 -24.5375529,544.636906 -12.3906578,544.669715 L-12.3906578,544.669715 Z M182.410892,539.702665 C229.335131,533.789436 276.960813,537.032073 322.650507,549.251003 C325.816129,550.100317 329.239118,551.078313 333.151106,552.262205 L333.151106,552.262205 L334.026156,552.519572 L334.026156,571.925091 L332.379003,571.410355 C298.780366,560.822322 263.758641,555.441041 228.53117,555.453563 C213.904023,555.463758 199.291663,556.383477 184.778674,558.207396 L184.778674,558.207396 L180.892423,558.722132 L178.164327,559.108183 L178.164327,545.930961 C178.164327,544.489702 178.318747,542.99697 178.318747,541.298344 L178.318747,541.298344 L178.318747,540.268874 L180.583582,539.960032 Z M236.140589,502.124415 L236.406619,502.126993 C267.081102,502.969546 297.552967,507.38313 327.205914,515.278478 L327.205914,515.278478 L327.79786,515.432898 L328.055227,515.999107 C330.511234,521.892576 332.239763,528.063425 333.20258,534.375155 L333.20258,534.375155 L333.434211,536.511306 L331.555427,535.970834 C328.492752,535.070048 325.661709,534.272208 322.882138,533.525842 C294.492296,525.944694 265.316217,521.695247 235.943357,520.863355 C233.342771,520.798764 230.887623,519.649844 229.17183,517.694524 C227.456037,515.739204 226.635878,513.155582 226.909754,510.56865 L226.909754,510.56865 L226.938384,510.304153 C227.518956,505.564906 231.604492,502.013001 236.406619,502.126993 Z M204.081246,502.564517 C206.788006,502.419204 209.424434,503.456673 211.306272,505.40766 C213.18811,507.358647 214.129806,510.030782 213.886952,512.730538 L213.886952,512.730538 L213.989899,512.730538 C213.559684,517.335664 209.807707,520.923081 205.187927,521.146459 C197.981633,521.558248 190.749603,522.150193 183.54331,522.948033 L183.54331,522.948033 L181.587316,523.153927 L182.204998,521.30088 C184.174923,515.217055 186.870991,509.392856 190.234868,503.954303 L190.234868,503.954303 L190.569446,503.439567 L191.212865,503.439567 C195.562378,503.079253 199.83468,502.770412 204.081246,502.564517 Z M256.301136,468.000023 C278.379168,467.983019 299.426931,477.33758 314.20885,493.736808 L314.20885,493.736808 L316.782526,496.670799 L312.922011,495.795749 C283.36409,489.09528 253.151215,485.711438 222.843345,485.706938 C218.596779,485.706938 214.273003,485.784149 209.974964,485.964306 L209.974964,485.964306 L206.011503,485.964306 L209.177125,483.647998 C221.578703,474.289508 236.510667,468.881716 252.028833,468.12873 C253.521565,468.000023 254.91135,468.000023 256.301136,468.000023 Z" id="path-7"></path>
    </defs>
    <g id="2022.6" stroke="none" stroke-width="1" fill="none" fill-rule="evenodd">
        <g id="编组-2">
            <mask id="mask-2" fill="white">
                <use xlink:href="#path-1"></use>
            </mask>
            <g id="矩形"></g>
            <g id="形状结合" fill-rule="nonzero" mask="url(#mask-2)">
                <use fill="#FAF8FF" xlink:href="#path-4"></use>
                <use fill="url(#linearGradient-3)" xlink:href="#path-4"></use>
            </g>
            <g id="形状结合备份" fill-rule="nonzero" mask="url(#mask-2)">
                <use fill="#FAF8FF" xlink:href="#path-7"></use>
                <use fill="url(#linearGradient-5)" xlink:href="#path-7"></use>
                <use fill="url(#linearGradient-6)" xlink:href="#path-7"></use>
            </g>
        </g>
    </g>
</svg>