<svg width="14" height="14" viewBox="0 0 14 14" fill="none" xmlns="http://www.w3.org/2000/svg">
<path fill-rule="evenodd" clip-rule="evenodd" d="M14 11.5V0.5C14 0.354 13.9532 0.234167 13.8595 0.1405C13.7658 0.0468333 13.646 0 13.5 0H4.5C4.354 0 4.23417 0.0468333 4.1405 0.1405C4.04683 0.234167 4 0.354 4 0.5V2H5V1H13V11H12V12H13.5C13.646 12 13.7658 11.9532 13.8595 11.8595C13.9532 11.7658 14 11.646 14 11.5ZM0.5 3H10.5C10.646 3 10.7658 3.04683 10.8595 3.1405C10.9532 3.23417 11 3.354 11 3.5V13.5C11 13.646 10.9532 13.7658 10.8595 13.8595C10.7658 13.9532 10.646 14 10.5 14H0.5C0.354 14 0.234167 13.9532 0.1405 13.8595C0.0468333 13.7658 0 13.646 0 13.5V3.5C0 3.354 0.0468333 3.23417 0.1405 3.1405C0.234167 3.04683 0.354 3 0.5 3ZM1 4V13H10V4H1ZM3 9.5H8V10.5H3V9.5ZM8 6.5H3V7.5H8V6.5Z" fill="#1F202A"/>
</svg>
