<svg width="24" height="24" viewBox="0 0 24 24" fill="none" xmlns="http://www.w3.org/2000/svg">
<path fill-rule="evenodd" clip-rule="evenodd" d="M16.7605 0C16.9341 0 17.1001 0.00124659 17.259 0.00372927L17.7148 0.014875L18.1312 0.0333743C18.3964 0.0481443 18.6374 0.0677745 18.8584 0.092181L19.1755 0.132362L19.4659 0.179645L19.7326 0.233966L19.979 0.295262C20.2162 0.360025 20.4276 0.435156 20.6274 0.520372L20.8238 0.608939L21.0157 0.704166C21.0475 0.720588 21.0792 0.737286 21.111 0.754257C22.0313 1.24642 22.7535 1.96864 23.2457 2.88891L23.3442 3.07973L23.4362 3.27351L23.5214 3.47342C23.7396 4.01752 23.8859 4.66086 23.9546 5.67415L23.9768 6.07201L23.9916 6.50772L23.9991 6.98446C23.9997 7.06751 24 7.1524 24 7.23921V16.7608L23.9963 17.2592C23.995 17.3387 23.9935 17.4163 23.9916 17.4923L23.9768 17.928L23.9546 18.3258C23.8773 19.4658 23.7019 20.1375 23.4362 20.7265L23.3442 20.9203L23.2457 21.1111C22.7535 22.0314 22.0313 22.7536 21.111 23.2457L20.9202 23.3443L20.7264 23.4362C20.1047 23.7167 19.3907 23.8965 18.1312 23.9666L17.7148 23.9851L17.259 23.9963C17.1795 23.9975 17.0983 23.9984 17.0153 23.9991L7.23855 24C7.06494 24 6.89897 23.9988 6.74009 23.9963L6.28425 23.9851L5.86784 23.9666C4.67463 23.9002 3.97106 23.7353 3.3717 23.4796L3.17524 23.3911C3.14296 23.3757 3.11088 23.3601 3.07891 23.3443L2.88808 23.2457C1.96779 22.7536 1.24553 22.0314 0.753353 21.1111L0.654816 20.9203L0.562907 20.7265C0.297189 20.1375 0.12181 19.4658 0.0444299 18.3258L0.0222767 17.928L0.00744569 17.4923L0 17.0155L0 6.98446L0.00744569 6.50772L0.0222767 6.07201L0.0444299 5.67415C0.113212 4.66086 0.259426 4.01752 0.477691 3.47342L0.562907 3.27351L0.654816 3.07973L0.753353 2.88891C1.24553 1.96864 1.96779 1.24642 2.88808 0.754257L3.07891 0.655724L3.2727 0.563819C3.50175 0.460488 3.74332 0.370819 4.02007 0.295262L4.26644 0.233966L4.53321 0.179645L4.82357 0.132362L5.14068 0.092181C5.36171 0.0677745 5.60268 0.0481443 5.86784 0.0333743L6.28425 0.014875L6.74009 0.00372927C6.81953 0.00248793 6.90074 0.00155561 6.9838 0.00093363L16.7605 0Z" fill="url(#paint0_linear_812_254)"/>
<path fill-rule="evenodd" clip-rule="evenodd" d="M14.6425 6.62235C14.6513 6.52443 14.6171 6.42752 14.5489 6.35675C14.4806 6.28599 14.385 6.24836 14.2868 6.25364C14.1328 6.2611 13.9778 6.2723 13.8201 6.28537H13.7967L13.7846 6.30404C13.6626 6.5013 13.5648 6.71254 13.4933 6.93319L13.4709 7.0004L13.5419 6.99293C13.8033 6.964 14.0656 6.94253 14.3269 6.92759C14.4945 6.91949 14.6306 6.78938 14.6462 6.62235H14.6425ZM7.81955 8.96346L7.84663 8.94666L7.84009 8.91866C7.79843 8.71582 7.71271 8.52462 7.58898 8.35858L7.56378 8.32498L7.5283 8.34645C6.6191 8.90381 5.77524 9.56134 5.01254 10.3067L4.99854 10.3188V11.285L5.07788 11.2019C5.89026 10.3394 6.81197 9.58688 7.81955 8.96346ZM13.3841 8.90746C13.5148 8.88692 13.6306 8.87105 13.7379 8.85705C15.4959 8.63241 17.2818 8.79685 18.9692 9.33871L19.0009 9.34898V10.0593L18.9403 10.0388C17.759 9.63813 16.52 9.4341 15.2726 9.43486C14.7872 9.43572 14.3024 9.4669 13.821 9.52821C13.6931 9.54407 13.5587 9.56368 13.3981 9.58981L13.3449 9.59821V8.91306L13.3841 8.90746ZM8.97522 12.8756L9.02283 12.8392L8.97429 12.8037C8.81817 12.6869 8.67458 12.5543 8.54581 12.4079L8.51781 12.3725L8.4842 12.3986C7.77835 12.9578 7.14242 13.6 6.59014 14.3112C6.33318 14.6428 6.09447 14.988 5.87509 15.3455L5.86108 15.3689L5.87415 15.3922C5.98057 15.5835 6.09819 15.774 6.22328 15.9523L6.26435 16.012L6.30076 15.9495C6.98358 14.7586 7.89201 13.7123 8.97522 12.8691V12.8756ZM15.9522 17.6213C14.7921 17.6162 13.6758 18.0632 12.8399 18.8675L12.74 18.9608L12.8772 18.944C14.0213 18.7979 15.1116 18.3714 16.0511 17.7025L16.1641 17.6222H16.025L15.9522 17.6213ZM18.5967 10.5093C18.7228 10.5475 18.8469 10.5877 18.9701 10.6306L18.9991 10.6418V11.3596L18.9375 11.3372C18.7595 11.2719 18.5799 11.2115 18.3988 11.1562C18.2456 11.1091 18.1462 10.9611 18.1608 10.8014C18.1701 10.7 18.2246 10.6082 18.3092 10.5515C18.3938 10.4948 18.4994 10.4793 18.5967 10.5093ZM8.83146 15.6218C11.3177 12.7607 15.3426 11.7868 18.8619 13.1948L18.8964 13.2116L18.8899 13.248C18.8805 13.3003 18.8712 13.3516 18.8609 13.403C18.832 13.5439 18.7984 13.6886 18.7601 13.8305L18.7461 13.8809L18.6985 13.8604C17.7059 13.4466 16.641 13.2344 15.5657 13.2359C15.2199 13.236 14.8745 13.2575 14.5314 13.3003C12.5177 13.5464 10.6677 14.5334 9.34208 16.0689C9.28092 16.1402 9.19284 16.1829 9.09898 16.1866C9.00512 16.1903 8.91394 16.1548 8.84733 16.0885C8.71902 15.9618 8.71206 15.757 8.83146 15.6218ZM14.7274 15.5369C14.7169 15.4426 14.6669 15.3571 14.5899 15.3016C14.5129 15.2461 14.416 15.2258 14.3232 15.2456C14.1919 15.2749 14.0603 15.306 13.9283 15.339C12.5545 15.7228 11.341 16.5392 10.4679 17.667C10.2387 17.9608 10.0342 18.273 9.85644 18.6005L9.8303 18.649L9.88538 18.6668C10.0721 18.7274 10.2718 18.7797 10.4679 18.8236L10.5005 18.831L10.5174 18.8012C10.6613 18.5487 10.8229 18.3066 11.0009 18.0768C11.8624 16.9646 13.0889 16.192 14.4642 15.8953C14.6339 15.8593 14.7481 15.6998 14.7274 15.5275V15.5369ZM7.95118 11.2616C7.9988 11.4574 8.06832 11.6471 8.15841 11.8273L8.17241 11.8609L8.14348 11.8833C7.90886 12.0675 7.68171 12.2611 7.46203 12.4639C7.32884 12.5854 7.12401 12.5817 6.99528 12.4555C6.93013 12.3903 6.89448 12.3012 6.89659 12.209C6.89871 12.1168 6.93841 12.0295 7.00648 11.9673C7.28591 11.7097 7.57653 11.4661 7.87836 11.2364L7.93437 11.1944L7.95118 11.2616Z" fill="white" fill-opacity="0.7"/>
<path fill-rule="evenodd" clip-rule="evenodd" d="M14.9673 5.64222C16.0666 5.64238 17.1625 5.76511 18.2346 6.00814L18.3746 6.03987L18.2812 5.93346C17.7451 5.33867 16.9817 4.99939 16.1809 5C16.1305 5 16.0801 5 16.0259 5.00467C15.4631 5.03198 14.9215 5.22812 14.4716 5.56754L14.3568 5.65156H14.5006C14.6565 5.64502 14.8133 5.64222 14.9673 5.64222ZM18.9683 8.05614C18.8264 8.0132 18.7022 7.97773 18.5874 7.94693C16.9302 7.50375 15.2028 7.38615 13.5008 7.60062L13.4345 7.60995L13.3524 7.62115V7.65849C13.3524 7.69056 13.3509 7.7206 13.3494 7.74942C13.3481 7.77596 13.3468 7.80145 13.3468 7.82651V8.30444L13.4457 8.29044L13.5867 8.27177C14.1131 8.20562 14.6431 8.17226 15.1736 8.17189C16.4514 8.17144 17.7216 8.36661 18.9403 8.75064L19 8.76931V8.06548L18.9683 8.05614ZM7.87184 10.4757L7.85317 10.4887C6.84378 11.2065 5.94494 12.0682 5.18524 13.0464L5.09189 13.164L5.07509 13.0585C5.03255 12.7803 5.00699 12.4998 4.99854 12.2184V12.2007L5.01348 12.1858C5.82119 11.2338 6.75964 10.4009 7.80089 9.7121L7.87184 9.66542V10.4757ZM14.2112 11.3709C13.8717 11.4132 13.5346 11.4727 13.2012 11.5491L13.1778 11.5547L13.1685 11.5771C13.0742 11.8262 12.944 12.0602 12.782 12.2716L12.6971 12.3818L12.8306 12.3435C13.6875 12.0949 14.5754 11.9692 15.4677 11.9701C16.6482 11.9684 17.818 12.1941 18.9132 12.6348L18.9701 12.6581L18.9757 12.5965C18.9926 12.3958 19.001 12.1951 19.001 12.0009V11.9431L18.9711 11.9319C17.4534 11.3618 15.8198 11.1693 14.2112 11.3709ZM10.5594 13.3479L10.4427 13.4226C9.544 13.9977 8.75082 14.723 8.09774 15.5667C7.75009 16.0138 7.4433 16.4911 7.18105 16.9931L7.15305 17.0472L7.10917 17.0043C6.96448 16.8615 6.81979 16.7084 6.68443 16.5506L6.6639 16.5263L6.67883 16.4993C7.39618 15.1891 8.39501 14.0542 9.60347 13.1762L9.62307 13.1622L9.64641 13.1706C9.89511 13.264 10.1561 13.3206 10.4212 13.3386L10.5594 13.3479ZM13.6576 14.0853C12.0058 14.5157 10.5433 15.4815 9.49892 16.8316C9.18643 17.2327 8.91351 17.6632 8.68398 18.117L8.66437 18.1562L8.70358 18.1776C8.87628 18.271 9.05458 18.3559 9.23381 18.4325L9.27301 18.4502L9.29262 18.4119C9.50119 18.0008 9.74877 17.6107 10.0319 17.247C11.9794 14.7536 15.337 13.8414 18.2784 15.0067L18.3186 15.0225L18.3363 14.9833C18.4194 14.8069 18.4969 14.624 18.565 14.441L18.58 14.399L18.5389 14.3822C16.9846 13.7673 15.2749 13.6633 13.6576 14.0853ZM11.4397 18.5118C11.3463 18.6304 11.253 18.7564 11.1736 18.8852L11.1325 18.9477L11.2063 18.9561C11.4313 18.9813 11.6637 18.9963 11.8952 19H11.9176L11.9447 18.9645L11.9736 18.9263C13.1044 17.4768 14.9485 16.7782 16.7559 17.1144H16.7792L16.796 17.0985C16.9635 16.9414 17.1231 16.776 17.274 16.6029L17.3235 16.5469L17.2516 16.5282C15.0921 15.972 12.8085 16.7514 11.4397 18.5118ZM7.05316 7.91706L6.97755 7.96466C6.30517 8.39416 5.66891 8.87774 5.07509 9.41059L4.99854 9.47873V9.21736C4.99743 8.89478 5.10606 8.5814 5.3066 8.32871C5.57814 7.98178 5.99461 7.77958 6.43519 7.78077C6.61841 7.78053 6.79998 7.81539 6.97008 7.88345L7.05316 7.91706ZM17.4448 10.2218C17.6155 10.2551 17.7327 10.4128 17.7155 10.5858V10.5886C17.7067 10.6832 17.6584 10.7696 17.5825 10.8268C17.5067 10.884 17.4103 10.9067 17.3169 10.8892C16.6752 10.7656 16.0232 10.7031 15.3697 10.7025C14.9328 10.7031 14.4963 10.7305 14.0628 10.7846C13.8471 10.8117 13.6222 10.8472 13.3935 10.8901L13.3346 10.9023V10.8416C13.3449 10.7613 13.3449 10.6829 13.3449 10.6082V10.2143L13.3832 10.2078C13.5839 10.1686 13.7827 10.1378 13.9741 10.1144C15.1294 9.96704 16.3008 10.0033 17.4448 10.2218ZM18.9701 7.40739C18.9352 7.17847 18.8725 6.95465 18.7835 6.7409L18.7741 6.72037L18.7526 6.71476C17.6771 6.4284 16.5719 6.26833 15.4593 6.23777C15.2819 6.23356 15.1314 6.36728 15.1148 6.54394C15.1049 6.63777 15.1346 6.73147 15.1969 6.80239C15.2591 6.87331 15.3481 6.91498 15.4425 6.91732C16.5079 6.9475 17.5661 7.10162 18.5958 7.37659C18.6966 7.40366 18.7993 7.43259 18.9104 7.46526L18.9785 7.48487L18.9701 7.40739ZM8.35798 16.4285C8.45882 16.4184 8.55891 16.4539 8.63077 16.5254V16.5273C8.74402 16.6416 8.76155 16.8197 8.67278 16.9539C8.49213 17.229 8.32786 17.5145 8.18082 17.8089L8.15842 17.8556L8.11455 17.8266C7.95025 17.7165 7.78876 17.5979 7.6338 17.4747L7.60486 17.4514L7.62166 17.4178C7.76892 17.129 7.93191 16.8486 8.10988 16.5777C8.16611 16.4934 8.25713 16.4386 8.35798 16.4285ZM18.0115 15.4827C17.2097 15.1945 16.3601 15.0627 15.5088 15.0944C15.4156 15.0985 15.3284 15.141 15.2677 15.2117C15.2071 15.2825 15.1784 15.3752 15.1886 15.4678C15.2089 15.6439 15.3615 15.7745 15.5386 15.7674H15.7561C16.4011 15.7668 17.0419 15.8702 17.6539 16.0736L17.6857 16.0848L17.7062 16.0559C17.8238 15.8916 17.933 15.7226 18.0357 15.549L18.0637 15.5014L18.0115 15.4827ZM6.42218 12.6904C6.51523 12.6876 6.60534 12.7231 6.67137 12.7888H6.6695C6.79692 12.9166 6.80184 13.1218 6.6807 13.2555C6.49711 13.4584 6.32099 13.6687 6.15234 13.8865C5.96191 14.132 5.77521 14.3934 5.59878 14.6622L5.55117 14.735L5.5185 14.6548C5.42613 14.4288 5.34543 14.1982 5.27672 13.964L5.27019 13.9425L5.28326 13.9248C5.39528 13.767 5.50823 13.614 5.61932 13.4711C5.79917 13.2421 5.98587 13.0196 6.17941 12.8037C6.24133 12.7342 6.32912 12.6932 6.42218 12.6904Z" fill="white"/>
<defs>
<linearGradient id="paint0_linear_812_254" x1="1.22762" y1="1.83139" x2="17.5606" y2="18.7406" gradientUnits="userSpaceOnUse">
<stop stop-color="#AB92FF"/>
<stop offset="1" stop-color="#8864FF"/>
</linearGradient>
</defs>
</svg>
