<?xml version="1.0" encoding="UTF-8"?>
<svg width="24px" height="24px" viewBox="0 0 24 24" version="1.1" xmlns="http://www.w3.org/2000/svg" xmlns:xlink="http://www.w3.org/1999/xlink">
    <title>编组 8</title>
    <g id="2022.6" stroke="none" stroke-width="1" fill="none" fill-rule="evenodd">
        <g id="注册-邮箱不支持" transform="translate(-48.000000, -231.000000)">
            <g id="移动端/控件/弹窗/双按钮无标题" transform="translate(24.000000, 113.000000)">
                <g id="编组-8" transform="translate(24.000000, 118.000000)">
                    <rect id="矩形" fill-opacity="0" fill="#FFFFFF" x="0" y="0" width="24" height="24"></rect>
                    <g id="编组-16" transform="translate(2.000000, 4.500000)" fill-rule="nonzero">
                        <path d="M1.36342748,15.0015701 L4.54475827,15.0015701 L4.54475827,7.27548103 L-3.55271368e-14,3.86691232 L-3.55271368e-14,13.6381426 C-3.55271368e-14,14.3925725 0.611269988,15.0015701 1.36342748,15.0015701" id="路径" fill="#4285F4"></path>
                        <path d="M15.4521781,15.0015701 L18.6335089,15.0015701 C19.3879388,15.0015701 19.9969364,14.3903001 19.9969364,13.6381426 L19.9969364,3.86691232 L15.4521781,7.27548103" id="路径" fill="#34A853"></path>
                        <path d="M15.4521781,1.36729527 L15.4521781,7.27548103 L19.9969364,3.86691232 L19.9969364,2.04900902 C19.9969364,0.362903697 18.0722313,-0.598312678 16.7247104,0.412896038" id="路径" fill="#FBBC04"></path>
                        <polyline id="路径" fill="#EA4335" points="4.54475827 7.27548103 4.54475827 1.36729527 9.9984682 5.45757772 15.4521781 1.36729527 15.4521781 7.27548103 9.9984682 11.3657635"></polyline>
                        <path d="M-3.55271368e-14,2.04900902 L-3.55271368e-14,3.86691232 L4.54475827,7.27548103 L4.54475827,1.36729527 L3.27222596,0.412896038 C1.92243275,-0.598312678 -3.55271368e-14,0.362903697 -3.55271368e-14,2.04900902" id="路径" fill="#C5221F"></path>
                    </g>
                </g>
            </g>
        </g>
    </g>
</svg>