<?xml version="1.0" encoding="UTF-8"?>
<svg width="24px" height="24px" viewBox="0 0 24 24" version="1.1" xmlns="http://www.w3.org/2000/svg" xmlns:xlink="http://www.w3.org/1999/xlink">
    <title>编组 8备份 4</title>
    <defs>
        <linearGradient x1="100.303622%" y1="58.2714452%" x2="-0.0369313375%" y2="57.38216%" id="linearGradient-1">
            <stop stop-color="#3E82F4" offset="0%"></stop>
            <stop stop-color="#93DCF7" offset="100%"></stop>
        </linearGradient>
    </defs>
    <g id="2022.6" stroke="none" stroke-width="1" fill="none" fill-rule="evenodd">
        <g id="注册-邮箱不支持" transform="translate(-48.000000, -439.000000)">
            <g id="移动端/控件/弹窗/双按钮无标题" transform="translate(24.000000, 113.000000)">
                <g id="编组-8备份-4" transform="translate(24.000000, 326.000000)">
                    <rect id="矩形" fill-opacity="0" fill="#FFFFFF" x="0" y="0" width="24" height="24"></rect>
                    <path d="M13.5996053,5 C11.4635379,5.00431722 9.49600024,6.16082911 8.45318067,8.02505273 C8.01233409,7.81037436 7.52853788,7.69848056 7.03819919,7.69779168 C5.45097542,7.70196395 4.1001085,8.85458195 3.8461729,10.4213664 C2.18627915,11.1163909 1.10577843,12.7399657 1.10577843,14.5394952 C1.10816336,17.004506 3.10775136,19.0011932 5.572763,19 C5.76009568,18.9983076 5.94713616,18.984827 6.13277528,18.9596376 L18.5446311,18.9596376 C18.6098121,18.9643398 18.6750944,18.9674967 18.7404236,18.9691055 C18.8026779,18.9673546 18.8648851,18.9641978 18.9269981,18.9596376 L19.2242379,18.9596376 L19.2242379,18.9375457 C21.3159461,18.6901644 22.8927537,16.9096782 22.8942216,14.7935046 L22.8942216,14.7854916 C22.8893751,12.782569 21.4697408,11.0652311 19.5110546,10.6928595 C19.3938636,7.51352645 16.7810963,4.99737338 13.5996053,5 Z" id="rect955" fill="url(#linearGradient-1)" fill-rule="nonzero"></path>
                </g>
            </g>
        </g>
    </g>
</svg>