<?xml version="1.0" encoding="UTF-8"?>
<svg width="24px" height="24px" viewBox="0 0 24 24" version="1.1" xmlns="http://www.w3.org/2000/svg" xmlns:xlink="http://www.w3.org/1999/xlink">
    <title>编组 8备份 5</title>
    <g id="2022.6" stroke="none" stroke-width="1" fill="none" fill-rule="evenodd">
        <g id="注册-邮箱不支持" transform="translate(-48.000000, -491.000000)" fill="#FFFFFF">
            <g id="移动端/控件/弹窗/双按钮无标题" transform="translate(24.000000, 113.000000)">
                <g id="编组-8备份-5" transform="translate(24.000000, 378.000000)">
                    <rect id="矩形" fill-opacity="0" x="0" y="0" width="24" height="24"></rect>
                    <path d="M19.1423401,14.9097732 L16.7680987,14.9097732 L16.7680987,9.49073778 C16.7680987,8.955206 16.599702,7.71877994 15.0279997,7.71877994 C13.9918291,7.71877994 13.2226659,8.45456723 13.2226659,9.49073778 L13.2226659,14.9097732 L10.8469074,14.9097732 L10.8469074,9.49073778 C10.8469074,8.955206 10.6800278,7.71877994 9.10832543,7.71877994 C8.03726187,7.71877994 7.30147459,8.45456723 7.30147459,9.49073778 L7.30147459,14.9097732 L4.92723313,14.9097732 L4.92723313,5.38246567 L9.10832543,5.38246567 C10.3781274,5.38246567 11.4158151,5.88462153 12.0514746,6.68716065 C12.7956459,5.84431983 13.8703643,5.36789828 14.9946237,5.38246567 C17.6040137,5.38246567 19.1423401,7.08918876 19.1423401,9.53018205 L19.1423401,14.9097732 Z M16.7680987,2.5 L2.51809867,2.5 L2.51809867,14.8763973 C2.52436756,15.9564205 3.24952736,16.8999346 4.2915736,17.1838869 L4.2915736,17.1838869 L21.4817963,21.5 L21.4817963,7.25 C21.4901707,5.99394873 20.9974545,4.78636303 20.1126956,3.89476982 C19.2279367,3.00317662 18.024178,2.50118301 16.7680987,2.5" id="形状" fill-rule="nonzero"></path>
                </g>
            </g>
        </g>
    </g>
</svg>