<?xml version="1.0" encoding="UTF-8"?>
<svg width="24px" height="24px" viewBox="0 0 24 24" version="1.1" xmlns="http://www.w3.org/2000/svg" xmlns:xlink="http://www.w3.org/1999/xlink">
    <title>编组 8备份</title>
    <defs>
        <linearGradient x1="50.000064%" y1="1.23596286e-05%" x2="50.000064%" y2="99.9999262%" id="linearGradient-1">
            <stop stop-color="#35B8F1" offset="0%"></stop>
            <stop stop-color="#28A8EA" offset="100%"></stop>
        </linearGradient>
        <linearGradient x1="17.372029%" y1="-6.51030653%" x2="82.6280031%" y2="106.51036%" id="linearGradient-2">
            <stop stop-color="#1784D9" offset="0%"></stop>
            <stop stop-color="#107AD5" offset="50%"></stop>
            <stop stop-color="#0A63C9" offset="100%"></stop>
        </linearGradient>
    </defs>
    <g id="2022.6" stroke="none" stroke-width="1" fill="none" fill-rule="evenodd">
        <g id="注册-邮箱不支持" transform="translate(-48.000000, -283.000000)">
            <g id="移动端/控件/弹窗/双按钮无标题" transform="translate(24.000000, 113.000000)">
                <g id="编组-8备份" transform="translate(24.000000, 170.000000)">
                    <rect id="矩形" fill-opacity="0" fill="#FFFFFF" x="0" y="0" width="24" height="24"></rect>
                    <path d="M22.7495318,12.4999632 C22.7506824,12.3318533 22.6638213,12.1753906 22.5205204,12.0874845 L22.5180196,12.0874845 L22.5090141,12.0824828 L15.0593414,7.67267887 C15.0271707,7.65094598 14.9937905,7.63107994 14.959342,7.61318641 C14.671707,7.46478987 14.3300275,7.46478987 14.0423808,7.61318641 C14.0079322,7.63109168 13.9745521,7.65094598 13.9423813,7.67267887 L6.49273215,12.0824828 L6.48373843,12.0874845 C6.25605383,12.2290712 6.18625263,12.5284356 6.32783929,12.7561201 C6.36955564,12.8232091 6.42701688,12.8790971 6.49523302,12.9189466 L13.9449057,17.3287505 C13.9771821,17.3502955 14.0105622,17.3701615 14.0449051,17.3882547 C14.3325401,17.5366512 14.6742196,17.5366512 14.9618663,17.3882547 C14.9962092,17.3701615 15.0295776,17.3503072 15.0618658,17.3287505 L22.5115384,12.9189466 C22.6603577,12.8321794 22.7512108,12.6722413 22.7495318,12.4999632 Z" id="路径" fill="#0A2767" fill-rule="nonzero"></path>
                    <path d="M7.3611906,9.5555971 L12.2499752,9.5555971 L12.2499752,14.0368929 L7.3611906,14.0368929 L7.3611906,9.5555971 Z M21.7495606,5.00029672 L21.7495606,2.95038396 C21.7613017,2.43785881 21.3556212,2.01271137 20.8431077,2.00043012 L8.15666599,2.00043012 C7.64414084,2.01271137 7.23846025,2.43785881 7.25020141,2.95038396 L7.25020141,5.00029672 L14.7498679,7.00020388 L21.7495606,5.00029672 Z" id="形状" fill="#0364B8" fill-rule="nonzero"></path>
                    <polygon id="路径" fill="#0078D4" fill-rule="nonzero" points="7.25020141 5.00029672 12.2499752 5.00029672 12.2499752 9.50009663 7.25020141 9.50009663"></polygon>
                    <polygon id="路径" fill="#28A8EA" fill-rule="nonzero" points="17.2497607 5.00029672 12.2499752 5.00029672 12.2499752 9.50009663 17.2497607 13.9998965 21.7495606 13.9998965 21.7495606 9.50009663"></polygon>
                    <polygon id="路径" fill="#0078D4" fill-rule="nonzero" points="12.2499752 9.50009663 17.2497489 9.50009663 17.2497489 13.9998965 12.2499752 13.9998965"></polygon>
                    <polygon id="路径" fill="#0364B8" fill-rule="nonzero" points="12.2499752 13.9998965 17.2497489 13.9998965 17.2497489 18.4996964 12.2499752 18.4996964"></polygon>
                    <polygon id="路径" fill="#14447D" fill-rule="nonzero" points="7.3611906 14.0368929 12.2499752 14.0368929 12.2499752 18.1107118 7.3611906 18.1107118"></polygon>
                    <polygon id="路径" fill="#0078D4" fill-rule="nonzero" points="17.2497607 13.9998965 21.7495606 13.9998965 21.7495606 18.4996964 17.2497607 18.4996964"></polygon>
                    <path d="M22.5205204,12.8914488 L22.5110218,12.8964505 L15.0613492,17.0862603 C15.0288496,17.1062555 14.995857,17.1252527 14.9613497,17.1422539 C14.8348152,17.2025095 14.6973967,17.2365237 14.5573716,17.2422533 L14.1503877,17.00426 C14.1159979,16.9870005 14.082606,16.9678037 14.0503883,16.9467635 L6.50072788,12.6379571 L6.49722902,12.6379571 L6.25024196,12.4999632 L6.25024196,20.98159 C6.25409306,21.547467 6.71581421,22.0031414 7.2816912,21.9995697 L21.7340505,21.9995697 C21.7425511,21.9995697 21.7500537,21.9955449 21.7590474,21.9955449 C21.8785725,21.9879014 21.9964067,21.9633154 22.109028,21.9225501 C22.1576951,21.9019326 22.2046715,21.8775228 22.2495227,21.8495553 C22.2830202,21.8305581 22.3405167,21.7890649 22.3405167,21.7890649 C22.5966384,21.599539 22.7482402,21.3002216 22.7494965,20.9816017 L22.7494965,12.4999632 C22.7494965,12.6621909 22.661837,12.8117732 22.5205204,12.8914488 Z" id="路径" fill="url(#linearGradient-1)" fill-rule="nonzero"></path>
                    <path d="M22.3495339,12.4664657 L22.3495339,12.9864465 L14.5598842,18.3497031 L6.49523302,12.641456 C6.49523302,12.6386968 6.49299046,12.6364542 6.49023129,12.6364542 L6.49023129,12.6364542 L5.7502681,12.191476 L5.7502681,11.8164868 L6.0552565,11.811485 L6.70022195,12.1814725 L6.71521541,12.1864742 L6.77021101,12.2214746 C6.77021101,12.2214746 14.3498701,16.5462843 14.369877,16.556276 L14.6598602,16.7262645 C14.6848571,16.7162611 14.709854,16.7062693 14.7398527,16.6962659 C14.7548579,16.6862624 22.2645162,12.4614522 22.2645162,12.4614522 L22.3495339,12.4664657 Z" id="路径" fill="#0A2767" fill-rule="nonzero" opacity="0.5"></path>
                    <path d="M22.5205204,12.8914488 L22.5110218,12.8969436 L15.0613492,17.0867534 C15.0288496,17.1067486 14.995857,17.1257458 14.9613497,17.142747 C14.6720358,17.2840871 14.3337025,17.2840871 14.0443885,17.142747 C14.0101278,17.125781 13.9767594,17.1070891 13.9443891,17.0867534 L6.49473989,12.8969436 L6.48574616,12.8914488 C6.34191694,12.813464 6.25174483,12.6635646 6.2502537,12.4999632 L6.2502537,20.98159 C6.25383475,21.5473731 6.71539153,22.003118 7.28116285,21.9995699 C7.28117459,21.9995699 7.28118633,21.9995699 7.28120981,21.9995699 L21.7185639,21.9995699 C22.284347,22.0031532 22.7459155,21.5474083 22.74952,20.981637 C22.74952,20.9816252 22.74952,20.9816135 22.74952,20.98159 L22.74952,12.4999632 C22.7493322,12.6621909 22.661837,12.8117732 22.5205204,12.8914488 Z" id="路径" fill="#1490DF" fill-rule="nonzero"></path>
                    <path d="M15.1698492,17.0247601 L15.0583552,17.0872583 C15.0260435,17.1078288 14.9926634,17.1266968 14.9583557,17.1437567 C14.8355197,17.2040476 14.7019522,17.2394002 14.5653791,17.2477482 L17.399754,20.5996031 L22.344039,21.7910491 C22.4795203,21.6887132 22.5872807,21.554136 22.657528,21.3995636 L15.1698492,17.0247601 Z" id="路径" fill="#000000" fill-rule="nonzero" opacity="0.1"></path>
                    <path d="M15.6748248,16.7407766 L15.0583552,17.0872583 C15.0260435,17.1078288 14.9926634,17.1266968 14.9583557,17.1437567 C14.8355197,17.2040476 14.7019522,17.2394002 14.5653791,17.2477482 L15.8933161,20.9090883 L22.3455302,21.7895462 C22.5997146,21.5987054 22.7493557,21.299435 22.7495083,20.9815783 L22.7495083,20.8720802 L15.6748248,16.7407766 Z" id="路径" fill="#000000" fill-rule="nonzero" opacity="0.05"></path>
                    <path d="M7.29520528,21.9995503 L21.717061,21.9995503 C21.9389807,22.0006641 22.1554173,21.9305693 22.3345287,21.7995497 L14.1498946,17.0052697 C14.1155047,16.9880102 14.0821129,16.9688134 14.0498951,16.9477733 L6.50023476,12.6389551 L6.49673589,12.6389551 L6.25025319,12.4999632 L6.25025319,20.9525893 C6.24969012,21.5302544 6.71752842,21.9989851 7.29520528,21.9995503 C7.29519354,21.9995503 7.29519354,21.9995503 7.29520528,21.9995503 Z" id="路径" fill="#28A8EA" fill-rule="nonzero"></path>
                    <path d="M13.2499346,6.91671248 L13.2499346,17.5812441 C13.2490423,17.9551531 13.0216865,18.2912439 12.6749582,18.4312103 C12.5675501,18.4773648 12.4518762,18.5012111 12.3349694,18.5012111 L6.25024196,18.5012111 L6.25024196,6.50023002 L7.25020141,6.50023002 L7.25020141,6.00025617 L12.3349812,6.00025617 C12.8400742,6.00216998 13.2488427,6.41160774 13.2499346,6.91671248 Z" id="路径" fill="#000000" fill-rule="nonzero" opacity="0.1"></path>
                    <path d="M12.7500049,7.41668634 L12.7500049,18.0812063 C12.7512171,18.2019876 12.7256096,18.3215361 12.6749582,18.4311868 C12.5361073,18.7734299 12.2043373,18.9979678 11.8349956,18.9996586 L6.25024196,18.9996586 L6.25024196,6.50018777 L11.8349956,6.50018777 C11.9800694,6.49877412 12.1230415,6.53496038 12.2499752,6.60523123 C12.5564664,6.75963923 12.7498434,7.07350395 12.7500049,7.41668634 Z" id="路径" fill="#000000" fill-rule="nonzero" opacity="0.2"></path>
                    <path d="M12.7499608,7.41668634 L12.7499608,17.0812585 C12.7475186,17.5861285 12.3398655,17.9953431 11.8350073,17.9997109 L6.25024196,17.9997109 L6.25024196,6.50018777 L11.8349956,6.50018777 C11.9800694,6.49877412 12.1230415,6.53496038 12.2499752,6.60523123 C12.5564664,6.75963923 12.7498434,7.07350395 12.7499608,7.41668634 Z" id="路径" fill="#000000" fill-rule="nonzero" opacity="0.2"></path>
                    <path d="M12.2499752,7.41668634 L12.2499752,17.0812585 C12.2494351,17.5869151 11.8406666,17.9972452 11.3350217,17.9997109 L6.25024196,17.9997109 L6.25024196,6.50023002 L11.33501,6.50023002 C11.8406079,6.50050007 12.250242,6.91059534 12.2499752,7.41619321 C12.2499752,7.41635759 12.2499752,7.41652196 12.2499752,7.41668634 Z" id="路径" fill="#000000" fill-rule="nonzero" opacity="0.2"></path>
                    <path d="M2.16692451,6.50023002 L11.3335189,6.50023002 C11.8396686,6.50023002 12.2499752,6.91054837 12.2499752,7.41668634 L12.2499752,16.5832807 C12.2499752,17.0894304 11.8396686,17.499737 11.3335189,17.499737 L2.16692451,17.499737 C1.6607748,17.499737 1.2504682,17.0894186 1.2504682,16.5832807 L1.2504682,7.41668634 C1.2504682,6.91054837 1.66078655,6.50023002 2.16692451,6.50023002 Z" id="路径" fill="url(#linearGradient-2)" fill-rule="nonzero"></path>
                    <path d="M4.11484181,10.344063 C4.34071826,9.86281631 4.70530479,9.46008275 5.16180112,9.18761737 C5.66734029,8.89818602 6.24293896,8.75389889 6.82523009,8.77063005 C7.36491255,8.75892411 7.89744464,8.89573212 8.36466066,9.16610757 C8.80394445,9.42807635 9.15774085,9.81191838 9.38311243,10.2710565 C9.62854966,10.7769831 9.75086908,11.3337724 9.74010243,11.8959862 C9.75199623,12.4835491 9.62614272,13.0657346 9.37261584,13.5959067 C9.14187854,14.0714589 8.77685759,14.4689794 8.32266253,14.7393549 C7.83743557,15.0180196 7.28513136,15.1584204 6.72573549,15.1453407 C6.17452321,15.1586434 5.63024996,15.0202856 5.15230252,14.7453546 C4.70921459,14.4830453 4.35098003,14.0987689 4.12034841,13.6383979 C3.87345528,13.1397861 3.74967996,12.5892665 3.75936642,12.0329703 C3.74908116,11.4504091 3.87060218,10.873061 4.11484181,10.344063 Z M5.23079218,13.0589364 C5.35122127,13.3631734 5.55544702,13.6270325 5.81976404,13.8199045 C6.08898886,14.0080684 6.41136591,14.1051443 6.73971921,14.0968903 C7.08940621,14.1107214 7.43409147,14.0103344 7.72167946,13.8108991 C7.98265025,13.6186376 8.18151029,13.3540622 8.29365012,13.049931 C8.41901049,12.7102827 8.48087467,12.3504865 8.47614298,11.988483 C8.48001756,11.6230159 8.42186359,11.2595448 8.30414671,10.9135328 C8.20017873,10.6011357 8.00772937,10.3256646 7.75017526,10.12057 C7.46979634,9.91169477 7.12603863,9.80575427 6.77671561,9.82058336 C6.44124716,9.8118949 6.1116493,9.90973399 5.83526237,10.10007 C5.56647197,10.2937521 5.35837164,10.5599477 5.23528905,10.8675309 C4.96224835,11.5725759 4.96082767,12.3539032 5.23128531,13.0599344 L5.23079218,13.0589364 Z" id="形状" fill="#FFFFFF" fill-rule="nonzero"></path>
                    <polygon id="路径" fill="#50D9FF" fill-rule="nonzero" points="17.2497607 5.00029672 21.7495606 5.00029672 21.7495606 9.50009663 17.2497607 9.50009663"></polygon>
                </g>
            </g>
        </g>
    </g>
</svg>