<?xml version="1.0" encoding="UTF-8"?>
<svg width="24px" height="24px" viewBox="0 0 24 24" version="1.1" xmlns="http://www.w3.org/2000/svg" xmlns:xlink="http://www.w3.org/1999/xlink">
    <title>编组 8备份 3</title>
    <g id="2022.6" stroke="none" stroke-width="1" fill="none" fill-rule="evenodd">
        <g id="注册-邮箱不支持" transform="translate(-48.000000, -387.000000)">
            <g id="移动端/控件/弹窗/双按钮无标题" transform="translate(24.000000, 113.000000)">
                <g id="编组-8备份-3" transform="translate(24.000000, 274.000000)">
                    <rect id="矩形" fill-opacity="0" fill="#FFFFFF" x="0" y="0" width="24" height="24"></rect>
                    <path d="M12.0000828,5.74668515 C12.955207,5.74668515 16.603731,8.61232266 18.0129996,9.63004861 C19.4222681,10.6479402 19.475165,11.1490524 19.475165,11.1490524 L19.475165,15.8309694 C18.2781184,22.2687475 12.7671598,22.4990115 12.0721811,22.5022991 L12.018463,22.5020839 C12.0123956,22.5019953 12.0078005,22.5018997 12.0047223,22.5018263 C12.0000828,22.5017016 11.9938372,22.5019067 11.9817017,22.5020839 L11.927981,22.5022991 C11.2329693,22.4990115 5.72175447,22.2687475 4.52483504,15.8309694 L4.52483504,11.1490524 C4.52483504,11.1490524 4.57775374,10.6479402 5.987017,9.63004861 C7.39628226,8.61232266 11.0448261,5.74668515 12.0000828,5.74668515 Z M16.2435224,13.2786057 L7.75649086,13.2786057 L7.75649086,15.8309694 C8.57761135,19.0859095 11.6908937,19.2800025 11.978725,19.2910161 L12.0214396,19.2910161 C12.3092569,19.2800025 15.4223893,19.0859095 16.2435224,15.8309694 L16.2435224,13.2786057 Z M18.5244461,1.4979325 C19.4327349,1.4979325 19.475165,2.32263321 19.475165,2.32263321 L19.475165,9.41087616 L19.4348702,9.38208748 C18.9594432,9.04243149 14.4241451,5.80269028 13.7119597,5.30834025 C12.9603741,4.78639384 12.0000828,4.69232557 12.0000828,4.69232557 C12.0000828,4.69232557 11.039659,4.78639384 10.2879078,5.30834025 C9.57587931,5.80269028 5.04055972,9.04243149 4.56513003,9.38208748 L4.52483504,9.41087616 L4.52483504,9.41087616 L4.52483504,2.32263321 C4.52483504,2.32263321 4.56727341,1.4979325 5.47555722,1.4979325 L18.5244461,1.4979325 L18.5244461,1.4979325 Z" id="形状结合" fill="#858BC1" fill-rule="nonzero" transform="translate(12.000000, 12.000000) scale(-1, 1) rotate(-180.000000) translate(-12.000000, -12.000000) "></path>
                </g>
            </g>
        </g>
    </g>
</svg>