<?xml version="1.0" encoding="UTF-8"?>
<svg width="24px" height="24px" viewBox="0 0 24 24" version="1.1" xmlns="http://www.w3.org/2000/svg" xmlns:xlink="http://www.w3.org/1999/xlink">
    <title>编组 8备份 2</title>
    <g id="2022.6" stroke="none" stroke-width="1" fill="none" fill-rule="evenodd">
        <g id="注册-邮箱不支持" transform="translate(-48.000000, -335.000000)">
            <g id="移动端/控件/弹窗/双按钮无标题" transform="translate(24.000000, 113.000000)">
                <g id="编组-8备份-2" transform="translate(24.000000, 222.000000)">
                    <rect id="矩形" fill-opacity="0" fill="#FFFFFF" x="0" y="0" width="24" height="24"></rect>
                    <path d="M10.4755695,6.73977672 L7.88115456,13.2919445 L5.31831739,6.73977672 L0.921678705,6.73977672 L5.7649833,18.1411986 L3.9998292,22.2513487 L8.30951448,22.2513487 L14.7582535,6.73977672 L10.4755695,6.73977672 Z M15.2991952,12.9541992 C13.8276682,12.9541992 12.6347598,14.1471075 12.6347598,15.6186345 C12.6347598,17.0901616 13.8276682,18.2830699 15.2991952,18.2830699 C16.7707222,18.2830699 17.9636306,17.0901616 17.9636306,15.6186345 C17.9636306,14.9119824 17.6829141,14.2342728 17.1832355,13.7345942 C16.6835569,13.2349157 16.0058474,12.9541992 15.2991952,12.9541992 Z M18.2995453,1.74865134 L14.043405,11.9757446 L18.839114,11.9757446 L23.0783213,1.74865134 L18.2995453,1.74865134 Z" id="形状" fill="#AD94FF" fill-rule="nonzero"></path>
                </g>
            </g>
        </g>
    </g>
</svg>