<?xml version="1.0" encoding="UTF-8"?>
<svg width="28px" height="28px" viewBox="0 0 28 28" version="1.1" xmlns="http://www.w3.org/2000/svg"
    xmlns:xlink="http://www.w3.org/1999/xlink">
    <title>切片</title>
    <g id="2022.6" stroke="none" stroke-width="1" fill="none" fill-rule="evenodd">
        <g id="设置-网络-收起" transform="translate(-44.000000, -270.000000)">
            <g id="编组-4" transform="translate(44.000000, 270.000000)">
                <path
                    d="M14,0 C21.7319865,0 28,6.2680135 28,14 C28,21.7319865 21.7319865,28 14,28 C6.2680135,28 0,21.7319865 0,14 C0,6.2680135 6.2680135,0 14,0 Z"
                    id="矩形" fill="#ECB42B"></path>
                <g id="LOGO/BSC" transform="translate(4.666667, 4.666667)">
                    <rect id="矩形备份-6" x="0" y="0" width="18.6666667" height="18.6666667"></rect>
                    <path
                        d="M11.000566,14.8580439 L11.000566,16.7838764 L9.32143095,17.7706667 L7.69004387,16.7838764 L7.69004387,14.8580439 L9.32143095,15.8448341 L11.000566,14.8580439 Z M2.016,8.19720976 L3.64738709,9.184 L3.64738709,12.4865641 L6.45655607,14.1656991 L6.45655607,16.0915317 L2.016,13.4733543 L2.016,8.19720976 L2.016,8.19720976 Z M16.6268619,8.19720976 L16.6268619,13.4813123 L12.1385579,16.0994897 L12.1385579,14.1736571 L14.9477269,12.4945221 L14.9477269,9.19195799 L16.6268619,8.19720976 Z M12.1305999,5.57903244 L13.8097349,6.56582268 L13.8097349,6.56582268 L13.8097349,8.49165524 L11.000566,10.1707902 L11.000566,13.5211023 L9.36917887,14.5078925 L7.74574977,13.5211023 L7.74574977,10.1628323 L4.83312697,8.48369725 L4.83312697,6.55786469 L6.51226197,5.57107445 L9.32143095,7.25020945 L12.1305999,5.57903244 Z M4.83312697,9.86838678 L6.46451406,10.855177 L6.46451406,12.7810096 L4.83312697,11.7942193 L4.83312697,9.86838678 Z M13.8097349,9.86838678 L13.8097349,11.7942193 L12.1783479,12.7810096 L12.1783479,10.855177 L13.8097349,9.86838678 Z M3.64738709,3.89989744 L5.32652209,4.88668767 L3.64738709,5.87347791 L3.64738709,7.79931047 L2.016,6.81252023 L2.016,4.88668767 L3.64738709,3.89989744 Z M14.9954748,3.89989744 L16.6746098,4.88668767 L16.6746098,6.81252023 L14.9954748,7.79931047 L14.9954748,5.87347791 L13.3640877,4.88668767 L14.9954748,3.89989744 Z M9.32143095,3.89989744 L11.000566,4.88668767 L9.32143095,5.87347791 L7.69004387,4.88668767 L9.32143095,3.89989744 Z M9.32143095,0.597333333 L13.8097349,3.21551066 L12.1783479,4.2023009 L9.36917887,2.52316589 L6.50430399,4.2023009 L4.8729169,3.21551066 L9.32143095,0.597333333 Z"
                        id="binancedex" fill="#FFFFFF" fill-rule="nonzero"></path>
                </g>
            </g>
        </g>
    </g>
</svg>