<?xml version="1.0" encoding="UTF-8"?>
<svg width="28px" height="28px" viewBox="0 0 28 28" version="1.1" xmlns="http://www.w3.org/2000/svg" xmlns:xlink="http://www.w3.org/1999/xlink">
    <title>切片</title>
    <g id="2022.6" stroke="none" stroke-width="1" fill="none" fill-rule="evenodd">
        <g id="设置-网络-收起" transform="translate(-44.000000, -130.000000)">
            <g id="编组-4" transform="translate(44.000000, 130.000000)">
                <path d="M14,0 C21.7319865,0 28,6.2680135 28,14 C28,21.7319865 21.7319865,28 14,28 C6.2680135,28 0,21.7319865 0,14 C0,6.2680135 6.2680135,0 14,0 Z" id="矩形" fill="#607DE9"></path>
                <g id="编组-17备份" transform="translate(4.666667, 4.666667)">
                    <rect id="矩形备份-5" x="0" y="0" width="18.6666667" height="18.6666667"></rect>
                    <g id="ethereum-eth-logo" transform="translate(3.733333, 0.000000)" fill-rule="nonzero">
                        <polygon id="路径" fill="#E5E5E5" points="5.72429235 0 5.72429235 12.8815923 11.4484387 9.49800073"></polygon>
                        <polygon id="路径" fill="#FFFFFF" points="5.72429235 0 0 9.49800073 5.72429235 12.8815923 5.72429235 6.89610275"></polygon>
                        <polygon id="路径" fill="#E5E5E5" points="5.72429235 13.9653636 5.72429235 18.6499772 11.4519427 10.5835241"></polygon>
                        <polygon id="路径" fill="#FFFFFF" points="5.72429235 18.6499772 5.72429235 13.9653636 0 10.5835241"></polygon>
                        <polygon id="路径" fill="#CCCCCC" points="5.72429235 12.8815923 11.4484387 9.49800073 5.72429235 6.89610275"></polygon>
                        <polygon id="路径" fill="#E5E5E5" points="0 9.49800073 5.72429235 12.8815923 5.72429235 6.89610275"></polygon>
                    </g>
                </g>
            </g>
        </g>
    </g>
</svg>