<?xml version="1.0" encoding="UTF-8"?>
<svg width="28px" height="28px" viewBox="0 0 28 28" version="1.1" xmlns="http://www.w3.org/2000/svg" xmlns:xlink="http://www.w3.org/1999/xlink">
    <title>切片</title>
    <g id="2022.6" stroke="none" stroke-width="1" fill="none" fill-rule="evenodd">
        <g id="设置-网络-收起" transform="translate(-44.000000, -410.000000)">
            <g id="编组-4" transform="translate(44.000000, 410.000000)">
                <path d="M14,0 C21.7319865,0 28,6.2680135 28,14 C28,21.7319865 21.7319865,28 14,28 C6.2680135,28 0,21.7319865 0,14 C0,6.2680135 6.2680135,0 14,0 Z" id="矩形" fill="#8247E5"></path>
                <g id="LOGO/Polygon" transform="translate(4.666667, 4.666667)">
                    <rect id="矩形" x="0" y="0" width="18.6666667" height="18.6666667"></rect>
                    <path d="M13.7745045,6.38006726 C13.4588882,6.19971513 13.0530959,6.19971513 12.6923917,6.38006726 L10.1674619,7.8679723 L8.45411672,8.81482097 L5.97427498,10.302726 C5.65865875,10.4830781 5.25286647,10.4830781 4.89216222,10.302726 L2.95337685,9.13043719 C2.63776063,8.95008506 2.41232047,8.58938081 2.41232047,8.18358853 L2.41232047,5.92918694 C2.41232047,5.56848269 2.5926726,5.20777844 2.95337685,4.98233828 L4.89216222,3.85513749 C5.20777844,3.67478536 5.61357072,3.67478536 5.97427498,3.85513749 L7.91306034,5.02742631 C8.22867656,5.20777844 8.45411672,5.56848269 8.45411672,5.97427498 L8.45411672,7.46218002 L10.1674619,6.47024332 L10.1674619,4.93725025 C10.1674619,4.57654599 9.98710979,4.21584174 9.62640554,3.99040158 L6.01936301,1.87126409 C5.70374679,1.69091197 5.2979545,1.69091197 4.93725025,1.87126409 L1.24003165,4.03548961 C0.879327399,4.21584174 0.698975272,4.57654599 0.698975272,4.93725025 L0.698975272,9.17552522 C0.698975272,9.53622948 0.879327399,9.89693373 1.24003165,10.1223739 L4.89216222,12.2415114 C5.20777844,12.4218635 5.61357072,12.4218635 5.97427498,12.2415114 L8.45411672,10.7986944 L10.1674619,9.80675767 L12.6473037,8.36394065 C12.9629199,8.18358853 13.3687122,8.18358853 13.7294164,8.36394065 L15.6682018,9.49114144 C15.983818,9.67149357 16.2092582,10.0321978 16.2092582,10.4379901 L16.2092582,12.6923917 C16.2092582,13.0530959 16.028906,13.4138002 15.6682018,13.6392404 L13.7745045,14.7664411 C13.4588882,14.9467933 13.0530959,14.9467933 12.6923917,14.7664411 L10.7536063,13.6392404 C10.4379901,13.4588882 10.21255,13.098184 10.21255,12.6923917 L10.21255,11.2495747 L8.49920475,12.2415114 L8.49920475,13.7294164 C8.49920475,14.0901207 8.67955687,14.4508249 9.04026113,14.6762651 L12.6923917,16.7954026 C13.0080079,16.9757547 13.4138002,16.9757547 13.7745045,16.7954026 L17.426635,14.6762651 C17.7422512,14.495913 17.9676914,14.1352087 17.9676914,13.7294164 L17.9676914,9.44605341 C17.9676914,9.08534916 17.7873393,8.72464491 17.426635,8.49920475 L13.7745045,6.38006726 Z" id="路径" fill="#FFFFFF" fill-rule="nonzero"></path>
                </g>
            </g>
        </g>
    </g>
</svg>