<svg width="25" height="24" viewBox="0 0 25 24" fill="none" xmlns="http://www.w3.org/2000/svg">
<path d="M6.15689 11.9999C6.15689 11.2783 6.27782 10.5861 6.49178 9.93745L2.7355 7.07764C1.98081 8.60458 1.58889 10.2906 1.59132 11.9999C1.59132 13.7688 2.00248 15.4374 2.73364 16.9184L6.48805 14.0539C6.26914 13.392 6.1573 12.6983 6.15689 11.9999" fill="#FBBC05"/>
<path d="M12.7539 5.43481C14.326 5.43481 15.7465 5.98972 16.8628 6.8988L20.1102 3.66683C18.1316 1.95 15.5949 0.889404 12.7539 0.889404C8.34278 0.889404 4.55116 3.40358 2.73535 7.07778L6.49348 9.93759C7.3586 7.31831 9.82557 5.43481 12.7539 5.43481" fill="#EA4335"/>
<path d="M12.7539 18.5653C9.82464 18.5653 7.35767 16.6818 6.49162 14.0625L2.73535 16.9223C4.55023 20.5965 8.34185 23.1107 12.7539 23.1107C15.4758 23.1107 18.0749 22.1476 20.0265 20.3418L16.46 17.5937C15.4544 18.2253 14.1874 18.5653 12.753 18.5653" fill="#34A853"/>
<path d="M23.4087 12.0001C23.4087 11.3438 23.3064 10.6365 23.1548 9.98022H12.7529V14.2728H18.7399C18.4413 15.7368 17.6264 16.8618 16.4608 17.5938L20.0264 20.3418C22.0757 18.446 23.4087 15.6222 23.4087 12.0001" fill="#4285F4"/>
</svg>
