<?xml version="1.0" encoding="UTF-8"?>
<svg width="40px" height="40px" viewBox="0 0 40 40" version="1.1" xmlns="http://www.w3.org/2000/svg" xmlns:xlink="http://www.w3.org/1999/xlink">
    <title>编组 14</title>
    <g id="2022.7" stroke="none" stroke-width="1" fill="none" fill-rule="evenodd">
        <g id="首页" transform="translate(-24.000000, -49.000000)">
            <g id="编组" transform="translate(0.000000, 44.000000)">
                <g id="编组-14" transform="translate(24.000000, 5.000000)">
                    <circle id="椭圆形" stroke="#FFFFFF" fill="#000000" cx="20" cy="20" r="19.5"></circle>
                    <g id="LOGO/UniPass-旧/图案" transform="translate(8.500000, 9.500000)" fill="#FFFFFF" fill-rule="nonzero">
                        <g id="形状结合">
                            <path d="M18.9562642,18.0397813 L19.2474667,18.1095475 L19.3603764,18.1388747 L19.2826593,18.2268563 C19.1246097,18.4081515 18.9605602,18.5840822 18.7907912,18.7543577 L18.531883,19.0054934 L18.5054885,19.0304215 L18.4688295,19.0304215 C15.7244096,18.5198051 12.9259879,19.5283892 11.1379855,21.6528864 L10.9566678,21.8766261 L10.9112106,21.9367468 L10.8686862,21.9924685 L10.8334935,21.9924685 C10.5910553,21.9885582 10.3479655,21.9768273 10.1081342,21.9577103 L9.75131991,21.9235496 L9.63547748,21.9103523 L9.69999731,21.8121062 C9.8246379,21.6097486 9.97127389,21.41179 10.1179099,21.2255623 C12.2066353,18.5391634 15.6514224,17.3070353 18.9562642,18.0397813 Z M17.2062937,19.8266549 L17.3206697,19.8281213 L17.5391574,19.8281213 L17.3617278,19.9542282 C15.9912825,20.929993 14.4167015,21.5773377 12.7598576,21.8485885 L12.3761041,21.9044869 L12.1605492,21.9308814 L12.3174497,21.7842454 C13.6304944,20.5207966 15.384118,19.8186108 17.2062937,19.8266549 Z M15.0664216,16.1827141 C15.163188,16.2524396 15.232758,16.3522984 15.2652075,16.4653119 L15.2824295,16.5522733 L15.2824295,16.5376097 C15.3149224,16.8081967 15.1355239,17.0588457 14.868916,17.1153555 C12.7085807,17.5814489 10.7820449,18.7950107 9.42872073,20.5422386 C9.21902163,20.8129815 9.02382323,21.094552 8.84392072,21.3857589 L8.6691463,21.6801338 L8.64275182,21.7270574 L8.59142922,21.7153265 C8.38613884,21.6693805 8.17824159,21.6175692 7.97555806,21.5598923 L7.67642064,21.468978 L7.58990541,21.4411172 L7.63096349,21.3648665 C7.9102073,20.8504738 8.23145427,20.3600204 8.59142922,19.8985066 C9.96303427,18.1267407 11.8692217,16.8442936 14.0272254,16.241405 C14.2344709,16.1895936 14.4412277,16.1407149 14.6474956,16.094769 C14.7932912,16.0636118 14.9454637,16.0955574 15.0664216,16.1827141 Z M20.901578,14.5995104 L21.269577,14.7383861 L21.3340968,14.7647805 L21.310635,14.8307667 C21.2392722,15.0223711 21.1613922,15.2139754 21.0787329,15.4025385 L20.9513769,15.6827218 L20.923516,15.7443089 L20.8604626,15.7193808 C16.2399309,13.8888845 10.9657374,15.3217648 7.90663915,19.2386446 C7.55078445,19.6957768 7.23071445,20.1794078 6.94917208,20.6852154 L6.7452821,21.0686618 L6.71448854,21.1287825 L6.65290143,21.1009217 C6.46520736,21.0207607 6.27816501,20.9347342 6.09394676,20.8428423 L5.820009,20.7006054 L5.75842189,20.6668791 L5.78921544,20.605292 C6.14976405,19.892498 6.57847459,19.2162845 7.06934764,18.5861144 C8.70993669,16.46529 11.0073019,14.9481523 13.601981,14.2720836 C16.0154633,13.6422196 18.5599348,13.7581289 20.901578,14.5995104 Z M5.63292789,18.0446791 L5.70563293,18.1051484 C5.88353009,18.2876527 5.91107502,18.5673868 5.77161913,18.7782076 C5.58243946,19.0663069 5.40469582,19.3616765 5.23878632,19.6636243 L4.99884745,20.1213933 L4.96365482,20.1947113 L4.8947359,20.1492541 C4.72268301,20.0339005 4.55258526,19.9126814 4.38618056,19.7873348 L4.13956055,19.5964364 L4.09410339,19.5597774 L4.12049787,19.5069885 C4.35182243,19.0533954 4.60784205,18.6128263 4.8874041,18.1872645 C4.97572717,18.0548003 5.11870746,17.9688266 5.27712143,17.9529284 C5.40385261,17.9402099 5.52981528,17.9734081 5.63292789,18.0446791 Z M7.26437351,12.8218537 L7.30103251,12.8350509 C7.61356658,12.9524951 7.93848996,13.0328935 8.2691472,13.0748029 L8.51811123,13.0989957 L8.73513249,13.1136593 L8.55183751,13.2309681 C7.14016756,14.1344711 5.89421345,15.273785 4.86834142,16.5991968 C4.43146132,17.1609965 4.03565365,17.7532786 3.68389208,18.3714161 L3.428376,18.8397947 L3.3843852,18.9248436 L3.31546628,18.857391 C3.16394243,18.7078223 3.01241857,18.5510847 2.86523948,18.3897851 L2.64827253,18.1447401 L2.61601261,18.1066148 L2.63947437,18.0640903 C3.69118024,16.1431347 5.1280615,14.4620252 6.85834704,13.1250406 L7.23357995,12.8438491 L7.26437351,12.8218537 Z M21.463195,12.7519699 L21.7769375,12.8731763 L21.8311928,12.8995707 L21.8209283,12.9567588 C21.8062647,13.0388749 21.7916011,13.1195247 21.7754711,13.2001745 L21.7017865,13.535421 L21.6171043,13.8717673 L21.5951089,13.9509508 L21.5203245,13.9186909 C19.9611913,13.2687525 18.2883952,12.9352898 16.5992207,12.9376961 C16.0560754,12.9378408 15.5134607,12.9716318 14.9744939,13.0388749 C11.8113072,13.4253934 8.90536322,14.9758575 6.82299918,17.3880984 C6.72692435,17.5000935 6.58856749,17.567044 6.44112551,17.572886 C6.32317193,17.5775596 6.20792022,17.5427864 6.11296466,17.4754205 L6.04582843,17.418892 L5.98571476,17.3483111 C5.84429509,17.1496686 5.85417431,16.8744111 6.02090031,16.685712 C9.85264444,12.2760172 16.0110372,10.7201445 21.463195,12.7519699 Z M20.061085,16.338768 L20.4410836,16.4672244 L20.5231998,16.4965516 L20.479209,16.5713359 C20.3716759,16.7531646 20.2595808,16.9317346 20.1420548,17.1070461 L19.9615839,17.3675694 L19.929324,17.4130265 L19.8794678,17.3954302 C19.0382601,17.1158135 18.1624081,16.9565181 17.2778914,16.9217355 L16.8983581,16.9144642 L16.5566962,16.9144642 C16.3094197,16.9242844 16.0925472,16.7632515 16.0249365,16.5331075 L16.0068113,16.4437626 L16.0044688,16.356714 C16.0108733,16.2413698 16.0549321,16.1303851 16.1311672,16.0414812 C16.2264612,15.9303512 16.3635213,15.8636458 16.5097727,15.8572187 C17.7134185,15.8123385 18.9147596,15.9755812 20.061085,16.338768 Z M5.52820338,11.5813132 L5.57219418,11.6370349 C5.72389968,11.8094889 5.88870228,11.9698039 6.06507732,12.1165717 L6.24525337,12.2587715 L6.32150409,12.3144931 L6.24671973,12.3716812 L6.24671973,12.3614166 C4.66671389,13.5914424 3.32344242,15.0965321 2.28083419,16.8030503 L2.04559861,17.2004043 L1.98841057,17.2986504 L1.92389073,17.2048034 C1.79289591,17.0180869 1.66711482,16.8228981 1.54828536,16.6244507 L1.37547213,16.3249875 L1.35494309,16.2883285 L1.37693849,16.2516695 C1.72155026,15.6900875 2.09651705,15.1477073 2.50017018,14.6269427 C3.25926109,13.6492754 4.11896137,12.7547142 5.06481569,11.957857 L5.47541442,11.6223713 L5.52820338,11.5813132 Z M2.23630903,12.0807515 C2.35324472,12.0772012 2.46722859,12.1122634 2.56124293,12.1792185 L2.62774349,12.2353097 C2.82496116,12.4360323 2.8326979,12.7583964 2.64240709,12.9684896 C2.35402297,13.2871785 2.07736974,13.6175983 1.81244738,13.9597489 C1.61302243,14.2168507 1.41620435,14.4850316 1.22503446,14.7603814 L0.942895956,15.178294 L0.868111601,15.2926701 L0.816789004,15.1665631 C0.720058657,14.9299236 0.631476176,14.6900751 0.55119008,14.447442 L0.437001789,14.0814568 L0.426737269,14.0477305 L0.447266308,14.0198697 C0.623229497,13.7720549 0.800659045,13.5315718 0.975155874,13.3072188 C1.25767455,12.9474718 1.55094653,12.5979894 1.85497182,12.2587715 C1.95223356,12.149568 2.09013942,12.0851892 2.23630903,12.0807515 Z M4.51348233,7.32886945 L4.51348233,8.60166985 L4.48415513,8.62219889 C3.04272699,9.64723914 1.74480522,10.8591297 0.624144986,12.2255089 L0.293298518,12.640025 L0.146662527,12.8247864 L0.120268049,12.6590877 C0.0757226739,12.3677136 0.0430276633,12.0747122 0.0222490069,11.7808075 L2.65368064e-05,11.3393638 L2.65368064e-05,11.311503 L0.0234882953,11.2880412 C1.1653869,9.9421169 2.4736389,8.74782432 3.91623996,7.73356648 L4.40203897,7.40218744 L4.51348233,7.32886945 Z M21.4994125,10.7282548 L21.9485016,10.8891913 L21.9954251,10.9067876 L21.9954251,10.9977019 C21.9954251,11.2010372 21.9895597,11.4089344 21.9778288,11.6183523 L21.9558334,11.9332396 L21.9470352,12.0300193 L21.8575873,11.9933603 C20.137226,11.3011285 18.2996586,10.9466587 16.4452529,10.9493121 C15.199368,10.9479883 13.9589231,11.1038785 12.7532334,11.4128318 L12.3027861,11.535856 L12.0930967,11.5959768 L12.2265354,11.4229463 C12.4300677,11.1572283 12.6016656,10.8688594 12.7380111,10.5638028 L12.8336084,10.3319745 L12.848272,10.2967819 L12.884931,10.2879837 C13.4087258,10.1678755 13.9382724,10.0743973 14.4715324,10.007909 C16.8405136,9.71111023 19.2438462,9.95838067 21.4994125,10.7282548 Z M4.61172844,9.73076697 L4.63812292,9.83634489 C4.69423427,10.0669577 4.76968625,10.2922823 4.86360831,10.5099421 L4.96365482,10.724959 L4.98565022,10.7777479 L4.94019306,10.8129406 C4.57164794,11.1023023 4.21483369,11.4063276 3.86975033,11.7250164 C3.6837807,11.8945679 3.40889643,11.908831 3.20808441,11.7707394 L3.13657037,11.7118192 L3.08082973,11.6460867 C3.01420014,11.553156 2.97888976,11.44046 2.98154795,11.3246073 C2.98487068,11.1797914 3.04723065,11.0426236 3.15416669,10.944913 C3.44678696,10.6751028 3.74722781,10.4150683 4.05548925,10.1648095 L4.52374685,9.79675317 L4.61172844,9.73076697 Z M21.3604913,8.6544588 L21.6554129,8.74702277 L21.9470352,8.84508559 L21.9924924,8.86268191 L21.9924924,9.99031268 L21.8957126,9.95512004 C21.6161267,9.85247485 21.3340968,9.75765024 21.049623,9.67064622 C20.8389511,9.60599282 20.6931555,9.41988988 20.6753245,9.20635152 L20.6757012,9.11342945 L20.6927811,9.01998039 C20.7264155,8.8986477 20.8024791,8.79209051 20.9087805,8.72084358 C21.0416571,8.63178491 21.2076098,8.60739601 21.3604913,8.6544588 Z M4.02958356,5.22317662 L4.06917527,5.27596558 C4.2246553,5.48463252 4.34193308,5.71859293 4.41613117,5.96696772 L4.46362609,6.15578152 L4.47389061,6.19977232 L4.43136617,6.2261668 C3.02448819,7.09667851 1.72419089,8.12743612 0.556348615,9.29731375 L0.124667129,9.74249785 L2.65368064e-05,9.87300388 L2.65368064e-05,8.35532138 L0.0220219354,8.3362587 C1.07033972,7.3117273 2.2162587,6.39284588 3.44314485,5.59257599 L3.97386188,5.2569029 L4.02958356,5.22317662 Z M19.5510032,8.20281995 C19.789274,8.24937826 19.9612891,8.45027837 19.977603,8.68523157 L19.9762475,8.77470032 C19.962306,8.92765635 19.8864844,9.06348607 19.7673514,9.15332407 C19.6482184,9.24316207 19.4967759,9.27871183 19.3501119,9.25126728 C18.3420604,9.05707595 17.3178703,8.9588794 16.2912851,8.9579953 C15.6049864,8.95891158 14.9193928,9.00200604 14.2383812,9.08703498 C14.0125618,9.1153846 13.7802252,9.14959966 13.5439783,9.18924569 L13.1870012,9.25273364 L13.0946205,9.27179632 L13.0946205,9.17648293 C13.1053738,9.09241163 13.1089582,9.00964376 13.110153,8.92904827 L13.1107505,8.19108907 L13.1708712,8.18082455 C13.4861386,8.11923744 13.7984732,8.07084756 14.099077,8.03418856 C15.9139135,7.80266926 17.7539443,7.85958253 19.5510032,8.20281995 Z M21.4468088,6.6629939 L21.9455689,6.81564348 L21.9954251,6.83177344 L21.9954251,7.94767333 L21.9001117,7.91541341 C20.0445341,7.28599108 18.0982069,6.96548364 16.1387837,6.96667855 C15.3764087,6.96803277 14.6148627,7.01700679 13.858594,7.11331454 C13.7079255,7.13201063 13.5514833,7.15400603 13.3762762,7.1811566 L13.194333,7.2100943 L13.1107505,7.22329154 L13.1107505,6.14698336 L13.1723376,6.13818521 C13.377628,6.10592529 13.5594566,6.08099717 13.728088,6.05900177 C16.3170071,5.72818079 18.9444298,5.93453115 21.4468088,6.6629939 Z M2.25675443,4.36828052 L2.42900283,4.37465169 C2.60069359,4.38758988 2.77034149,4.42015833 2.93461711,4.47171968 L3.09697866,4.52958839 L3.22748469,4.58237735 L3.10870954,4.6571617 C2.22854454,5.21940242 1.38778415,5.84064041 0.592171768,6.51651033 L0.120268049,6.92855319 L1.31673117e-05,7.03559747 L1.31673117e-05,6.62501669 C-0.00172625394,6.11826778 0.168916536,5.62598918 0.483925306,5.22904206 C0.910476558,4.68404418 1.56468135,4.36641124 2.25675443,4.36828052 Z M21.3458277,4.62930086 C21.4660692,4.66156078 21.5928279,4.69707928 21.730014,4.73715978 L21.9441025,4.80086497 L21.9939588,4.81552857 L21.9939588,5.92116394 L21.9001117,5.89183674 C19.985819,5.28858028 17.9904455,4.98198013 15.9833495,4.9826936 C15.3583099,4.98312926 14.7337442,5.01271389 14.1116854,5.07131953 L13.4905377,5.13959411 L13.2691173,5.16892131 L13.1136832,5.19091671 L13.1136832,4.44014043 L13.1180823,4.31366689 L13.1224813,4.17619565 L13.1224813,4.11754126 L13.251521,4.09994494 L13.3556326,4.08528134 C16.0291555,3.74837331 18.7426433,3.93312354 21.3458277,4.62930086 Z M15.659284,1.00885826 C17.3860841,1.00911462 19.107472,1.20191007 20.7915436,1.58367134 L21.0114976,1.63352758 L20.8648616,1.46636255 C20.0226573,0.532011505 18.8234545,-0.000967488426 17.5655518,1.31846772e-06 C17.4863684,1.31846772e-06 17.407185,1.31846772e-06 17.3221361,0.00733444006 C16.4379838,0.0502360122 15.5872306,0.358346636 14.8806469,0.891549463 L14.7002846,1.02352185 L14.926104,1.02352185 C15.1709861,1.01325734 15.4173346,1.00885826 15.659284,1.00885826 Z M15.1489907,2.54853616 C15.1628274,2.39471669 15.109174,2.24247099 15.0019557,2.1313129 C14.8947374,2.02015482 14.7445261,1.96104471 14.5903076,1.96932399 C14.3483582,1.98105487 14.1049425,1.99865119 13.8571276,2.01918023 L13.8204686,2.01918023 L13.801406,2.04850743 C13.6097481,2.3583707 13.4561388,2.6902062 13.3439017,3.036834 L13.308709,3.14241192 L13.4201524,3.13068104 C13.8307332,3.08522388 14.2427803,3.0514976 14.6533611,3.02803585 C14.9165745,3.01530878 15.1303445,2.81091462 15.1548562,2.54853616 L15.1489907,2.54853616 Z M21.9470352,3.78174484 C21.8921784,3.42213211 21.793695,3.07054609 21.6537633,2.73476386 L21.6390997,2.70250395 L21.6053734,2.69370579 C19.9158876,2.24386591 18.1797437,1.99240063 16.4320556,1.94439588 C16.1533863,1.93778091 15.9170711,2.14783888 15.8909688,2.42536192 L15.8909688,2.42536192 C15.8753647,2.57275313 15.9220935,2.71995582 16.0198513,2.83136076 C16.1176092,2.94276571 16.257492,3.00822582 16.4056612,3.01190589 C18.0791889,3.05930319 19.7415049,3.30141672 21.3590249,3.73335496 C21.5173918,3.7758794 21.6786914,3.82133655 21.8531882,3.87265915 L21.9602325,3.90345271 L21.9470352,3.78174484 Z"></path>
                        </g>
                    </g>
                </g>
            </g>
        </g>
    </g>
</svg>