<?xml version="1.0" encoding="UTF-8"?>
<svg width="102px" height="102px" viewBox="0 0 102 102" version="1.1" xmlns="http://www.w3.org/2000/svg" xmlns:xlink="http://www.w3.org/1999/xlink">
    <title>切片</title>
    <defs>
        <linearGradient x1="50%" y1="50%" x2="0%" y2="0%" id="linearGradient-1">
            <stop stop-color="#55DFAE" offset="0%"></stop>
            <stop stop-color="#77F9C8" offset="100%"></stop>
        </linearGradient>
        <path d="M15.3833112,-6.21504185e-16 L84.6166888,6.21504185e-16 C89.9658012,-3.61111829e-16 91.9055187,0.556953667 93.8610742,1.60279622 C95.8166298,2.64863878 97.3513612,4.18337022 98.3972038,6.13892578 C99.4430463,8.09448133 100,10.0341988 100,15.3833112 L100,84.6166888 C100,89.9658012 99.4430463,91.9055187 98.3972038,93.8610742 C97.3513612,95.8166298 95.8166298,97.3513612 93.8610742,98.3972038 C91.9055187,99.4430463 89.9658012,100 84.6166888,100 L15.3833112,100 C10.0341988,100 8.09448133,99.4430463 6.13892578,98.3972038 C4.18337022,97.3513612 2.64863878,95.8166298 1.60279622,93.8610742 C0.556953667,91.9055187 2.4074122e-16,89.9658012 -4.14336123e-16,84.6166888 L4.14336123e-16,15.3833112 C-2.4074122e-16,10.0341988 0.556953667,8.09448133 1.60279622,6.13892578 C2.64863878,4.18337022 4.18337022,2.64863878 6.13892578,1.60279622 C8.09448133,0.556953667 10.0341988,3.61111829e-16 15.3833112,-6.21504185e-16 Z" id="path-2"></path>
        <filter x="-2.5%" y="-2.5%" width="105.0%" height="105.0%" filterUnits="objectBoundingBox" id="filter-3">
            <feGaussianBlur stdDeviation="2" in="SourceAlpha" result="shadowBlurInner1"></feGaussianBlur>
            <feOffset dx="1" dy="1" in="shadowBlurInner1" result="shadowOffsetInner1"></feOffset>
            <feComposite in="shadowOffsetInner1" in2="SourceAlpha" operator="arithmetic" k2="-1" k3="1" result="shadowInnerInner1"></feComposite>
            <feColorMatrix values="0 0 0 0 1   0 0 0 0 1   0 0 0 0 1  0 0 0 0.5 0" type="matrix" in="shadowInnerInner1"></feColorMatrix>
        </filter>
    </defs>
    <g id="2022.6" stroke="none" stroke-width="1" fill="none" fill-rule="evenodd">
        <g id="注册-铸造钥匙" transform="translate(-48.000000, -512.000000)">
            <g id="编组-9" transform="translate(24.000000, 488.000000)">
                <g id="移动端/图标/钥匙蓝图/蓝图2" transform="translate(24.000000, 24.000000)">
                    <g id="背景">
                        <path d="M17.3833112,2 L86.6166888,2 C91.9658012,2 93.9055187,2.55695367 95.8610742,3.60279622 C97.8166298,4.64863878 99.3513612,6.18337022 100.397204,8.13892578 C101.443046,10.0944813 102,12.0341988 102,17.3833112 L102,86.6166888 C102,91.9658012 101.443046,93.9055187 100.397204,95.8610742 C99.3513612,97.8166298 97.8166298,99.3513612 95.8610742,100.397204 C93.9055187,101.443046 91.9658012,102 86.6166888,102 L17.3833112,102 C12.0341988,102 10.0944813,101.443046 8.13892578,100.397204 C6.18337022,99.3513612 4.64863878,97.8166298 3.60279622,95.8610742 C2.55695367,93.9055187 2,91.9658012 2,86.6166888 L2,17.3833112 C2,12.0341988 2.55695367,10.0944813 3.60279622,8.13892578 C4.64863878,6.18337022 6.18337022,4.64863878 8.13892578,3.60279622 C10.0944813,2.55695367 12.0341988,2 17.3833112,2 Z" id="矩形" fill="#1F202A"></path>
                        <g id="矩形">
                            <use fill="url(#linearGradient-1)" fill-rule="evenodd" xlink:href="#path-2"></use>
                            <use fill="black" fill-opacity="1" filter="url(#filter-3)" xlink:href="#path-2"></use>
                        </g>
                        <path d="M10,87.2229678 L22.7770322,100 L88,100 C94.627417,100 100,94.627417 100,88 L100,26.599885 L100,26.599885 L83.5621166,10.2281442 L10,87.2229678 Z" id="路径-2" fill-opacity="0.096272" fill="#000000"></path>
                        <polygon id="路径" fill="#3F4F61" fill-rule="nonzero" points="87.6620015 34.8638804 89.5628834 15.9969325 83.5621166 10.2281442 61.0429448 11.7551764 42.322661 10 12.9246549 10 10 21.9929064 11.4628067 43.1997699 10 59.7268021 10 87.2229678 22.5776457 89.5628834 51.5366181 87.9543712 73.3282209 89.5628834 86.0525307 89.5628834 89.5628834 83.7154908 88.3924463 71.5730445 89.5628834 58.556365"></polygon>
                        <path d="M12.9256135,10 L15.5578988,20.5300997 L11.4628067,43.1997699 L10,21.9929064 M10.6873083,51.9583972 L12.7789494,80.4946319 L22.5776457,89.5628834 L10,87.2229678 L10,59.7268021 M34.132477,10 L44.6625767,14.2417561 L69.2254601,11.2001534" id="形状" fill="#64717E" fill-rule="nonzero"></path>
                        <path d="M50.888612,87.989839 L78.544862,87.0763037 L86.0525307,89.5628834 L73.3282209,89.5628834 M87.6610429,34.8638804 L86.8807515,54.6079371 L86.8807515,73.7672546 L89.5628834,83.712615 L89.5628834,47.0024923 L88.4950153,26.599885" id="形状" fill="#303B4F" fill-rule="nonzero"></path>
                        <polygon id="路径" fill="#1F2C39" fill-rule="nonzero" points="46.0659509 88.2582439 29.8955138 72.0906825 35.7036043 56.837615 46.7216258 55.6671779 54.3675353 46.577377 47.9662719 39.9798 62.9144088 25.0316631 87.163743 49.2496688 89.5628834 83.712615 86.0525307 89.5628834 78.544862 87.0763037"></polygon>
                    </g>
                    <g id="钥匙" transform="translate(29.000000, 21.500000)">
                        <polygon id="路径" fill="#F9C450" fill-rule="nonzero" points="32.3558215 13.8191968 27.5015271 8.96298512 24.0074703 12.4570419 28.8627234 17.3122949 12.7248783 33.45014 14.9871482 35.71241 40.4645255 10.0893271 38.2758834 7.90098293"></polygon>
                        <path d="M40.4645255,10.0893271 L14.9871482,35.71241 L17.1899857,37.9152474 L33.3276626,21.7767549 L38.1861992,26.6352915 L41.6767519,23.1382099 L36.8214616,18.2829196 L39.2485653,15.8557289 L42.7392571,12.3640587 L40.4645255,10.0893271 Z M2.80827553,47.8989514 L0.121350688,50.5858762 L19.6104228,50.5858762 L16.9225393,47.8989514 L2.80827553,47.8989514 Z" id="形状" fill="#D1782F" fill-rule="nonzero"></path>
                        <polygon id="路径" fill="#F9C450" fill-rule="nonzero" points="0.121350688 31.0968041 2.80827553 33.783729 16.9043261 33.783729 19.5768722 31.0968041"></polygon>
                        <polygon id="路径" fill="#D1782F" fill-rule="nonzero" points="16.9043261 33.783729 16.9225393 33.783729 16.9225393 47.8989514 19.6104228 50.5858762 19.6104228 31.0968041 19.5768722 31.0968041 16.9043261 33.783729"></polygon>
                        <path d="M2.80827553,33.783729 L0.121350688,31.0968041 L0.121350688,50.5858762 L2.80827553,47.8989514 L2.80827553,33.783729 L2.80827553,33.783729 Z M5.93039977,44.7758686 L2.80827553,47.8989514 L16.9225393,47.8989514 L13.8004151,44.7758686 L5.93039977,44.7758686 Z" id="形状" fill="#F9C450" fill-rule="nonzero"></path>
                        <polygon id="路径" fill="#D1782F" fill-rule="nonzero" points="2.80827553 33.783729 5.93039977 36.9068118 13.8004151 36.9068118 16.9043261 33.783729"></polygon>
                        <polygon id="路径" fill="#F9C450" fill-rule="nonzero" points="13.8004151 36.9068118 13.8004151 44.7758686 16.9225393 47.8989514 16.9225393 33.783729 16.9043261 33.783729 13.8004151 36.9068118"></polygon>
                        <path d="M5.93039977,36.9068118 L2.80827553,33.783729 L2.80827553,47.8989514 L5.93039977,44.7758686 L5.93039977,36.9068118 Z M27.5015271,8.96298512 L32.3558215,13.8191968 L30.5623016,15.5925863 L25.7181307,10.7448988 L27.5015271,8.96298512 Z" id="形状" fill="#D1782F" fill-rule="nonzero"></path>
                        <polygon id="路径备份" fill="#A65A1B" fill-rule="nonzero" points="35.1085582 19.9986516 39.9628527 24.8548633 38.1830436 26.6384471 33.3251619 21.7805653"></polygon>
                        <polygon id="路径-6" fill="#D1782F" points="30.3827457 0 33.9144088 3.53166311 18.9662719 18.4798 15.4374538 14.9509818"></polygon>
                        <polygon id="路径-6备份" fill="#A65A1B" points="47.1024272 16.7196815 50.6340903 20.2513447 35.6859535 35.1994815 32.1571353 31.6706634"></polygon>
                        <polygon id="路径-6" fill="#F9C450" points="30.3827457 0 32.1485772 1.76583156 17.2018629 16.7153909 15.4374538 14.9509818"></polygon>
                        <polygon id="路径-6备份-2" fill="#D1782F" points="47.1024272 16.7196815 48.8682588 18.4855131 33.9215444 33.4350724 32.1571353 31.6706634"></polygon>
                    </g>
                    <polygon id="未解锁" fill="#000000" transform="translate(49.292938, 46.792938) scale(-1, 1) rotate(-90.000000) translate(-49.292938, -46.792938) " points="24 66.9645255 43.4890721 66.9645255 43.4890721 52.0065266 57.2735813 38.2226735 61.6375528 42.5903128 56.1060763 48.1196043 59.6348944 51.6484224 74.5858762 36.7031305 71.0542131 33.1714674 65.1245886 39.0827689 60.7666794 34.7300547 66.6848933 28.8099928 64.4965491 26.6213507 37.6790644 53.2854611 37.6790644 61.1545179 29.8090491 61.1545179"></polygon>
                </g>
            </g>
        </g>
    </g>
</svg>