<?xml version="1.0" encoding="UTF-8"?>
<svg width="130px" height="130px" viewBox="0 0 130 130" version="1.1" xmlns="http://www.w3.org/2000/svg" xmlns:xlink="http://www.w3.org/1999/xlink">
    <title>切片</title>
    <defs>
        <linearGradient x1="50%" y1="50%" x2="0%" y2="0%" id="linearGradient-1">
            <stop stop-color="#64ABFF" offset="0%"></stop>
            <stop stop-color="#7CE1FF" offset="100%"></stop>
        </linearGradient>
        <filter x="-109.1%" y="-109.1%" width="318.2%" height="318.2%" filterUnits="objectBoundingBox" id="filter-2">
            <feGaussianBlur stdDeviation="40" in="SourceGraphic"></feGaussianBlur>
        </filter>
        <path d="M15.3833112,-6.21504185e-16 L112.067669,6.21504185e-16 C117.416782,-3.61111829e-16 119.356499,0.556953667 121.312055,1.60279622 C123.26761,2.64863878 124.802342,4.18337022 125.848184,6.13892578 C126.894027,8.09448133 127.45098,10.0341988 127.45098,15.3833112 L127.45098,112.067669 C127.45098,117.416782 126.894027,119.356499 125.848184,121.312055 C124.802342,123.26761 123.26761,124.802342 121.312055,125.848184 C119.356499,126.894027 117.416782,127.45098 112.067669,127.45098 L15.3833112,127.45098 C10.0341988,127.45098 8.09448133,126.894027 6.13892578,125.848184 C4.18337022,124.802342 2.64863878,123.26761 1.60279622,121.312055 C0.556953667,119.356499 2.4074122e-16,117.416782 -4.14336123e-16,112.067669 L4.14336123e-16,15.3833112 C-2.4074122e-16,10.0341988 0.556953667,8.09448133 1.60279622,6.13892578 C2.64863878,4.18337022 4.18337022,2.64863878 6.13892578,1.60279622 C8.09448133,0.556953667 10.0341988,3.61111829e-16 15.3833112,-6.21504185e-16 Z" id="path-3"></path>
        <filter x="-2.0%" y="-2.0%" width="103.9%" height="103.9%" filterUnits="objectBoundingBox" id="filter-4">
            <feGaussianBlur stdDeviation="2" in="SourceAlpha" result="shadowBlurInner1"></feGaussianBlur>
            <feOffset dx="1" dy="1" in="shadowBlurInner1" result="shadowOffsetInner1"></feOffset>
            <feComposite in="shadowOffsetInner1" in2="SourceAlpha" operator="arithmetic" k2="-1" k3="1" result="shadowInnerInner1"></feComposite>
            <feColorMatrix values="0 0 0 0 1   0 0 0 0 1   0 0 0 0 1  0 0 0 0.5 0" type="matrix" in="shadowInnerInner1"></feColorMatrix>
        </filter>
    </defs>
    <g id="2022.6" stroke="none" stroke-width="1" fill="none" fill-rule="evenodd">
        <g id="注册-铸造钥匙-验证成功" transform="translate(-130.000000, -262.000000)">
            <g id="编组-6" transform="translate(24.000000, 230.000000)">
                <g id="移动端/图标/钥匙蓝图/蓝图1-成功" transform="translate(106.000000, 32.000000)">
                    <g id="背景">
                        <path d="M24.1088014,8.7254902 L103.342179,8.7254902 C108.691291,8.7254902 110.631009,9.28244386 112.586564,10.3282864 C114.54212,11.374129 116.076851,12.9088604 117.122694,14.864416 C118.168537,16.8199715 118.72549,18.759689 118.72549,24.1088014 L118.72549,103.342179 C118.72549,108.691291 118.168537,110.631009 117.122694,112.586564 C116.076851,114.54212 114.54212,116.076851 112.586564,117.122694 C110.631009,118.168537 108.691291,118.72549 103.342179,118.72549 L24.1088014,118.72549 C18.759689,118.72549 16.8199715,118.168537 14.864416,117.122694 C12.9088604,116.076851 11.374129,114.54212 10.3282864,112.586564 C9.28244386,110.631009 8.7254902,108.691291 8.7254902,103.342179 L8.7254902,24.1088014 C8.7254902,18.759689 9.28244386,16.8199715 10.3282864,14.864416 C11.374129,12.9088604 12.9088604,11.374129 14.864416,10.3282864 C16.8199715,9.28244386 18.759689,8.7254902 24.1088014,8.7254902 Z" id="矩形" fill="url(#linearGradient-1)" filter="url(#filter-2)"></path>
                        <path d="M17.9323308,2.54901961 L114.616689,2.54901961 C119.965801,2.54901961 121.905519,3.10597327 123.861074,4.15181583 C125.81663,5.19765839 127.351361,6.73238983 128.397204,8.68794539 C129.443046,10.6435009 130,12.5832184 130,17.9323308 L130,114.616689 C130,119.965801 129.443046,121.905519 128.397204,123.861074 C127.351361,125.81663 125.81663,127.351361 123.861074,128.397204 C121.905519,129.443046 119.965801,130 114.616689,130 L17.9323308,130 C12.5832184,130 10.6435009,129.443046 8.68794539,128.397204 C6.73238983,127.351361 5.19765839,125.81663 4.15181583,123.861074 C3.10597327,121.905519 2.54901961,119.965801 2.54901961,114.616689 L2.54901961,17.9323308 C2.54901961,12.5832184 3.10597327,10.6435009 4.15181583,8.68794539 C5.19765839,6.73238983 6.73238983,5.19765839 8.68794539,4.15181583 C10.6435009,3.10597327 12.5832184,2.54901961 17.9323308,2.54901961 Z" id="矩形" fill="#1F202A"></path>
                        <g id="矩形">
                            <use fill="url(#linearGradient-1)" fill-rule="evenodd" xlink:href="#path-3"></use>
                            <use fill="black" fill-opacity="1" filter="url(#filter-4)" xlink:href="#path-3"></use>
                        </g>
                        <path d="M12.745098,111.166528 L29.0295509,127.45098 L115.45098,127.45098 C122.078397,127.45098 127.45098,122.078397 127.45098,115.45098 L127.45098,33.9018142 L127.45098,33.9018142 L106.500737,13.03587 L12.745098,111.166528 Z" id="路径-2" fill-opacity="0.096272" fill="#000000"></path>
                        <polygon id="路径" fill="#3F4F61" fill-rule="nonzero" points="111.72608 44.4343573 114.148773 20.3882473 106.500737 13.03587 77.7998316 14.9820875 53.9406464 12.745098 16.4725994 12.745098 12.745098 28.0301749 14.6094596 55.0585303 12.745098 76.1223949 12.745098 111.166528 28.7754308 114.148773 65.683925 112.098708 93.4575364 114.148773 109.674794 114.148773 114.148773 106.696214 112.657039 91.2205469 114.148773 74.6306613"></polygon>
                        <path d="M16.4738211,12.745098 L19.8286945,26.1658133 L14.6094596,55.0585303 L12.745098,28.0301749 M13.6210792,66.2214867 L16.2868963,102.591198 L28.7754308,114.148773 L12.745098,111.166528 L12.745098,76.1223949 M43.5021766,12.745098 L56.9228919,18.1512578 L88.2285276,14.2747053" id="形状" fill="#64717E" fill-rule="nonzero"></path>
                        <path d="M64.8580349,112.143912 L100.106197,110.979603 L109.674794,114.148773 L93.4575364,114.148773 M111.724859,44.4343573 L110.73037,69.5983512 L110.73037,94.0170892 L114.148773,106.692549 L114.148773,59.9051373 L112.787765,33.9018142" id="形状" fill="#303B4F" fill-rule="nonzero"></path>
                        <polygon id="路径" fill="#1F2C39" fill-rule="nonzero" points="64.7361486 103.881324 47.1723138 86.3174894 58.3507311 75.1486458 46.4245588 57.9635452 52.7850031 31.0273908 60.9996654 42 68.8189754 31.0273908 76.9682502 42 82.9163036 31.0273908 111.091045 62.7691857 114.148773 106.692549 109.674794 114.148773 100.106197 110.979603 73.2906603 111.955447"></polygon>
                    </g>
                    <g id="钥匙" transform="translate(65.000000, 58.401961) rotate(-45.000000) translate(-65.000000, -58.401961) translate(32.500000, 25.901961)">
                        <polygon id="路径" fill="#F9C450" fill-rule="nonzero" points="41.2378118 17.6127018 35.0509659 11.4234124 30.5977563 15.876622 36.7858239 22.0646896 16.2179821 42.6325314 19.1012674 45.5158166 51.5724345 12.8589464 48.7829886 10.0698802"></polygon>
                        <path d="M51.5724345,12.8589464 L19.1012674,45.5158166 L21.9088052,48.3233545 L42.4764328,27.7546876 L48.6686853,33.9469401 L53.1174289,29.4898754 L46.9293138,23.3017603 L50.0226813,20.2082819 L54.4716022,15.7581141 L51.5724345,12.8589464 Z M3.5791747,61.0476831 L0.154662642,64.4721952 L24.9936761,64.4721952 L21.5679423,61.0476831 L3.5791747,61.0476831 Z" id="形状" fill="#D1782F" fill-rule="nonzero"></path>
                        <polygon id="路径" fill="#F9C450" fill-rule="nonzero" points="0.154662642 39.6331817 3.5791747 43.0576938 21.5447294 43.0576938 24.9509155 39.6331817"></polygon>
                        <polygon id="路径" fill="#D1782F" fill-rule="nonzero" points="21.5447294 43.0576938 21.5679423 43.0576938 21.5679423 61.0476831 24.9936761 64.4721952 24.9936761 39.6331817 24.9509155 39.6331817 21.5447294 43.0576938"></polygon>
                        <path d="M3.5791747,43.0576938 L0.154662642,39.6331817 L0.154662642,64.4721952 L3.5791747,61.0476831 L3.5791747,43.0576938 L3.5791747,43.0576938 Z M7.55835265,57.0672835 L3.5791747,61.0476831 L21.5679423,61.0476831 L17.5887643,57.0672835 L7.55835265,57.0672835 Z" id="形状" fill="#F9C450" fill-rule="nonzero"></path>
                        <polygon id="路径" fill="#D1782F" fill-rule="nonzero" points="3.5791747 43.0576938 7.55835265 47.0380935 17.5887643 47.0380935 21.5447294 43.0576938"></polygon>
                        <polygon id="路径" fill="#F9C450" fill-rule="nonzero" points="17.5887643 47.0380935 17.5887643 57.0672835 21.5679423 61.0476831 21.5679423 43.0576938 21.5447294 43.0576938 17.5887643 47.0380935"></polygon>
                        <path d="M7.55835265,47.0380935 L3.5791747,43.0576938 L3.5791747,61.0476831 L7.55835265,57.0672835 L7.55835265,47.0380935 Z M35.0509659,11.4234124 L41.2378118,17.6127018 L38.951953,19.8729042 L32.7780097,13.6944788 L35.0509659,11.4234124 Z" id="形状" fill="#D1782F" fill-rule="nonzero"></path>
                        <polygon id="路径备份" fill="#A65A1B" fill-rule="nonzero" points="44.7462016 25.4884776 50.9330475 31.677767 48.6646635 33.950962 42.4732455 27.759544"></polygon>
                        <polygon id="路径-6" fill="#D1782F" points="38.7231072 0 43.2242465 4.50113926 24.1726995 23.5526862 19.6751862 19.0551729"></polygon>
                        <polygon id="路径-6备份" fill="#A65A1B" points="60.0325053 21.309398 64.5336446 25.8105373 45.4820976 44.8620843 40.9845843 40.364571"></polygon>
                        <polygon id="路径-6" fill="#F9C450" points="38.7231072 0 40.9736769 2.25056963 21.9239429 21.3039296 19.6751862 19.0551729"></polygon>
                        <polygon id="路径-6备份-2" fill="#D1782F" points="60.0325053 21.309398 62.2830749 23.5599677 43.2333409 42.6133276 40.9845843 40.364571"></polygon>
                        <polygon id="未解锁" fill="#000000" points="0.154662642 64.4721952 24.9936761 64.4721952 24.9936761 45.4080788 42.5621682 27.840423 48.0194765 33.3189849 40.9845843 40.364571 45.4820976 44.8620843 64.5336446 25.8050688 60.0325053 21.3039296 52.5426196 28.7970777 47.0141561 23.3890461 54.5569776 15.8438692 51.5724345 12.8589464 17.5887643 47.0380935 17.5887643 57.0672835 7.55835265 57.0672835"></polygon>
                    </g>
                </g>
            </g>
        </g>
    </g>
</svg>