<svg width="20" height="20" viewBox="0 0 20 20" fill="none" xmlns="http://www.w3.org/2000/svg">
<path fill-rule="evenodd" clip-rule="evenodd" d="M13.9671 0C14.1118 0 14.2501 0.00103883 14.3825 0.00310772L14.7623 0.0123959L15.1094 0.0278119C15.3303 0.0401202 15.5311 0.0564788 15.7153 0.0768175L15.9796 0.110302L16.2215 0.149704L16.4439 0.194972L16.6492 0.246052C16.8468 0.300021 17.023 0.36263 17.1895 0.433643L17.3532 0.507449L17.5131 0.586805C17.5396 0.60049 17.566 0.614405 17.5925 0.628547C18.3594 1.03868 18.9613 1.64054 19.3714 2.40742L19.4535 2.56644L19.5301 2.72792L19.6011 2.89452C19.783 3.34793 19.9049 3.88405 19.9622 4.72846L19.9807 5.06001L19.993 5.4231L19.9992 5.82038C19.9997 5.88959 20 5.96034 20 6.03267V13.9673L19.9969 14.3827C19.9959 14.4489 19.9946 14.5136 19.993 14.5769L19.9807 14.94L19.9622 15.2715C19.8977 16.2215 19.7516 16.7813 19.5301 17.2721L19.4535 17.4336L19.3714 17.5926C18.9613 18.3595 18.3594 18.9613 17.5925 19.3715L17.4335 19.4536L17.272 19.5301C16.7539 19.7639 16.1589 19.9137 15.1094 19.9722L14.7623 19.9876L14.3825 19.9969C14.3163 19.9979 14.2486 19.9987 14.1794 19.9992L6.03213 20C5.88745 20 5.74914 19.999 5.61674 19.9969L5.23687 19.9876L4.88987 19.9722C3.89552 19.9168 3.30922 19.7794 2.80975 19.5664L2.64603 19.4926C2.61914 19.4798 2.5924 19.4668 2.56576 19.4536L2.40674 19.3715C1.63982 18.9613 1.03794 18.3595 0.627794 17.5926L0.54568 17.4336L0.46909 17.2721C0.247657 16.7813 0.101508 16.2215 0.0370249 15.2715L0.0185639 14.94L0.00620474 14.5769L0 14.1796L0 5.82038L0.00620474 5.4231L0.0185639 5.06001L0.0370249 4.72846C0.0943433 3.88405 0.216188 3.34793 0.398076 2.89452L0.46909 2.72792L0.54568 2.56644L0.627794 2.40742C1.03794 1.64054 1.63982 1.03868 2.40674 0.628547L2.56576 0.546436L2.72725 0.469849C2.91812 0.38374 3.11943 0.309016 3.35006 0.246052L3.55537 0.194972L3.77768 0.149704L4.01964 0.110302L4.2839 0.0768175C4.46809 0.0564788 4.6689 0.0401202 4.88987 0.0278119L5.23687 0.0123959L5.61674 0.00310772C5.68294 0.00207327 5.75062 0.00129634 5.81983 0.000778025L13.9671 0Z" fill="white"/>
<path fill-rule="evenodd" clip-rule="evenodd" d="M12.2026 5.51861C12.21 5.43701 12.1815 5.35624 12.1246 5.29728C12.0677 5.23831 11.988 5.20695 11.9062 5.21134C11.7779 5.21757 11.6487 5.2269 11.5173 5.23779H11.4978L11.4877 5.25335C11.386 5.41773 11.3046 5.59376 11.245 5.77764L11.2263 5.83365L11.2855 5.82743C11.5033 5.80331 11.7219 5.78542 11.9397 5.77297C12.0793 5.76622 12.1927 5.6578 12.2057 5.51861H12.2026ZM6.51687 7.46953L6.53942 7.45553L6.53398 7.4322C6.49926 7.26317 6.42782 7.10384 6.32472 6.96547L6.30372 6.93746L6.27416 6.95535C5.51649 7.41983 4.81327 7.96776 4.17768 8.58891L4.16602 8.59902V9.40413L4.23214 9.33489C4.90912 8.61616 5.67721 7.98905 6.51687 7.46953ZM11.154 7.42286C11.2629 7.40575 11.3594 7.39252 11.4488 7.38086C12.9138 7.19366 14.4021 7.33069 15.8082 7.78224L15.8347 7.7908V8.38277L15.7841 8.36565C14.7997 8.03175 13.7672 7.86173 12.7277 7.86236C12.3233 7.86308 11.9193 7.88906 11.5181 7.94015C11.4115 7.95338 11.2995 7.96971 11.1657 7.99149L11.1213 7.99849V7.42753L11.154 7.42286ZM7.47992 10.7296L7.51959 10.6993L7.47914 10.6697C7.34905 10.5724 7.22939 10.4619 7.12208 10.3399L7.09874 10.3104L7.07074 10.3321C6.48253 10.7981 5.95259 11.3333 5.49236 11.926C5.27822 12.2023 5.07929 12.49 4.89648 12.7879L4.88481 12.8074L4.8957 12.8268C4.98438 12.9863 5.0824 13.145 5.18664 13.2935L5.22086 13.3433L5.2512 13.2912C5.82022 12.2988 6.57724 11.4269 7.47992 10.7242V10.7296ZM13.294 14.6844C12.3274 14.6801 11.3971 15.0526 10.7005 15.7229L10.6172 15.8006L10.7316 15.7866C11.685 15.6649 12.5935 15.3095 13.3765 14.7521L13.4706 14.6852H13.3547L13.294 14.6844ZM15.4979 8.75771C15.6029 8.7896 15.7063 8.82305 15.809 8.85883L15.8331 8.86816V9.46636L15.7818 9.44769C15.6335 9.39323 15.4839 9.34293 15.3329 9.29678C15.2052 9.25758 15.1224 9.13423 15.1346 9.00118C15.1423 8.91668 15.1877 8.84017 15.2582 8.79292C15.3287 8.74568 15.4168 8.73274 15.4979 8.75771ZM7.36012 13.0182C9.43197 10.6339 12.7861 9.82234 15.7188 10.9957L15.7476 11.0097L15.7421 11.04C15.7343 11.0836 15.7266 11.1264 15.718 11.1691C15.6939 11.2866 15.6659 11.4072 15.634 11.5254L15.6223 11.5674L15.5826 11.5503C14.7555 11.2055 13.8681 11.0286 12.972 11.0299C12.6838 11.03 12.396 11.0479 12.1101 11.0836C10.432 11.2886 8.89034 12.1111 7.78564 13.3908C7.73467 13.4502 7.66127 13.4857 7.58305 13.4888C7.50483 13.4919 7.42885 13.4623 7.37335 13.4071C7.26642 13.3015 7.26062 13.1308 7.36012 13.0182ZM12.2734 12.9474C12.2646 12.8688 12.223 12.7976 12.1588 12.7513C12.0946 12.7051 12.0139 12.6881 11.9366 12.7047C11.8271 12.7291 11.7175 12.755 11.6075 12.7825C10.4627 13.1023 9.45144 13.7826 8.7238 14.7225C8.53283 14.9673 8.36241 15.2275 8.21427 15.5004L8.19249 15.5408L8.23838 15.5556C8.39397 15.6062 8.56044 15.6497 8.7238 15.6863L8.75103 15.6925L8.76503 15.6676C8.88501 15.4572 9.01966 15.2555 9.16799 15.064C9.88593 14.1371 10.908 13.4933 12.054 13.2461C12.1955 13.2161 12.2906 13.0831 12.2734 12.9396V12.9474ZM6.62655 9.38468C6.66624 9.54779 6.72417 9.70592 6.79925 9.85607L6.81092 9.88408L6.7868 9.90275C6.59129 10.0562 6.40199 10.2175 6.21892 10.3866C6.10793 10.4878 5.93725 10.4847 5.82997 10.3796C5.77568 10.3252 5.74597 10.251 5.74773 10.1742C5.74949 10.0974 5.78257 10.0246 5.8393 9.97276C6.07216 9.75806 6.31435 9.55503 6.56587 9.36368L6.61255 9.32867L6.62655 9.38468Z" fill="#A98EFF"/>
<path fill-rule="evenodd" clip-rule="evenodd" d="M12.4733 4.70218C13.3894 4.70231 14.3026 4.80459 15.196 5.00711L15.3127 5.03355L15.2349 4.94488C14.7881 4.44922 14.152 4.16648 13.4846 4.16699C13.4426 4.16699 13.4006 4.16699 13.3555 4.17088C12.8864 4.19364 12.4351 4.35709 12.0603 4.63995L11.9646 4.70996H12.0844C12.2143 4.70451 12.345 4.70218 12.4733 4.70218ZM15.8075 6.71378C15.6892 6.678 15.5858 6.64844 15.4901 6.62277C14.1091 6.25345 12.6696 6.15545 11.2512 6.33417L11.196 6.34195L11.1276 6.35129V6.3824C11.1276 6.40912 11.1263 6.43416 11.1251 6.45816V6.45817V6.45817V6.45817C11.124 6.48029 11.1229 6.50153 11.1229 6.52242V6.92069L11.2053 6.90903L11.3228 6.89347C11.7615 6.83834 12.2031 6.81054 12.6453 6.81024C13.71 6.80986 14.7686 6.9725 15.7841 7.29252L15.8339 7.30808V6.72156L15.8075 6.71378ZM6.56043 8.73005L6.54488 8.74094C5.70372 9.33908 4.95469 10.0572 4.3216 10.8723L4.24381 10.9703L4.22981 10.8824C4.19436 10.6506 4.17306 10.4168 4.16602 10.1824V10.1676L4.17847 10.1551C4.85156 9.3618 5.63361 8.66778 6.50131 8.09374L6.56043 8.05485V8.73005ZM11.8432 9.47604C11.5603 9.51131 11.2794 9.56089 11.0015 9.62461L10.9821 9.62928L10.9743 9.64795C10.8957 9.85552 10.7872 10.0505 10.6523 10.2267L10.5815 10.3185L10.6927 10.2866C11.4068 10.0794 12.1467 9.97465 12.8903 9.97544C13.8741 9.97403 14.8489 10.1621 15.7616 10.5293L15.809 10.5487L15.8137 10.4974C15.8277 10.3301 15.8347 10.1629 15.8347 10.0011V9.95288L15.8098 9.94354C14.545 9.46853 13.1838 9.30809 11.8432 9.47604ZM8.80004 11.1236L8.7028 11.1858C7.9539 11.6651 7.29292 12.2695 6.74869 12.9726C6.45898 13.3451 6.20332 13.7429 5.98478 14.1612L5.96144 14.2063L5.92488 14.1706C5.8043 14.0515 5.68373 13.924 5.57093 13.7925L5.55382 13.7723L5.56626 13.7497C6.16405 12.6579 6.99641 11.7121 8.00346 10.9805L8.0198 10.9688L8.03924 10.9758C8.2465 11.0537 8.46402 11.1008 8.68491 11.1158L8.80004 11.1236ZM11.3819 11.7381C10.0054 12.0968 8.78668 12.9016 7.91633 14.0266C7.65592 14.3609 7.42849 14.7197 7.23722 15.0978L7.22088 15.1305L7.25355 15.1483C7.39747 15.2261 7.54605 15.2969 7.69541 15.3607L7.72808 15.3755L7.74442 15.3436C7.91823 15.001 8.12454 14.6759 8.36052 14.3728C9.98339 12.295 12.7814 11.5348 15.2326 12.5059L15.266 12.5191L15.2808 12.4864C15.3501 12.3394 15.4146 12.187 15.4714 12.0345L15.4839 11.9995L15.4496 11.9855C14.1544 11.473 12.7297 11.3864 11.3819 11.7381ZM9.53361 15.4268C9.45582 15.5256 9.37803 15.6306 9.31191 15.738L9.27768 15.7901L9.33914 15.7971C9.52661 15.8181 9.72031 15.8305 9.91323 15.8337H9.9319L9.95446 15.8041L9.97858 15.7722C10.9209 14.5644 12.4577 13.9821 13.9638 14.2623H13.9833L13.9973 14.2491C14.1369 14.1182 14.2698 13.9803 14.3956 13.8361L14.4368 13.7894L14.3769 13.7738C12.5773 13.3103 10.6743 13.9598 9.53361 15.4268ZM5.87821 6.59787L5.8152 6.63755C5.25488 6.99546 4.72466 7.39844 4.22981 7.84248L4.16602 7.89927V7.68146C4.16509 7.41264 4.25562 7.15149 4.42273 6.94092C4.64902 6.65181 4.99608 6.48331 5.36323 6.4843C5.51591 6.4841 5.66722 6.51315 5.80897 6.56987L5.87821 6.59787ZM14.5379 8.51846C14.6801 8.54625 14.7778 8.67766 14.7635 8.82184V8.82417C14.7561 8.90298 14.7159 8.97503 14.6527 9.02269C14.5895 9.07035 14.5092 9.08921 14.4313 9.07465C13.8966 8.97163 13.3532 8.91954 12.8086 8.91907C12.4445 8.91956 12.0808 8.94242 11.7195 8.98753C11.5398 9.01008 11.3524 9.03964 11.1618 9.07543L11.1128 9.08554V9.03498C11.1213 8.96808 11.1213 8.90274 11.1213 8.84051V8.51224L11.1532 8.50679C11.3205 8.47412 11.4862 8.44845 11.6456 8.42901C12.6084 8.30619 13.5846 8.33638 14.5379 8.51846ZM15.809 6.17315C15.7799 5.98238 15.7277 5.79587 15.6534 5.61774L15.6457 5.60063L15.6278 5.59596C14.7315 5.35733 13.8105 5.22393 12.8833 5.19847C12.7355 5.19496 12.6101 5.30639 12.5963 5.45361C12.588 5.5318 12.6128 5.60989 12.6646 5.66899C12.7165 5.72809 12.7907 5.76281 12.8693 5.76476C13.7571 5.78991 14.639 5.91834 15.4971 6.14748C15.5811 6.17004 15.6667 6.19415 15.7592 6.22138L15.816 6.23772L15.809 6.17315ZM6.96555 13.6907C7.04959 13.6823 7.13299 13.7119 7.19288 13.7715V13.7731C7.28725 13.8683 7.30187 14.0167 7.22788 14.1285C7.07734 14.3578 6.94045 14.5957 6.81792 14.8411L6.79925 14.88L6.76269 14.8559C6.62578 14.7641 6.4912 14.6653 6.36207 14.5626L6.33795 14.5432L6.35195 14.5152C6.47467 14.2745 6.61049 14.0408 6.7588 13.8151C6.80566 13.7448 6.88151 13.6992 6.96555 13.6907ZM15.0101 12.9026C14.342 12.6624 13.634 12.5526 12.9245 12.579C12.8469 12.5824 12.7742 12.6178 12.7237 12.6768C12.6731 12.7357 12.6492 12.813 12.6577 12.8902C12.6747 13.0369 12.8018 13.1457 12.9494 13.1399H13.1307C13.6681 13.1393 14.2022 13.2255 14.7122 13.395L14.7386 13.4043L14.7557 13.3802C14.8538 13.2433 14.9448 13.1025 15.0303 12.9578L15.0537 12.9182L15.0101 12.9026ZM5.35238 10.5756C5.42993 10.5733 5.50502 10.6029 5.56004 10.6576H5.55848C5.66467 10.7641 5.66877 10.9351 5.56782 11.0466C5.41483 11.2156 5.26806 11.3909 5.12752 11.5724C4.96883 11.777 4.81324 11.9948 4.66622 12.2188L4.62655 12.2795L4.59932 12.2126C4.52235 12.0243 4.4551 11.8322 4.39784 11.637L4.39239 11.6191L4.40329 11.6043C4.49663 11.4729 4.59076 11.3453 4.68333 11.2263C4.83321 11.0354 4.98879 10.85 5.15008 10.6701C5.20168 10.6122 5.27484 10.578 5.35238 10.5756Z" fill="#8864FF"/>
</svg>
