<?xml version="1.0" encoding="UTF-8"?>
<svg width="102px" height="102px" viewBox="0 0 102 102" version="1.1" xmlns="http://www.w3.org/2000/svg" xmlns:xlink="http://www.w3.org/1999/xlink">
    <title>切片</title>
    <defs>
        <linearGradient x1="50%" y1="50%" x2="3.91416907%" y2="3.24411302%" id="linearGradient-1">
            <stop stop-color="#8864FF" offset="0%"></stop>
            <stop stop-color="#A88DFF" offset="100%"></stop>
        </linearGradient>
        <path d="M15.3833112,-6.21504185e-16 L84.6166888,6.21504185e-16 C89.9658012,-3.61111829e-16 91.9055187,0.556953667 93.8610742,1.60279622 C95.8166298,2.64863878 97.3513612,4.18337022 98.3972038,6.13892578 C99.4430463,8.09448133 100,10.0341988 100,15.3833112 L100,84.6166888 C100,89.9658012 99.4430463,91.9055187 98.3972038,93.8610742 C97.3513612,95.8166298 95.8166298,97.3513612 93.8610742,98.3972038 C91.9055187,99.4430463 89.9658012,100 84.6166888,100 L15.3833112,100 C10.0341988,100 8.09448133,99.4430463 6.13892578,98.3972038 C4.18337022,97.3513612 2.64863878,95.8166298 1.60279622,93.8610742 C0.556953667,91.9055187 2.4074122e-16,89.9658012 -4.14336123e-16,84.6166888 L4.14336123e-16,15.3833112 C-2.4074122e-16,10.0341988 0.556953667,8.09448133 1.60279622,6.13892578 C2.64863878,4.18337022 4.18337022,2.64863878 6.13892578,1.60279622 C8.09448133,0.556953667 10.0341988,3.61111829e-16 15.3833112,-6.21504185e-16 Z" id="path-2"></path>
        <filter x="-2.5%" y="-2.5%" width="105.0%" height="105.0%" filterUnits="objectBoundingBox" id="filter-3">
            <feGaussianBlur stdDeviation="2" in="SourceAlpha" result="shadowBlurInner1"></feGaussianBlur>
            <feOffset dx="1" dy="1" in="shadowBlurInner1" result="shadowOffsetInner1"></feOffset>
            <feComposite in="shadowOffsetInner1" in2="SourceAlpha" operator="arithmetic" k2="-1" k3="1" result="shadowInnerInner1"></feComposite>
            <feColorMatrix values="0 0 0 0 1   0 0 0 0 1   0 0 0 0 1  0 0 0 0.5 0" type="matrix" in="shadowInnerInner1"></feColorMatrix>
        </filter>
        <linearGradient x1="54.1276979%" y1="43.7693155%" x2="32.2653455%" y2="0%" id="linearGradient-4">
            <stop stop-color="#7B59EB" offset="0%"></stop>
            <stop stop-color="#A68BFF" offset="100%"></stop>
        </linearGradient>
    </defs>
    <g id="2022.6" stroke="none" stroke-width="1" fill="none" fill-rule="evenodd">
        <g id="登录-安全验证-手机验证" transform="translate(-48.000000, -346.000000)">
            <g id="编组-9备份" transform="translate(24.000000, 322.000000)">
                <g id="移动端/图标/安全验证/邮箱" transform="translate(24.000000, 24.000000)">
                    <g id="背景">
                        <path d="M17.3833112,2 L86.6166888,2 C91.9658012,2 93.9055187,2.55695367 95.8610742,3.60279622 C97.8166298,4.64863878 99.3513612,6.18337022 100.397204,8.13892578 C101.443046,10.0944813 102,12.0341988 102,17.3833112 L102,86.6166888 C102,91.9658012 101.443046,93.9055187 100.397204,95.8610742 C99.3513612,97.8166298 97.8166298,99.3513612 95.8610742,100.397204 C93.9055187,101.443046 91.9658012,102 86.6166888,102 L17.3833112,102 C12.0341988,102 10.0944813,101.443046 8.13892578,100.397204 C6.18337022,99.3513612 4.64863878,97.8166298 3.60279622,95.8610742 C2.55695367,93.9055187 2,91.9658012 2,86.6166888 L2,17.3833112 C2,12.0341988 2.55695367,10.0944813 3.60279622,8.13892578 C4.64863878,6.18337022 6.18337022,4.64863878 8.13892578,3.60279622 C10.0944813,2.55695367 12.0341988,2 17.3833112,2 Z" id="矩形" fill="#1F202A"></path>
                        <g id="矩形">
                            <use fill="url(#linearGradient-1)" fill-rule="evenodd" xlink:href="#path-2"></use>
                            <use fill="black" fill-opacity="1" filter="url(#filter-3)" xlink:href="#path-2"></use>
                        </g>
                        <path d="M10,87.2229678 L22.7770322,100 L88,100 C94.627417,100 100,94.627417 100,88 L100,26.599885 L100,26.599885 L83.5621166,10.2281442 L10,87.2229678 Z" id="路径-2" fill-opacity="0.096272" fill="#000000"></path>
                        <polygon id="路径" fill="#3F4F61" fill-rule="nonzero" points="87.6620015 34.8638804 89.5628834 15.9969325 83.5621166 10.2281442 61.0429448 11.7551764 42.322661 10 12.9246549 10 10 21.9929064 11.4628067 43.1997699 10 59.7268021 10 87.2229678 22.5776457 89.5628834 51.5366181 87.9543712 73.3282209 89.5628834 86.0525307 89.5628834 89.5628834 83.7154908 88.3924463 71.5730445 89.5628834 58.556365"></polygon>
                        <path d="M12.9256135,10 L15.5578988,20.5300997 L11.4628067,43.1997699 L10,21.9929064 M10.6873083,51.9583972 L12.7789494,80.4946319 L22.5776457,89.5628834 L10,87.2229678 L10,59.7268021 M34.132477,10 L44.6625767,14.2417561 L69.2254601,11.2001534" id="形状" fill="#64717E" fill-rule="nonzero"></path>
                        <path d="M50.888612,87.989839 L78.544862,87.0763037 L86.0525307,89.5628834 L73.3282209,89.5628834 M87.6610429,34.8638804 L86.8807515,54.6079371 L86.8807515,73.7672546 L89.5628834,83.712615 L89.5628834,47.0024923 L88.4950153,26.599885" id="形状" fill="#303B4F" fill-rule="nonzero"></path>
                        <polygon id="路径" fill="#1F2C39" fill-rule="nonzero" points="32.3846544 69.3093996 69.2254601 33.0607895 87.2722641 46.1594692 86.8807515 56.1801372 89.5628834 83.712615 86.0525307 89.5628834 78.544862 87.0763037 56.7099486 87.7656462"></polygon>
                    </g>
                    <g id="编组-2" transform="translate(29.791979, 24.374132)">
                        <rect id="矩形" x="1.20802075" y="6.62586776" width="40" height="40"></rect>
                        <g transform="translate(21.189117, 26.869584) rotate(-340.000000) translate(-21.189117, -26.869584) translate(7.193430, 3.369584)">
                            <path d="M24.3705995,0 C26.4595081,0 27.9913743,1.82685514 27.9913743,4.15194345 L27.9913743,4.15194345 L27.9913743,42.6819788 C27.9913743,45.1731449 26.3202475,47 24.3705995,47 L24.3705995,47 L3.6207748,47 C1.53186627,47 0,45.0070671 0,42.6819788 L0,42.6819788 L0,4.15194345 C0,1.82685514 1.53186623,0 3.48151421,0 L3.48151421,0 Z M17.5468317,2.21007712 L10.5838032,2.21007712 C10.1660215,2.21007712 10.026761,2.48859827 10.026761,2.76711938 C10.026761,3.04564049 10.3052821,3.32416164 10.5838032,3.32416164 L10.5838032,3.32416164 L17.5468317,3.32416164 C17.8253528,3.32416164 18.1038739,3.04564049 18.1038739,2.76711938 C18.1038739,2.48859827 17.8253528,2.21007712 17.5468317,2.21007712 L17.5468317,2.21007712 Z" id="形状结合" fill="url(#linearGradient-4)" fill-rule="nonzero"></path>
                            <rect id="矩形" fill="#6D4CDB" x="2.55006676" y="5.13870762" width="23.2257555" height="39.2798964" rx="2"></rect>
                            <path d="M21.5452722,18.5634473 L9.91238332,18.5634473 C8.66662513,18.5634473 8.06060098,19.1777961 8.06060098,20.4066651 L8.06060098,27.7795022 C8.06060098,29.0084397 8.629164,29.5892328 9.8438673,29.5892328 L11.6272021,29.5892328 L11.4078139,31.465955 C11.4077745,31.692672 11.533245,31.9007807 11.7337617,32.0065806 C11.8232216,32.0549792 11.9233276,32.0803553 12.0250404,32.0803553 C12.1447379,32.0803553 12.2645381,32.0458574 12.3669696,31.9771016 L15.9071407,29.5892328 L21.613771,29.5892328 C22.8484468,29.5892328 23.3970545,29.0084568 23.3970545,27.7795022 L23.3970545,20.4066651 C23.3970545,19.1777961 22.7798451,18.5634473 21.5452722,18.5634473 Z" id="路径" fill-opacity="0.256438142" fill="#000000" fill-rule="nonzero"></path>
                            <path d="M20.5630541,17.4769564 L8.93016526,17.4769564 C7.68440707,17.4769564 7.07838292,18.0913052 7.07838292,19.3201742 L7.07838292,26.6930113 C7.07838292,27.9219488 7.64694594,28.5027419 8.86164924,28.5027419 L10.6449841,28.5027419 L10.4255958,30.3794641 C10.4255564,30.6061811 10.5510269,30.8142897 10.7515436,30.9200897 C10.8410036,30.9684882 10.9411095,30.9938643 11.0428223,30.9938643 C11.1625198,30.9938643 11.2823201,30.9593665 11.3847515,30.8906107 L14.9249226,28.5027419 L20.631553,28.5027419 C21.8662287,28.5027419 22.4148364,27.9219659 22.4148364,26.6930113 L22.4148364,19.3201742 C22.4148364,18.0913052 21.797627,17.4769564 20.5630541,17.4769564 Z" id="路径" fill="#AD94FF" fill-rule="nonzero"></path>
                        </g>
                    </g>
                </g>
            </g>
        </g>
    </g>
</svg>