<?xml version="1.0" encoding="UTF-8"?>
<svg width="102px" height="102px" viewBox="0 0 102 102" version="1.1" xmlns="http://www.w3.org/2000/svg" xmlns:xlink="http://www.w3.org/1999/xlink">
    <title>切片</title>
    <defs>
        <linearGradient x1="50%" y1="50%" x2="3.91416907%" y2="3.24411302%" id="linearGradient-1">
            <stop stop-color="#8864FF" offset="0%"></stop>
            <stop stop-color="#A88DFF" offset="100%"></stop>
        </linearGradient>
        <path d="M15.3833112,-6.21504185e-16 L84.6166888,6.21504185e-16 C89.9658012,-3.61111829e-16 91.9055187,0.556953667 93.8610742,1.60279622 C95.8166298,2.64863878 97.3513612,4.18337022 98.3972038,6.13892578 C99.4430463,8.09448133 100,10.0341988 100,15.3833112 L100,84.6166888 C100,89.9658012 99.4430463,91.9055187 98.3972038,93.8610742 C97.3513612,95.8166298 95.8166298,97.3513612 93.8610742,98.3972038 C91.9055187,99.4430463 89.9658012,100 84.6166888,100 L15.3833112,100 C10.0341988,100 8.09448133,99.4430463 6.13892578,98.3972038 C4.18337022,97.3513612 2.64863878,95.8166298 1.60279622,93.8610742 C0.556953667,91.9055187 2.4074122e-16,89.9658012 -4.14336123e-16,84.6166888 L4.14336123e-16,15.3833112 C-2.4074122e-16,10.0341988 0.556953667,8.09448133 1.60279622,6.13892578 C2.64863878,4.18337022 4.18337022,2.64863878 6.13892578,1.60279622 C8.09448133,0.556953667 10.0341988,3.61111829e-16 15.3833112,-6.21504185e-16 Z" id="path-2"></path>
        <filter x="-2.5%" y="-2.5%" width="105.0%" height="105.0%" filterUnits="objectBoundingBox" id="filter-3">
            <feGaussianBlur stdDeviation="2" in="SourceAlpha" result="shadowBlurInner1"></feGaussianBlur>
            <feOffset dx="1" dy="1" in="shadowBlurInner1" result="shadowOffsetInner1"></feOffset>
            <feComposite in="shadowOffsetInner1" in2="SourceAlpha" operator="arithmetic" k2="-1" k3="1" result="shadowInnerInner1"></feComposite>
            <feColorMatrix values="0 0 0 0 1   0 0 0 0 1   0 0 0 0 1  0 0 0 0.5 0" type="matrix" in="shadowInnerInner1"></feColorMatrix>
        </filter>
        <linearGradient x1="50%" y1="90.8785767%" x2="50%" y2="0%" id="linearGradient-4">
            <stop stop-color="#8864FF" offset="0%"></stop>
            <stop stop-color="#7B59EB" offset="22.1533185%"></stop>
            <stop stop-color="#A68BFF" offset="100%"></stop>
        </linearGradient>
        <linearGradient x1="96.7632462%" y1="50%" x2="-6.33901098%" y2="77.8403429%" id="linearGradient-5">
            <stop stop-color="#8864FF" stop-opacity="0" offset="0%"></stop>
            <stop stop-color="#8864FF" offset="100%"></stop>
        </linearGradient>
        <path d="M37.5463616,23.5544308 C37.199503,25.7564278 36.529751,27.7917843 35.5383021,29.6616966 C34.0148646,32.5349605 31.8403854,34.7788841 29.0148646,36.3978077 C26.193684,38.0167313 22.9558368,38.824023 19.3013229,38.824023 C16.6711146,38.824023 14.1667743,38.3162105 11.7883021,37.2962452 C9.40982985,36.2762799 7.35687846,34.9004119 5.62944791,33.1643007 C3.90201735,31.4281896 2.53482985,29.3665577 1.51920485,26.9750646 C0.507920127,24.5835716 -0.00857292821,22.0141271 0,19.418641 C0,16.7710716 0.507920127,14.2537105 1.51920485,11.8622174 C2.53917013,9.45770353 3.91069791,7.39607158 5.63812846,5.65996047 C7.36555902,3.92384936 9.41417013,2.5479813 11.7969826,1.52801603 C14.1711146,0.508050749 16.7275382,-0.0127825843 19.3100035,0 C24.3360451,0 28.6502812,1.69294658 32.2527118,5.08270353 L27.0009757,10.1608285 C24.9350035,8.15562019 22.3742396,7.15301603 19.3056632,7.15301603 C17.1442048,7.15301603 15.1476771,7.69989103 13.3117396,8.7979813 C11.4931632,9.87871047 9.99142707,11.4151688 8.95410068,13.2597869 C7.88205207,15.1391271 7.34819791,17.1920785 7.34819791,19.4143007 C7.34819791,21.636523 7.88639235,23.6894744 8.95844096,25.5688146 C9.99576735,27.4134327 11.4975035,28.949891 13.3160798,30.0306202 C15.1259757,31.1200299 17.2006285,31.6886063 19.3100035,31.6755855 C20.7683368,31.6755855 22.1051423,31.4715924 23.3291007,31.0679466 C24.553059,30.6643007 25.5556632,30.1608285 26.3455937,29.5531896 C27.1225035,28.9585716 27.8169479,28.2597869 28.4072257,27.4785369 C28.9931632,26.7059674 29.4228507,25.9724605 29.7006285,25.2823563 C29.9610451,24.6486757 30.1520173,23.9846132 30.2648646,23.3118702 L37.5463616,23.4721931 L37.5463616,23.5544308 Z" id="path-6"></path>
    </defs>
    <g id="2022.6" stroke="none" stroke-width="1" fill="none" fill-rule="evenodd">
        <g id="登录-安全验证-谷歌验证" transform="translate(-48.000000, -346.000000)">
            <g id="编组-9备份" transform="translate(24.000000, 322.000000)">
                <g id="移动端/图标/安全验证/邮箱" transform="translate(24.000000, 24.000000)">
                    <g id="背景">
                        <path d="M17.3833112,2 L86.6166888,2 C91.9658012,2 93.9055187,2.55695367 95.8610742,3.60279622 C97.8166298,4.64863878 99.3513612,6.18337022 100.397204,8.13892578 C101.443046,10.0944813 102,12.0341988 102,17.3833112 L102,86.6166888 C102,91.9658012 101.443046,93.9055187 100.397204,95.8610742 C99.3513612,97.8166298 97.8166298,99.3513612 95.8610742,100.397204 C93.9055187,101.443046 91.9658012,102 86.6166888,102 L17.3833112,102 C12.0341988,102 10.0944813,101.443046 8.13892578,100.397204 C6.18337022,99.3513612 4.64863878,97.8166298 3.60279622,95.8610742 C2.55695367,93.9055187 2,91.9658012 2,86.6166888 L2,17.3833112 C2,12.0341988 2.55695367,10.0944813 3.60279622,8.13892578 C4.64863878,6.18337022 6.18337022,4.64863878 8.13892578,3.60279622 C10.0944813,2.55695367 12.0341988,2 17.3833112,2 Z" id="矩形" fill="#1F202A"></path>
                        <g id="矩形">
                            <use fill="url(#linearGradient-1)" fill-rule="evenodd" xlink:href="#path-2"></use>
                            <use fill="black" fill-opacity="1" filter="url(#filter-3)" xlink:href="#path-2"></use>
                        </g>
                        <path d="M10,87.2229678 L22.7770322,100 L88,100 C94.627417,100 100,94.627417 100,88 L100,26.599885 L100,26.599885 L83.5621166,10.2281442 L10,87.2229678 Z" id="路径-2" fill-opacity="0.096272" fill="#000000"></path>
                        <polygon id="路径" fill="#3F4F61" fill-rule="nonzero" points="87.6620015 34.8638804 89.5628834 15.9969325 83.5621166 10.2281442 61.0429448 11.7551764 42.322661 10 12.9246549 10 10 21.9929064 11.4628067 43.1997699 10 59.7268021 10 87.2229678 22.5776457 89.5628834 51.5366181 87.9543712 73.3282209 89.5628834 86.0525307 89.5628834 89.5628834 83.7154908 88.3924463 71.5730445 89.5628834 58.556365"></polygon>
                        <path d="M12.9256135,10 L15.5578988,20.5300997 L11.4628067,43.1997699 L10,21.9929064 M10.6873083,51.9583972 L12.7789494,80.4946319 L22.5776457,89.5628834 L10,87.2229678 L10,59.7268021 M34.132477,10 L44.6625767,14.2417561 L69.2254601,11.2001534" id="形状" fill="#64717E" fill-rule="nonzero"></path>
                        <path d="M50.888612,87.989839 L78.544862,87.0763037 L86.0525307,89.5628834 L73.3282209,89.5628834 M87.6610429,34.8638804 L86.8807515,54.6079371 L86.8807515,73.7672546 L89.5628834,83.712615 L89.5628834,47.0024923 L88.4950153,26.599885" id="形状" fill="#303B4F" fill-rule="nonzero"></path>
                        <polygon id="路径" fill="#1F2C39" fill-rule="nonzero" points="39.0500041 65.9545732 37.9440051 43.1997699 46.5797986 36.0980356 64.3398976 36.670692 86.8807515 56.1801372 89.5628834 83.712615 86.0525307 89.5628834 78.544862 87.0763037 62.6139969 87.6560439"></polygon>
                    </g>
                    <g id="编组-2" transform="translate(31.000000, 31.000000)">
                        <rect id="矩形" x="0" y="0" width="40" height="40"></rect>
                        <g id="编组" transform="translate(1.087186, 0.587989)" fill-rule="nonzero">
                            <g id="路径">
                                <use fill="url(#linearGradient-4)" xlink:href="#path-6"></use>
                                <use fill="url(#linearGradient-5)" xlink:href="#path-6"></use>
                            </g>
                            <path d="M19.3056632,16.6321827 L37.5261493,16.6321827 C37.7258021,17.7606549 37.8256285,18.8370438 37.8256285,19.8656896 C37.8256285,21.1137562 37.7367461,22.3158666 37.5591537,23.4721931 L30.2648646,23.3118702 L19.3056632,23.3118702 L19.3056632,16.6321827 Z" id="路径" fill="#AD94FF"></path>
                        </g>
                    </g>
                </g>
            </g>
        </g>
    </g>
</svg>