<?xml version="1.0" encoding="UTF-8"?>
<svg width="102px" height="102px" viewBox="0 0 102 102" version="1.1" xmlns="http://www.w3.org/2000/svg" xmlns:xlink="http://www.w3.org/1999/xlink">
    <title>切片</title>
    <defs>
        <linearGradient x1="50%" y1="50%" x2="3.91416907%" y2="3.24411302%" id="linearGradient-1">
            <stop stop-color="#8864FF" offset="0%"></stop>
            <stop stop-color="#A88DFF" offset="100%"></stop>
        </linearGradient>
        <path d="M15.3833112,-6.21504185e-16 L84.6166888,6.21504185e-16 C89.9658012,-3.61111829e-16 91.9055187,0.556953667 93.8610742,1.60279622 C95.8166298,2.64863878 97.3513612,4.18337022 98.3972038,6.13892578 C99.4430463,8.09448133 100,10.0341988 100,15.3833112 L100,84.6166888 C100,89.9658012 99.4430463,91.9055187 98.3972038,93.8610742 C97.3513612,95.8166298 95.8166298,97.3513612 93.8610742,98.3972038 C91.9055187,99.4430463 89.9658012,100 84.6166888,100 L15.3833112,100 C10.0341988,100 8.09448133,99.4430463 6.13892578,98.3972038 C4.18337022,97.3513612 2.64863878,95.8166298 1.60279622,93.8610742 C0.556953667,91.9055187 2.4074122e-16,89.9658012 -4.14336123e-16,84.6166888 L4.14336123e-16,15.3833112 C-2.4074122e-16,10.0341988 0.556953667,8.09448133 1.60279622,6.13892578 C2.64863878,4.18337022 4.18337022,2.64863878 6.13892578,1.60279622 C8.09448133,0.556953667 10.0341988,3.61111829e-16 15.3833112,-6.21504185e-16 Z" id="path-2"></path>
        <filter x="-2.5%" y="-2.5%" width="105.0%" height="105.0%" filterUnits="objectBoundingBox" id="filter-3">
            <feGaussianBlur stdDeviation="2" in="SourceAlpha" result="shadowBlurInner1"></feGaussianBlur>
            <feOffset dx="1" dy="1" in="shadowBlurInner1" result="shadowOffsetInner1"></feOffset>
            <feComposite in="shadowOffsetInner1" in2="SourceAlpha" operator="arithmetic" k2="-1" k3="1" result="shadowInnerInner1"></feComposite>
            <feColorMatrix values="0 0 0 0 1   0 0 0 0 1   0 0 0 0 1  0 0 0 0.5 0" type="matrix" in="shadowInnerInner1"></feColorMatrix>
        </filter>
        <path d="M0.715860754,8.24715944 L0.715860754,31.7528406 C0.715081569,32.8574101 1.61051207,33.7528406 2.71508157,33.7528406 C2.71534135,33.7528406 2.71560113,33.7528405 2.7158606,33.7520612 L37.2841394,33.7385911 C38.3884042,33.7373813 39.2833598,32.8420769 39.2841392,31.7378117 L39.2841392,8.24715944 C39.2841392,7.14258994 38.3887087,6.24715944 37.2841392,6.24715944 L2.71586075,6.24715944 C1.61129125,6.24715944 0.715860754,7.14258994 0.715860754,8.24715944 Z" id="path-4"></path>
        <linearGradient x1="50%" y1="10.3860154%" x2="50%" y2="55.9502605%" id="linearGradient-6">
            <stop stop-color="#704FDE" offset="0%"></stop>
            <stop stop-color="#7855EE" offset="100%"></stop>
        </linearGradient>
        <linearGradient x1="52.0561967%" y1="21.498679%" x2="45.2154704%" y2="40.4437595%" id="linearGradient-7">
            <stop stop-color="#805EF0" offset="0%"></stop>
            <stop stop-color="#8864FF" offset="100%"></stop>
        </linearGradient>
    </defs>
    <g id="2022.6" stroke="none" stroke-width="1" fill="none" fill-rule="evenodd">
        <g id="登录-安全验证" transform="translate(-48.000000, -252.000000)">
            <g id="移动端/图标/安全验证/邮箱" transform="translate(48.000000, 252.000000)">
                <g id="背景">
                    <path d="M17.3833112,2 L86.6166888,2 C91.9658012,2 93.9055187,2.55695367 95.8610742,3.60279622 C97.8166298,4.64863878 99.3513612,6.18337022 100.397204,8.13892578 C101.443046,10.0944813 102,12.0341988 102,17.3833112 L102,86.6166888 C102,91.9658012 101.443046,93.9055187 100.397204,95.8610742 C99.3513612,97.8166298 97.8166298,99.3513612 95.8610742,100.397204 C93.9055187,101.443046 91.9658012,102 86.6166888,102 L17.3833112,102 C12.0341988,102 10.0944813,101.443046 8.13892578,100.397204 C6.18337022,99.3513612 4.64863878,97.8166298 3.60279622,95.8610742 C2.55695367,93.9055187 2,91.9658012 2,86.6166888 L2,17.3833112 C2,12.0341988 2.55695367,10.0944813 3.60279622,8.13892578 C4.64863878,6.18337022 6.18337022,4.64863878 8.13892578,3.60279622 C10.0944813,2.55695367 12.0341988,2 17.3833112,2 Z" id="矩形" fill="#1F202A"></path>
                    <g id="矩形">
                        <use fill="url(#linearGradient-1)" fill-rule="evenodd" xlink:href="#path-2"></use>
                        <use fill="black" fill-opacity="1" filter="url(#filter-3)" xlink:href="#path-2"></use>
                    </g>
                    <path d="M10,87.2229678 L22.7770322,100 L88,100 C94.627417,100 100,94.627417 100,88 L100,26.599885 L100,26.599885 L83.5621166,10.2281442 L10,87.2229678 Z" id="路径-2" fill-opacity="0.096272" fill="#000000"></path>
                    <polygon id="路径" fill="#3F4F61" fill-rule="nonzero" points="87.6620015 34.8638804 89.5628834 15.9969325 83.5621166 10.2281442 61.0429448 11.7551764 42.322661 10 12.9246549 10 10 21.9929064 11.4628067 43.1997699 10 59.7268021 10 87.2229678 22.5776457 89.5628834 51.5366181 87.9543712 73.3282209 89.5628834 86.0525307 89.5628834 89.5628834 83.7154908 88.3924463 71.5730445 89.5628834 58.556365"></polygon>
                    <path d="M12.9256135,10 L15.5578988,20.5300997 L11.4628067,43.1997699 L10,21.9929064 M10.6873083,51.9583972 L12.7789494,80.4946319 L22.5776457,89.5628834 L10,87.2229678 L10,59.7268021 M34.132477,10 L44.6625767,14.2417561 L69.2254601,11.2001534" id="形状" fill="#64717E" fill-rule="nonzero"></path>
                    <path d="M50.888612,87.989839 L78.544862,87.0763037 L86.0525307,89.5628834 L73.3282209,89.5628834 M87.6610429,34.8638804 L86.8807515,54.6079371 L86.8807515,73.7672546 L89.5628834,83.712615 L89.5628834,47.0024923 L88.4950153,26.599885" id="形状" fill="#303B4F" fill-rule="nonzero"></path>
                    <polygon id="路径" fill="#1F2C39" fill-rule="nonzero" points="31.7158608 62.8649184 68.4705713 37.2471594 86.8807515 56.1801372 89.5628834 83.712615 86.0525307 89.5628834 78.544862 87.0763037 58.6523382 87.8002126"></polygon>
                </g>
                <g id="编组-2" transform="translate(31.000000, 31.000000)">
                    <rect id="矩形" x="0" y="0" width="40" height="40"></rect>
                    <mask id="mask-5" fill="white">
                        <use xlink:href="#path-4"></use>
                    </mask>
                    <use id="路径-4" fill="#D8D8D8" xlink:href="#path-4"></use>
                    <polygon id="路径-9" fill="url(#linearGradient-6)" mask="url(#mask-5)" points="0.715860754 33.7528406 13.5174708 16.8992498 20.0248986 22.3646924 26.4831274 16.8992498 39.2841392 33.7378117"></polygon>
                    <polygon id="路径-8" fill="url(#linearGradient-7)" mask="url(#mask-5)" points="0.715860754 6.24715944 13.5174708 16.8992498 0.715860754 33.7528406"></polygon>
                    <polygon id="路径-8备份" fill="url(#linearGradient-7)" mask="url(#mask-5)" transform="translate(32.883334, 20.000000) scale(-1, 1) translate(-32.883334, -20.000000) " points="26.4825292 6.24715944 39.2841392 16.8992498 26.4825292 33.7528406"></polygon>
                    <polygon id="路径-5" fill="#AD94FF" mask="url(#mask-5)" points="0.715860754 6.24715944 20.0248986 22.3646924 39.2841392 6.24715944"></polygon>
                </g>
            </g>
        </g>
    </g>
</svg>